<svg xmlns="http://www.w3.org/2000/svg" xmlns:xlink="http://www.w3.org/1999/xlink" width="1000" zoomAndPan="magnify" viewBox="0 0 750 1049.999947" height="1400" preserveAspectRatio="xMidYMid meet" version="1.0"><defs><g/><clipPath id="4024e9592a"><path d="M 676.570312 33.03125 L 740.84375 33.03125 L 740.84375 88.25 L 676.570312 88.25 Z M 676.570312 33.03125 " clip-rule="nonzero"/></clipPath><clipPath id="af08530702"><path d="M 740.820312 60.640625 L 724.757812 88.25 L 692.632812 88.25 L 676.570312 60.640625 L 692.632812 33.03125 L 724.757812 33.03125 Z M 740.820312 60.640625 " clip-rule="nonzero"/></clipPath><clipPath id="6a408f0c50"><path d="M 0.570312 0.03125 L 64.84375 0.03125 L 64.84375 55.25 L 0.570312 55.25 Z M 0.570312 0.03125 " clip-rule="nonzero"/></clipPath><clipPath id="1aadee938a"><path d="M 64.820312 27.640625 L 48.757812 55.25 L 16.632812 55.25 L 0.570312 27.640625 L 16.632812 0.03125 L 48.757812 0.03125 Z M 64.820312 27.640625 " clip-rule="nonzero"/></clipPath><clipPath id="02eee609a0"><rect x="0" width="65" y="0" height="56"/></clipPath><clipPath id="4294477a2f"><rect x="0" width="78" y="0" height="268"/></clipPath><clipPath id="3f77e8d239"><path d="M 643.839844 768.894531 L 682.34375 768.894531 L 682.34375 807.398438 L 643.839844 807.398438 Z M 643.839844 768.894531 " clip-rule="nonzero"/></clipPath><clipPath id="ef69df9d80"><path d="M 0.839844 0.894531 L 39.34375 0.894531 L 39.34375 39.398438 L 0.839844 39.398438 Z M 0.839844 0.894531 " clip-rule="nonzero"/></clipPath><clipPath id="a76c7a5808"><rect x="0" width="40" y="0" height="40"/></clipPath><clipPath id="a81a9abdc0"><rect x="0" width="77" y="0" height="250"/></clipPath><clipPath id="ad4f9ca722"><path d="M 643.839844 813.414062 L 682.34375 813.414062 L 682.34375 851.917969 L 643.839844 851.917969 Z M 643.839844 813.414062 " clip-rule="nonzero"/></clipPath><clipPath id="c52edbac9f"><path d="M 0.839844 0.414062 L 39.34375 0.414062 L 39.34375 38.917969 L 0.839844 38.917969 Z M 0.839844 0.414062 " clip-rule="nonzero"/></clipPath><clipPath id="9d5444fe91"><rect x="0" width="40" y="0" height="39"/></clipPath><clipPath id="0aa45fc584"><path d="M 643.839844 858.515625 L 682.34375 858.515625 L 682.34375 897.015625 L 643.839844 897.015625 Z M 643.839844 858.515625 " clip-rule="nonzero"/></clipPath><clipPath id="42cb21c372"><path d="M 0.839844 0.515625 L 39.34375 0.515625 L 39.34375 39.015625 L 0.839844 39.015625 Z M 0.839844 0.515625 " clip-rule="nonzero"/></clipPath><clipPath id="d1d2c365bc"><rect x="0" width="40" y="0" height="40"/></clipPath><clipPath id="1bf1e78598"><path d="M 643.839844 903.175781 L 682.34375 903.175781 L 682.34375 941.679688 L 643.839844 941.679688 Z M 643.839844 903.175781 " clip-rule="nonzero"/></clipPath><clipPath id="6ecc332558"><path d="M 0.839844 0.175781 L 39.34375 0.175781 L 39.34375 38.679688 L 0.839844 38.679688 Z M 0.839844 0.175781 " clip-rule="nonzero"/></clipPath><clipPath id="bd1815adfd"><rect x="0" width="40" y="0" height="39"/></clipPath><clipPath id="63175cbd2f"><path d="M 26.503906 661.261719 L 65.003906 661.261719 L 65.003906 699.765625 L 26.503906 699.765625 Z M 26.503906 661.261719 " clip-rule="nonzero"/></clipPath><clipPath id="2e72065e53"><path d="M 0.503906 0.261719 L 39.003906 0.261719 L 39.003906 38.765625 L 0.503906 38.765625 Z M 0.503906 0.261719 " clip-rule="nonzero"/></clipPath><clipPath id="55e8581a22"><rect x="0" width="40" y="0" height="39"/></clipPath><clipPath id="a0d65ea926"><path d="M 26.503906 705.78125 L 65.003906 705.78125 L 65.003906 744.285156 L 26.503906 744.285156 Z M 26.503906 705.78125 " clip-rule="nonzero"/></clipPath><clipPath id="472b4f5877"><path d="M 0.503906 0.78125 L 39.003906 0.78125 L 39.003906 39.285156 L 0.503906 39.285156 Z M 0.503906 0.78125 " clip-rule="nonzero"/></clipPath><clipPath id="06444df150"><rect x="0" width="40" y="0" height="40"/></clipPath><clipPath id="4d08a3776f"><path d="M 26.503906 750.882812 L 65.003906 750.882812 L 65.003906 789.382812 L 26.503906 789.382812 Z M 26.503906 750.882812 " clip-rule="nonzero"/></clipPath><clipPath id="42e8b0b37a"><path d="M 0.503906 0.882812 L 39.003906 0.882812 L 39.003906 39.382812 L 0.503906 39.382812 Z M 0.503906 0.882812 " clip-rule="nonzero"/></clipPath><clipPath id="64821e4fff"><rect x="0" width="40" y="0" height="40"/></clipPath><clipPath id="fc1f67b5e1"><path d="M 26.503906 795.542969 L 65.003906 795.542969 L 65.003906 834.046875 L 26.503906 834.046875 Z M 26.503906 795.542969 " clip-rule="nonzero"/></clipPath><clipPath id="64077c829e"><path d="M 0.503906 0.542969 L 39.003906 0.542969 L 39.003906 39.046875 L 0.503906 39.046875 Z M 0.503906 0.542969 " clip-rule="nonzero"/></clipPath><clipPath id="28b5808d7f"><rect x="0" width="40" y="0" height="40"/></clipPath><clipPath id="39a9669933"><path d="M 18.347656 17.359375 L 73.191406 17.359375 L 73.191406 64.472656 L 18.347656 64.472656 Z M 18.347656 17.359375 " clip-rule="nonzero"/></clipPath><clipPath id="e555416c81"><path d="M 73.167969 40.917969 L 59.464844 64.472656 L 32.054688 64.472656 L 18.347656 40.917969 L 32.054688 17.359375 L 59.464844 17.359375 Z M 73.167969 40.917969 " clip-rule="nonzero"/></clipPath><clipPath id="dc162b2058"><path d="M 0.347656 0.359375 L 55.191406 0.359375 L 55.191406 47.472656 L 0.347656 47.472656 Z M 0.347656 0.359375 " clip-rule="nonzero"/></clipPath><clipPath id="57675a2e80"><path d="M 55.167969 23.917969 L 41.464844 47.472656 L 14.054688 47.472656 L 0.347656 23.917969 L 14.054688 0.359375 L 41.464844 0.359375 Z M 55.167969 23.917969 " clip-rule="nonzero"/></clipPath><clipPath id="60bb5d7cf6"><rect x="0" width="56" y="0" height="48"/></clipPath><clipPath id="d49336cf68"><path d="M 18.347656 121.882812 L 73.191406 121.882812 L 73.191406 168.996094 L 18.347656 168.996094 Z M 18.347656 121.882812 " clip-rule="nonzero"/></clipPath><clipPath id="f3f289cf30"><path d="M 73.167969 145.441406 L 59.464844 168.996094 L 32.054688 168.996094 L 18.347656 145.441406 L 32.054688 121.882812 L 59.464844 121.882812 Z M 73.167969 145.441406 " clip-rule="nonzero"/></clipPath><clipPath id="41975b41ac"><path d="M 0.347656 0.882812 L 55.191406 0.882812 L 55.191406 47.996094 L 0.347656 47.996094 Z M 0.347656 0.882812 " clip-rule="nonzero"/></clipPath><clipPath id="4f32a92083"><path d="M 55.167969 24.441406 L 41.464844 47.996094 L 14.054688 47.996094 L 0.347656 24.441406 L 14.054688 0.882812 L 41.464844 0.882812 Z M 55.167969 24.441406 " clip-rule="nonzero"/></clipPath><clipPath id="a2b8e4ed50"><rect x="0" width="56" y="0" height="48"/></clipPath><clipPath id="d7d5925bbd"><path d="M 18.347656 69.53125 L 73.191406 69.53125 L 73.191406 116.644531 L 18.347656 116.644531 Z M 18.347656 69.53125 " clip-rule="nonzero"/></clipPath><clipPath id="ed7b6457fd"><path d="M 73.167969 93.089844 L 59.464844 116.644531 L 32.054688 116.644531 L 18.347656 93.089844 L 32.054688 69.53125 L 59.464844 69.53125 Z M 73.167969 93.089844 " clip-rule="nonzero"/></clipPath><clipPath id="ba9f9f4c3a"><path d="M 0.347656 0.53125 L 55.191406 0.53125 L 55.191406 47.644531 L 0.347656 47.644531 Z M 0.347656 0.53125 " clip-rule="nonzero"/></clipPath><clipPath id="ad127d3420"><path d="M 55.167969 24.089844 L 41.464844 47.644531 L 14.054688 47.644531 L 0.347656 24.089844 L 14.054688 0.53125 L 41.464844 0.53125 Z M 55.167969 24.089844 " clip-rule="nonzero"/></clipPath><clipPath id="0af5a8e242"><rect x="0" width="56" y="0" height="48"/></clipPath><clipPath id="ef58c742f6"><path d="M 14.242188 376 L 77.242188 376 L 77.242188 420 L 14.242188 420 Z M 14.242188 376 " clip-rule="nonzero"/></clipPath><clipPath id="4d1b934e32"><path d="M 14.242188 340.152344 L 77.242188 340.152344 L 77.242188 384 L 14.242188 384 Z M 14.242188 340.152344 " clip-rule="nonzero"/></clipPath><clipPath id="c860226a5f"><path d="M 14.242188 446 L 77.242188 446 L 77.242188 490.152344 L 14.242188 490.152344 Z M 14.242188 446 " clip-rule="nonzero"/></clipPath><clipPath id="f3e081a911"><path d="M 14.242188 411 L 77.242188 411 L 77.242188 456 L 14.242188 456 Z M 14.242188 411 " clip-rule="nonzero"/></clipPath><clipPath id="f87b57ac2a"><rect x="0" width="78" y="0" height="123"/></clipPath><clipPath id="ef76616398"><path d="M 690.839844 557 L 742.589844 557 L 742.589844 598 L 690.839844 598 Z M 690.839844 557 " clip-rule="nonzero"/></clipPath><clipPath id="b90534af7a"><path d="M 694 579 L 729 579 L 729 602.523438 L 694 602.523438 Z M 694 579 " clip-rule="nonzero"/></clipPath><clipPath id="6cb012d666"><path d="M 702 550.773438 L 734 550.773438 L 734 561 L 702 561 Z M 702 550.773438 " clip-rule="nonzero"/></clipPath><clipPath id="e6a5ae3fe4"><path d="M 647 535 L 690 535 L 690 571 L 647 571 Z M 647 535 " clip-rule="nonzero"/></clipPath><clipPath id="15d7be2fb8"><path d="M 672.515625 525.140625 L 698.097656 558.449219 L 664.789062 584.035156 L 639.207031 550.722656 Z M 672.515625 525.140625 " clip-rule="nonzero"/></clipPath><clipPath id="92461320ac"><path d="M 672.515625 525.140625 L 698.097656 558.449219 L 664.789062 584.035156 L 639.207031 550.722656 Z M 672.515625 525.140625 " clip-rule="nonzero"/></clipPath><clipPath id="21980191e9"><path d="M 658 558 L 688 558 L 688 576 L 658 576 Z M 658 558 " clip-rule="nonzero"/></clipPath><clipPath id="e19e05b0a4"><path d="M 672.515625 525.140625 L 698.097656 558.449219 L 664.789062 584.035156 L 639.207031 550.722656 Z M 672.515625 525.140625 " clip-rule="nonzero"/></clipPath><clipPath id="9d8729e665"><path d="M 672.515625 525.140625 L 698.097656 558.449219 L 664.789062 584.035156 L 639.207031 550.722656 Z M 672.515625 525.140625 " clip-rule="nonzero"/></clipPath><clipPath id="82e69b3bf0"><path d="M 649 533 L 671 533 L 671 548 L 649 548 Z M 649 533 " clip-rule="nonzero"/></clipPath><clipPath id="6058acb6b8"><path d="M 672.515625 525.140625 L 698.097656 558.449219 L 664.789062 584.035156 L 639.207031 550.722656 Z M 672.515625 525.140625 " clip-rule="nonzero"/></clipPath><clipPath id="5a6da16872"><path d="M 672.515625 525.140625 L 698.097656 558.449219 L 664.789062 584.035156 L 639.207031 550.722656 Z M 672.515625 525.140625 " clip-rule="nonzero"/></clipPath><clipPath id="afb7f1e0fa"><path d="M 647 498 L 679 498 L 679 529 L 647 529 Z M 647 498 " clip-rule="nonzero"/></clipPath><clipPath id="5aed770700"><path d="M 657.417969 492.277344 L 684.484375 508.390625 L 668.371094 535.457031 L 641.304688 519.34375 Z M 657.417969 492.277344 " clip-rule="nonzero"/></clipPath><clipPath id="9d14d2013d"><path d="M 657.417969 492.277344 L 684.484375 508.390625 L 668.371094 535.457031 L 641.304688 519.34375 Z M 657.417969 492.277344 " clip-rule="nonzero"/></clipPath><clipPath id="66c46f96e1"><path d="M 659 514 L 679 514 L 679 530 L 659 530 Z M 659 514 " clip-rule="nonzero"/></clipPath><clipPath id="2f22220ff2"><path d="M 657.417969 492.277344 L 684.484375 508.390625 L 668.371094 535.457031 L 641.304688 519.34375 Z M 657.417969 492.277344 " clip-rule="nonzero"/></clipPath><clipPath id="56ab1de0c8"><path d="M 657.417969 492.277344 L 684.484375 508.390625 L 668.371094 535.457031 L 641.304688 519.34375 Z M 657.417969 492.277344 " clip-rule="nonzero"/></clipPath><clipPath id="fc82103d96"><path d="M 647 498 L 659 498 L 659 514 L 647 514 Z M 647 498 " clip-rule="nonzero"/></clipPath><clipPath id="a5d3923bc4"><path d="M 657.417969 492.277344 L 684.484375 508.390625 L 668.371094 535.457031 L 641.304688 519.34375 Z M 657.417969 492.277344 " clip-rule="nonzero"/></clipPath><clipPath id="b3a41aed15"><path d="M 657.417969 492.277344 L 684.484375 508.390625 L 668.371094 535.457031 L 641.304688 519.34375 Z M 657.417969 492.277344 " clip-rule="nonzero"/></clipPath><clipPath id="8c8f73175d"><path d="M 664 473 L 685 473 L 685 498 L 664 498 Z M 664 473 " clip-rule="nonzero"/></clipPath><clipPath id="686ad22b38"><path d="M 664.234375 471.359375 L 687.964844 474.949219 L 684.378906 498.679688 L 660.648438 495.089844 Z M 664.234375 471.359375 " clip-rule="nonzero"/></clipPath><clipPath id="22515bbec4"><path d="M 664.234375 471.359375 L 687.964844 474.949219 L 684.378906 498.679688 L 660.648438 495.089844 Z M 664.234375 471.359375 " clip-rule="nonzero"/></clipPath><clipPath id="0ee6a817e5"><path d="M 674 481 L 687 481 L 687 497 L 674 497 Z M 674 481 " clip-rule="nonzero"/></clipPath><clipPath id="5410dd9fe7"><path d="M 664.234375 471.359375 L 687.964844 474.949219 L 684.378906 498.679688 L 660.648438 495.089844 Z M 664.234375 471.359375 " clip-rule="nonzero"/></clipPath><clipPath id="3b4088c8c4"><path d="M 664.234375 471.359375 L 687.964844 474.949219 L 684.378906 498.679688 L 660.648438 495.089844 Z M 664.234375 471.359375 " clip-rule="nonzero"/></clipPath><clipPath id="c732ab823c"><path d="M 662 475 L 668 475 L 668 490 L 662 490 Z M 662 475 " clip-rule="nonzero"/></clipPath><clipPath id="d4536d291a"><path d="M 664.234375 471.359375 L 687.964844 474.949219 L 684.378906 498.679688 L 660.648438 495.089844 Z M 664.234375 471.359375 " clip-rule="nonzero"/></clipPath><clipPath id="f23ac031e6"><path d="M 664.234375 471.359375 L 687.964844 474.949219 L 684.378906 498.679688 L 660.648438 495.089844 Z M 664.234375 471.359375 " clip-rule="nonzero"/></clipPath><clipPath id="7f7e8824a1"><rect x="0" width="78" y="0" height="96"/></clipPath><clipPath id="3450aaeee7"><path d="M 18.347656 174.246094 L 73.191406 174.246094 L 73.191406 221.359375 L 18.347656 221.359375 Z M 18.347656 174.246094 " clip-rule="nonzero"/></clipPath><clipPath id="b0a1723d61"><path d="M 73.167969 197.804688 L 59.464844 221.359375 L 32.054688 221.359375 L 18.347656 197.804688 L 32.054688 174.246094 L 59.464844 174.246094 Z M 73.167969 197.804688 " clip-rule="nonzero"/></clipPath><clipPath id="83c3e823d2"><path d="M 0.347656 0.246094 L 55.191406 0.246094 L 55.191406 47.359375 L 0.347656 47.359375 Z M 0.347656 0.246094 " clip-rule="nonzero"/></clipPath><clipPath id="a262da01d0"><path d="M 55.167969 23.804688 L 41.464844 47.359375 L 14.054688 47.359375 L 0.347656 23.804688 L 14.054688 0.246094 L 41.464844 0.246094 Z M 55.167969 23.804688 " clip-rule="nonzero"/></clipPath><clipPath id="5250078b69"><rect x="0" width="56" y="0" height="48"/></clipPath><clipPath id="13fb593806"><path d="M 624.015625 64.472656 L 688.292969 64.472656 L 688.292969 119.6875 L 624.015625 119.6875 Z M 624.015625 64.472656 " clip-rule="nonzero"/></clipPath><clipPath id="2e021ad0dd"><path d="M 688.269531 92.082031 L 672.207031 119.6875 L 640.078125 119.6875 L 624.015625 92.082031 L 640.078125 64.472656 L 672.207031 64.472656 Z M 688.269531 92.082031 " clip-rule="nonzero"/></clipPath><clipPath id="a9e0d7a49b"><path d="M 0.015625 0.472656 L 64.292969 0.472656 L 64.292969 55.6875 L 0.015625 55.6875 Z M 0.015625 0.472656 " clip-rule="nonzero"/></clipPath><clipPath id="e99d7fb31f"><path d="M 64.269531 28.082031 L 48.207031 55.6875 L 16.078125 55.6875 L 0.015625 28.082031 L 16.078125 0.472656 L 48.207031 0.472656 Z M 64.269531 28.082031 " clip-rule="nonzero"/></clipPath><clipPath id="6e93fab041"><rect x="0" width="65" y="0" height="56"/></clipPath><clipPath id="9c3b910b14"><path d="M 624.015625 124.882812 L 688.292969 124.882812 L 688.292969 180.101562 L 624.015625 180.101562 Z M 624.015625 124.882812 " clip-rule="nonzero"/></clipPath><clipPath id="5bf73fd0c8"><path d="M 688.269531 152.492188 L 672.207031 180.101562 L 640.078125 180.101562 L 624.015625 152.492188 L 640.078125 124.882812 L 672.207031 124.882812 Z M 688.269531 152.492188 " clip-rule="nonzero"/></clipPath><clipPath id="fa30ef6495"><path d="M 0.015625 0.882812 L 64.292969 0.882812 L 64.292969 56.101562 L 0.015625 56.101562 Z M 0.015625 0.882812 " clip-rule="nonzero"/></clipPath><clipPath id="31780eaf85"><path d="M 64.269531 28.492188 L 48.207031 56.101562 L 16.078125 56.101562 L 0.015625 28.492188 L 16.078125 0.882812 L 48.207031 0.882812 Z M 64.269531 28.492188 " clip-rule="nonzero"/></clipPath><clipPath id="205e47d45d"><rect x="0" width="65" y="0" height="57"/></clipPath></defs><g clip-path="url(#4024e9592a)"><g clip-path="url(#af08530702)"><g transform="matrix(1, 0, 0, 1, 676, 33)"><g clip-path="url(#02eee609a0)"><g clip-path="url(#6a408f0c50)"><g clip-path="url(#1aadee938a)"><path fill="#eff8ff" d="M 0.570312 0.03125 L 64.84375 0.03125 L 64.84375 55.25 L 0.570312 55.25 Z M 0.570312 0.03125 " fill-opacity="1" fill-rule="nonzero"/></g></g></g></g></g></g><g transform="matrix(1, 0, 0, 1, 668, 90)"><g clip-path="url(#4294477a2f)"><g fill="#eff8ff" fill-opacity="1"><g transform="translate(22.326837, 0.494708)"><g><path d="M 50.578125 3.671875 L 50.578125 19.375 C 50.578125 24.113281 49.566406 27.894531 47.546875 30.71875 C 45.523438 33.539062 42.242188 34.953125 37.703125 34.953125 C 32.640625 34.953125 29.023438 32.847656 26.859375 28.640625 C 25.585938 35.828125 21.335938 39.421875 14.109375 39.421875 C 9.847656 39.421875 6.429688 37.945312 3.859375 35 C 1.285156 32.0625 0 28.019531 0 22.875 L 0 3.671875 Z M 30.78125 15.203125 L 30.78125 16.125 C 30.78125 18.695312 31.226562 20.617188 32.125 21.890625 C 33.03125 23.160156 34.503906 23.796875 36.546875 23.796875 C 39.972656 23.796875 41.6875 21.238281 41.6875 16.125 L 41.6875 15.203125 Z M 8.890625 15.203125 L 8.890625 18.828125 C 8.890625 24.460938 10.769531 27.28125 14.53125 27.28125 C 16.78125 27.28125 18.394531 26.570312 19.375 25.15625 C 20.351562 23.75 20.84375 21.640625 20.84375 18.828125 L 20.84375 15.203125 Z M 8.890625 15.203125 "/></g></g></g><g fill="#eff8ff" fill-opacity="1"><g transform="translate(22.326837, 41.331111)"><g><path d="M 50.578125 32.625 L 40.46875 32.625 L 40.46875 15.203125 L 30.40625 15.203125 L 30.40625 31.875 L 20.296875 31.875 L 20.296875 15.203125 L 10.109375 15.203125 L 10.109375 32.625 L 0 32.625 L 0 3.671875 L 50.578125 3.671875 Z M 50.578125 32.625 "/></g></g></g><g fill="#eff8ff" fill-opacity="1"><g transform="translate(22.326837, 76.894359)"><g><path d="M 50.578125 15.203125 L 10.109375 15.203125 L 10.109375 32.625 L 0 32.625 L 0 3.671875 L 50.578125 3.671875 Z M 50.578125 15.203125 "/></g></g></g><g fill="#eff8ff" fill-opacity="1"><g transform="translate(22.326837, 111.537858)"><g><path d="M 25.328125 1.40625 C 32.640625 1.40625 38.828125 3.898438 43.890625 8.890625 C 48.960938 13.878906 51.5 19.890625 51.5 26.921875 C 51.5 33.984375 48.972656 39.988281 43.921875 44.9375 C 38.878906 49.882812 32.679688 52.359375 25.328125 52.359375 C 17.921875 52.359375 11.691406 49.925781 6.640625 45.0625 C 1.597656 40.195312 -0.921875 34.148438 -0.921875 26.921875 C -0.921875 19.515625 1.582031 13.410156 6.59375 8.609375 C 11.601562 3.804688 17.847656 1.40625 25.328125 1.40625 Z M 25.328125 13.859375 C 22.671875 13.859375 20.25 14.265625 18.0625 15.078125 C 15.875 15.898438 14.019531 17.332031 12.5 19.375 C 10.988281 21.414062 10.234375 23.929688 10.234375 26.921875 C 10.234375 31.210938 11.703125 34.453125 14.640625 36.640625 C 17.585938 38.828125 21.148438 39.921875 25.328125 39.921875 C 29.453125 39.921875 32.992188 38.804688 35.953125 36.578125 C 38.921875 34.347656 40.40625 31.128906 40.40625 26.921875 C 40.40625 22.742188 38.921875 19.519531 35.953125 17.25 C 32.992188 14.988281 29.453125 13.859375 25.328125 13.859375 Z M 25.328125 13.859375 "/></g></g></g><g fill="#eff8ff" fill-opacity="1"><g transform="translate(22.326837, 165.311938)"><g><path d="M 31.390625 15.203125 L 0 15.203125 L 0 3.671875 L 50.578125 3.671875 L 50.578125 15.203125 L 19.1875 35.3125 L 19.1875 35.4375 L 50.578125 35.4375 L 50.578125 46.96875 L 0 46.96875 L 0 35.4375 L 31.390625 15.328125 Z M 31.390625 15.203125 "/></g></g></g><g fill="#eff8ff" fill-opacity="1"><g transform="translate(22.326837, 215.958891)"><g><path d="M 28.328125 49.421875 L 17.34375 49.421875 C 11.34375 48.109375 6.796875 45.242188 3.703125 40.828125 C 0.617188 36.421875 -0.921875 31.5 -0.921875 26.0625 C -0.921875 19.226562 1.628906 13.410156 6.734375 8.609375 C 11.847656 3.804688 18.023438 1.40625 25.265625 1.40625 C 32.617188 1.40625 38.828125 3.753906 43.890625 8.453125 C 48.960938 13.160156 51.5 19.03125 51.5 26.0625 C 51.5 34.269531 48.617188 40.769531 42.859375 45.5625 L 34.578125 38.015625 C 38.910156 35.316406 41.078125 31.554688 41.078125 26.734375 C 41.078125 23.171875 39.535156 20.132812 36.453125 17.625 C 33.367188 15.113281 29.640625 13.859375 25.265625 13.859375 C 20.972656 13.859375 17.300781 15.113281 14.25 17.625 C 11.207031 20.132812 9.6875 23.171875 9.6875 26.734375 C 9.6875 29.671875 10.570312 32.234375 12.34375 34.421875 C 14.125 36.609375 16.488281 37.703125 19.4375 37.703125 L 19.4375 26.0625 L 28.328125 26.0625 Z M 28.328125 49.421875 "/></g></g></g></g></g><g clip-path="url(#3f77e8d239)"><g transform="matrix(1, 0, 0, 1, 643, 768)"><g clip-path="url(#a76c7a5808)"><g clip-path="url(#ef69df9d80)"><path fill="#eff8ff" d="M 39.34375 0.894531 L 39.34375 39.398438 L 0.839844 39.398438 L 0.839844 0.894531 Z M 39.34375 0.894531 " fill-opacity="1" fill-rule="nonzero"/></g></g></g></g><g transform="matrix(1, 0, 0, 1, 669, 766)"><g clip-path="url(#a81a9abdc0)"><g fill="#eff8ff" fill-opacity="1"><g transform="translate(22.300336, 0.392569)"><g><path d="M 50.578125 3.671875 L 50.578125 19.375 C 50.578125 24.113281 49.566406 27.894531 47.546875 30.71875 C 45.523438 33.539062 42.242188 34.953125 37.703125 34.953125 C 32.640625 34.953125 29.023438 32.847656 26.859375 28.640625 C 25.585938 35.828125 21.335938 39.421875 14.109375 39.421875 C 9.847656 39.421875 6.429688 37.945312 3.859375 35 C 1.285156 32.0625 0 28.019531 0 22.875 L 0 3.671875 Z M 30.78125 15.203125 L 30.78125 16.125 C 30.78125 18.695312 31.226562 20.617188 32.125 21.890625 C 33.03125 23.160156 34.503906 23.796875 36.546875 23.796875 C 39.972656 23.796875 41.6875 21.238281 41.6875 16.125 L 41.6875 15.203125 Z M 8.890625 15.203125 L 8.890625 18.828125 C 8.890625 24.460938 10.769531 27.28125 14.53125 27.28125 C 16.78125 27.28125 18.394531 26.570312 19.375 25.15625 C 20.351562 23.75 20.84375 21.640625 20.84375 18.828125 L 20.84375 15.203125 Z M 8.890625 15.203125 "/></g></g></g><g fill="#eff8ff" fill-opacity="1"><g transform="translate(22.300336, 41.230351)"><g><path d="M 50.578125 32.625 L 40.46875 32.625 L 40.46875 15.203125 L 30.40625 15.203125 L 30.40625 31.875 L 20.296875 31.875 L 20.296875 15.203125 L 10.109375 15.203125 L 10.109375 32.625 L 0 32.625 L 0 3.671875 L 50.578125 3.671875 Z M 50.578125 32.625 "/></g></g></g><g fill="#eff8ff" fill-opacity="1"><g transform="translate(22.300336, 76.79478)"><g><path d="M 50.578125 15.203125 L 10.109375 15.203125 L 10.109375 32.625 L 0 32.625 L 0 3.671875 L 50.578125 3.671875 Z M 50.578125 15.203125 "/></g></g></g><g fill="#eff8ff" fill-opacity="1"><g transform="translate(22.300336, 111.439446)"><g><path d="M 50.578125 15.203125 L 0 15.203125 L 0 3.671875 L 50.578125 3.671875 Z M 50.578125 15.203125 "/></g></g></g><g fill="#eff8ff" fill-opacity="1"><g transform="translate(22.300336, 130.325379)"><g><path d="M 50.578125 32.625 L 40.46875 32.625 L 40.46875 15.203125 L 30.40625 15.203125 L 30.40625 31.875 L 20.296875 31.875 L 20.296875 15.203125 L 10.109375 15.203125 L 10.109375 32.625 L 0 32.625 L 0 3.671875 L 50.578125 3.671875 Z M 50.578125 32.625 "/></g></g></g><g fill="#eff8ff" fill-opacity="1"><g transform="translate(22.300336, 165.889808)"><g><path d="M 0 19.5 L 50.578125 -1.71875 L 50.578125 11.28125 L 17.34375 24.03125 L 50.578125 36.78125 L 50.578125 49.78125 L 0 28.578125 Z M 0 19.5 "/></g></g></g><g fill="#eff8ff" fill-opacity="1"><g transform="translate(22.300336, 213.963112)"><g><path d="M 50.578125 32.625 L 40.46875 32.625 L 40.46875 15.203125 L 30.40625 15.203125 L 30.40625 31.875 L 20.296875 31.875 L 20.296875 15.203125 L 10.109375 15.203125 L 10.109375 32.625 L 0 32.625 L 0 3.671875 L 50.578125 3.671875 Z M 50.578125 32.625 "/></g></g></g></g></g><g clip-path="url(#ad4f9ca722)"><g transform="matrix(1, 0, 0, 1, 643, 813)"><g clip-path="url(#9d5444fe91)"><g clip-path="url(#c52edbac9f)"><path fill="#eff8ff" d="M 39.34375 0.414062 L 39.34375 38.917969 L 0.839844 38.917969 L 0.839844 0.414062 Z M 39.34375 0.414062 " fill-opacity="1" fill-rule="nonzero"/></g></g></g></g><g clip-path="url(#0aa45fc584)"><g transform="matrix(1, 0, 0, 1, 643, 858)"><g clip-path="url(#d1d2c365bc)"><g clip-path="url(#42cb21c372)"><path fill="#eff8ff" d="M 39.34375 0.515625 L 39.34375 39.015625 L 0.839844 39.015625 L 0.839844 0.515625 Z M 39.34375 0.515625 " fill-opacity="1" fill-rule="nonzero"/></g></g></g></g><g clip-path="url(#1bf1e78598)"><g transform="matrix(1, 0, 0, 1, 643, 903)"><g clip-path="url(#bd1815adfd)"><g clip-path="url(#6ecc332558)"><path fill="#eff8ff" d="M 39.34375 0.175781 L 39.34375 38.679688 L 0.839844 38.679688 L 0.839844 0.175781 Z M 39.34375 0.175781 " fill-opacity="1" fill-rule="nonzero"/></g></g></g></g><g clip-path="url(#63175cbd2f)"><g transform="matrix(1, 0, 0, 1, 26, 661)"><g clip-path="url(#55e8581a22)"><g clip-path="url(#2e72065e53)"><path fill="#eff8ff" d="M 39.003906 0.261719 L 39.003906 38.765625 L 0.503906 38.765625 L 0.503906 0.261719 Z M 39.003906 0.261719 " fill-opacity="1" fill-rule="nonzero"/></g></g></g></g><g clip-path="url(#a0d65ea926)"><g transform="matrix(1, 0, 0, 1, 26, 705)"><g clip-path="url(#06444df150)"><g clip-path="url(#472b4f5877)"><path fill="#eff8ff" d="M 39.003906 0.78125 L 39.003906 39.285156 L 0.503906 39.285156 L 0.503906 0.78125 Z M 39.003906 0.78125 " fill-opacity="1" fill-rule="nonzero"/></g></g></g></g><g clip-path="url(#4d08a3776f)"><g transform="matrix(1, 0, 0, 1, 26, 750)"><g clip-path="url(#64821e4fff)"><g clip-path="url(#42e8b0b37a)"><path fill="#eff8ff" d="M 39.003906 0.882812 L 39.003906 39.382812 L 0.503906 39.382812 L 0.503906 0.882812 Z M 39.003906 0.882812 " fill-opacity="1" fill-rule="nonzero"/></g></g></g></g><g clip-path="url(#fc1f67b5e1)"><g transform="matrix(1, 0, 0, 1, 26, 795)"><g clip-path="url(#28b5808d7f)"><g clip-path="url(#64077c829e)"><path fill="#eff8ff" d="M 39.003906 0.542969 L 39.003906 39.046875 L 0.503906 39.046875 L 0.503906 0.542969 Z M 39.003906 0.542969 " fill-opacity="1" fill-rule="nonzero"/></g></g></g></g><g clip-path="url(#39a9669933)"><g clip-path="url(#e555416c81)"><g transform="matrix(1, 0, 0, 1, 18, 17)"><g clip-path="url(#60bb5d7cf6)"><g clip-path="url(#dc162b2058)"><g clip-path="url(#57675a2e80)"><path fill="#eff8ff" d="M 0.347656 0.359375 L 55.191406 0.359375 L 55.191406 47.472656 L 0.347656 47.472656 Z M 0.347656 0.359375 " fill-opacity="1" fill-rule="nonzero"/></g></g></g></g></g></g><g clip-path="url(#d49336cf68)"><g clip-path="url(#f3f289cf30)"><g transform="matrix(1, 0, 0, 1, 18, 121)"><g clip-path="url(#a2b8e4ed50)"><g clip-path="url(#41975b41ac)"><g clip-path="url(#4f32a92083)"><path fill="#eff8ff" d="M 0.347656 0.882812 L 55.191406 0.882812 L 55.191406 47.996094 L 0.347656 47.996094 Z M 0.347656 0.882812 " fill-opacity="1" fill-rule="nonzero"/></g></g></g></g></g></g><g clip-path="url(#d7d5925bbd)"><g clip-path="url(#ed7b6457fd)"><g transform="matrix(1, 0, 0, 1, 18, 69)"><g clip-path="url(#0af5a8e242)"><g clip-path="url(#ba9f9f4c3a)"><g clip-path="url(#ad127d3420)"><path fill="#eff8ff" d="M 0.347656 0.53125 L 55.191406 0.53125 L 55.191406 47.644531 L 0.347656 47.644531 Z M 0.347656 0.53125 " fill-opacity="1" fill-rule="nonzero"/></g></g></g></g></g></g><g clip-path="url(#ef58c742f6)"><path fill="#eff8ff" d="M 66.421875 376.691406 L 77.246094 387.515625 L 45.757812 419.988281 L 14.269531 387.515625 L 25.09375 376.691406 L 45.757812 397.355469 Z M 66.421875 376.691406 " fill-opacity="1" fill-rule="nonzero"/></g><g clip-path="url(#4d1b934e32)"><path fill="#eff8ff" d="M 66.421875 340.199219 L 77.246094 351.023438 L 45.757812 383.496094 L 14.269531 351.023438 L 25.09375 340.199219 L 45.757812 360.863281 Z M 66.421875 340.199219 " fill-opacity="1" fill-rule="nonzero"/></g><g clip-path="url(#c860226a5f)"><path fill="#eff8ff" d="M 66.421875 446.753906 L 77.246094 457.578125 L 45.757812 490.050781 L 14.269531 457.578125 L 25.09375 446.753906 L 45.757812 467.417969 Z M 66.421875 446.753906 " fill-opacity="1" fill-rule="nonzero"/></g><g clip-path="url(#f3e081a911)"><path fill="#eff8ff" d="M 66.421875 411.726562 L 77.246094 422.550781 L 45.757812 455.023438 L 14.269531 422.550781 L 25.09375 411.726562 L 45.757812 432.390625 Z M 66.421875 411.726562 " fill-opacity="1" fill-rule="nonzero"/></g><g transform="matrix(1, 0, 0, 1, 668, 425)"><g clip-path="url(#f87b57ac2a)"><g fill="#eff8ff" fill-opacity="1"><g transform="translate(22.363788, 0.191699)"><g><path d="M 50.546875 3.671875 L 50.546875 19.359375 C 50.546875 24.097656 49.535156 27.875 47.515625 30.6875 C 45.492188 33.507812 42.210938 34.921875 37.671875 34.921875 C 32.609375 34.921875 28.992188 32.816406 26.828125 28.609375 C 25.566406 35.796875 21.320312 39.390625 14.09375 39.390625 C 9.84375 39.390625 6.429688 37.921875 3.859375 34.984375 C 1.285156 32.046875 0 28.003906 0 22.859375 L 0 3.671875 Z M 30.75 15.1875 L 30.75 16.109375 C 30.75 18.679688 31.195312 20.597656 32.09375 21.859375 C 33 23.128906 34.472656 23.765625 36.515625 23.765625 C 39.941406 23.765625 41.65625 21.210938 41.65625 16.109375 L 41.65625 15.1875 Z M 8.890625 15.1875 L 8.890625 18.8125 C 8.890625 24.445312 10.765625 27.265625 14.515625 27.265625 C 16.765625 27.265625 18.378906 26.554688 19.359375 25.140625 C 20.335938 23.734375 20.828125 21.625 20.828125 18.8125 L 20.828125 15.1875 Z M 8.890625 15.1875 "/></g></g></g><g fill="#eff8ff" fill-opacity="1"><g transform="translate(22.363788, 40.99866)"><g><path d="M 50.546875 32.59375 L 40.4375 32.59375 L 40.4375 15.1875 L 30.390625 15.1875 L 30.390625 31.859375 L 20.28125 31.859375 L 20.28125 15.1875 L 10.109375 15.1875 L 10.109375 32.59375 L 0 32.59375 L 0 3.671875 L 50.546875 3.671875 Z M 50.546875 32.59375 "/></g></g></g><g fill="#eff8ff" fill-opacity="1"><g transform="translate(22.363788, 76.536268)"><g><path d="M 10.421875 30.578125 C 10.421875 32.328125 10.6875 34.03125 11.21875 35.6875 C 11.75 37.34375 12.257812 38.554688 12.75 39.328125 L 13.546875 40.5 L 3.734375 45.390625 C 3.609375 45.234375 3.441406 45.007812 3.234375 44.71875 C 3.035156 44.4375 2.660156 43.773438 2.109375 42.734375 C 1.554688 41.691406 1.078125 40.578125 0.671875 39.390625 C 0.265625 38.203125 -0.0976562 36.648438 -0.421875 34.734375 C -0.753906 32.816406 -0.921875 30.835938 -0.921875 28.796875 C -0.921875 24.097656 0.226562 19.644531 2.53125 15.4375 C 4.84375 11.226562 8.019531 7.835938 12.0625 5.265625 C 16.113281 2.691406 20.488281 1.40625 25.1875 1.40625 C 28.738281 1.40625 32.144531 2.160156 35.40625 3.671875 C 38.675781 5.179688 41.472656 7.191406 43.796875 9.703125 C 46.128906 12.222656 47.988281 15.15625 49.375 18.5 C 50.769531 21.851562 51.46875 25.285156 51.46875 28.796875 C 51.46875 32.066406 51.078125 35.078125 50.296875 37.828125 C 49.523438 40.585938 48.75 42.539062 47.96875 43.6875 L 46.8125 45.390625 L 37 40.5 C 37.25 40.207031 37.546875 39.773438 37.890625 39.203125 C 38.234375 38.640625 38.691406 37.5 39.265625 35.78125 C 39.835938 34.0625 40.125 32.328125 40.125 30.578125 C 40.125 27.796875 39.675781 25.300781 38.78125 23.09375 C 37.882812 20.882812 36.695312 19.132812 35.21875 17.84375 C 33.75 16.5625 32.164062 15.582031 30.46875 14.90625 C 28.78125 14.238281 27.054688 13.90625 25.296875 13.90625 C 21.460938 13.90625 18.023438 15.34375 14.984375 18.21875 C 11.941406 21.101562 10.421875 25.222656 10.421875 30.578125 Z M 10.421875 30.578125 "/></g></g></g></g></g><g clip-path="url(#ef76616398)"><path fill="#eff8ff" d="M 694.972656 578.292969 C 697.695312 576.21875 701.230469 575.242188 704.953125 575.238281 C 708.980469 575.242188 713.277344 576.390625 717.128906 578.773438 C 720.980469 581.15625 724.378906 584.800781 726.484375 589.71875 C 727.652344 592.445312 728.878906 594.25 730.058594 595.429688 C 730.960938 596.320312 731.824219 596.875 732.707031 597.230469 C 733.300781 596.761719 733.878906 596.269531 734.4375 595.742188 C 743.371094 587.304688 745 574.042969 739.128906 563.835938 C 738.589844 563.460938 738.039062 563.109375 737.476562 562.804688 C 735.667969 561.832031 733.769531 561.257812 731.71875 561.257812 C 729.96875 561.257812 728.074219 561.671875 725.957031 562.726562 C 722.800781 564.300781 719.09375 565.085938 715.398438 565.089844 C 712.246094 565.089844 709.09375 564.515625 706.304688 563.253906 C 703.519531 562 701.066406 560.011719 699.566406 557.21875 C 699.546875 557.1875 699.53125 557.152344 699.515625 557.117188 C 699.226562 557.367188 698.941406 557.621094 698.664062 557.882812 C 691.570312 564.585938 689.082031 574.324219 691.292969 583.160156 C 691.417969 582.839844 691.542969 582.523438 691.695312 582.21875 C 692.480469 580.648438 693.621094 579.328125 694.972656 578.292969 Z M 694.972656 578.292969 " fill-opacity="1" fill-rule="nonzero"/></g><g clip-path="url(#b90534af7a)"><path fill="#eff8ff" d="M 728.832031 599.78125 C 727.667969 598.953125 726.558594 597.871094 725.539062 596.484375 C 724.511719 595.089844 723.5625 593.398438 722.683594 591.347656 C 720.914062 587.230469 718.132812 584.261719 714.953125 582.289062 C 711.777344 580.316406 708.191406 579.371094 704.953125 579.371094 C 702.707031 579.371094 700.636719 579.828125 698.992188 580.644531 C 697.339844 581.46875 696.125 582.613281 695.394531 584.070312 C 694.90625 585.046875 694.621094 586.183594 694.617188 587.558594 C 694.617188 588.894531 694.921875 590.472656 695.589844 592.261719 C 696.214844 593.105469 696.886719 593.921875 697.621094 594.699219 C 705.875 603.433594 718.726562 605.191406 728.832031 599.78125 Z M 728.832031 599.78125 " fill-opacity="1" fill-rule="nonzero"/></g><g clip-path="url(#6cb012d666)"><path fill="#eff8ff" d="M 715.398438 560.957031 C 718.496094 560.960938 721.636719 560.269531 724.109375 559.03125 C 726.730469 557.71875 729.296875 557.121094 731.71875 557.125 C 732.421875 557.125 733.101562 557.1875 733.773438 557.28125 C 725.128906 549.648438 712.542969 548.691406 702.914062 554.621094 C 703.007812 554.835938 703.097656 555.054688 703.207031 555.261719 C 703.871094 556.496094 704.824219 557.523438 706.027344 558.367188 C 708.425781 560.0625 711.867188 560.964844 715.398438 560.957031 Z M 715.398438 560.957031 " fill-opacity="1" fill-rule="nonzero"/></g><g clip-path="url(#e6a5ae3fe4)"><g clip-path="url(#15d7be2fb8)"><g clip-path="url(#92461320ac)"><path fill="#eff8ff" d="M 655.714844 565.800781 C 656.429688 563.160156 658.195312 560.816406 660.558594 559 C 663.113281 557.039062 666.398438 555.675781 670.003906 555.308594 C 673.609375 554.945312 677.539062 555.601562 681.273438 557.695312 C 683.34375 558.855469 685 559.40625 686.324219 559.578125 C 687.332031 559.703125 688.148438 559.632812 688.882812 559.429688 C 689.03125 558.84375 689.15625 558.246094 689.253906 557.640625 C 690.808594 547.933594 685.382812 538.726562 676.6875 535.113281 C 676.160156 535.136719 675.640625 535.183594 675.132812 535.265625 C 673.511719 535.527344 672.027344 536.089844 670.726562 537.085938 C 669.617188 537.941406 668.617188 539.125 667.789062 540.828125 C 666.550781 543.363281 664.582031 545.667969 662.238281 547.472656 C 660.238281 549.007812 657.960938 550.179688 655.574219 550.738281 C 653.195312 551.296875 650.675781 551.234375 648.359375 550.195312 C 648.332031 550.179688 648.304688 550.167969 648.277344 550.152344 C 648.21875 550.453125 648.160156 550.75 648.109375 551.054688 C 646.875 558.761719 650.042969 566.15625 655.753906 570.683594 C 655.675781 570.417969 655.601562 570.15625 655.546875 569.890625 C 655.28125 568.507812 655.359375 567.117188 655.714844 565.800781 Z M 655.714844 565.800781 " fill-opacity="1" fill-rule="nonzero"/></g></g></g><g clip-path="url(#21980191e9)"><g clip-path="url(#e19e05b0a4)"><g clip-path="url(#9d8729e665)"><path fill="#eff8ff" d="M 687.664062 562.933594 C 686.523438 562.980469 685.292969 562.832031 683.972656 562.449219 C 682.640625 562.066406 681.214844 561.453125 679.65625 560.582031 C 676.527344 558.832031 673.316406 558.304688 670.335938 558.601562 C 667.359375 558.898438 664.625 560.042969 662.574219 561.621094 C 661.144531 562.714844 660.054688 564.015625 659.410156 565.335938 C 658.761719 566.660156 658.550781 567.980469 658.796875 569.261719 C 658.960938 570.117188 659.335938 570.980469 660.003906 571.851562 C 660.65625 572.699219 661.617188 573.554688 662.914062 574.363281 C 663.71875 574.59375 664.542969 574.785156 665.390625 574.917969 C 674.878906 576.441406 683.890625 571.292969 687.664062 562.933594 Z M 687.664062 562.933594 " fill-opacity="1" fill-rule="nonzero"/></g></g></g><g clip-path="url(#82e69b3bf0)"><g clip-path="url(#6058acb6b8)"><g clip-path="url(#5a6da16872)"><path fill="#eff8ff" d="M 660.226562 544.851562 C 662.195312 543.34375 663.851562 541.375 664.8125 539.382812 C 665.835938 537.273438 667.175781 535.644531 668.710938 534.464844 C 669.15625 534.125 669.621094 533.832031 670.09375 533.566406 C 660.890625 532.933594 652.4375 538.460938 649.21875 546.914062 C 649.382812 547.003906 649.546875 547.101562 649.714844 547.175781 C 650.738281 547.636719 651.84375 547.824219 653.019531 547.773438 C 655.367188 547.679688 657.988281 546.574219 660.226562 544.851562 Z M 660.226562 544.851562 " fill-opacity="1" fill-rule="nonzero"/></g></g></g><g clip-path="url(#afb7f1e0fa)"><g clip-path="url(#5aed770700)"><g clip-path="url(#9d14d2013d)"><path fill="#eff8ff" d="M 656.988281 525.265625 C 656.753906 523.226562 657.335938 521.105469 658.476562 519.183594 C 659.714844 517.109375 661.625 515.25 664.035156 513.992188 C 666.445312 512.742188 669.367188 512.109375 672.550781 512.53125 C 674.3125 512.765625 675.621094 512.6875 676.589844 512.441406 C 677.328125 512.25 677.875 511.972656 678.332031 511.628906 C 678.273438 511.179688 678.195312 510.730469 678.09375 510.277344 C 676.488281 503.085938 670.152344 498.175781 663.089844 498.070312 C 662.730469 498.234375 662.378906 498.40625 662.050781 498.605469 C 660.992188 499.238281 660.113281 500.042969 659.484375 501.097656 C 658.949219 502 658.582031 503.101562 658.476562 504.519531 C 658.316406 506.628906 657.585938 508.78125 656.453125 510.6875 C 655.484375 512.3125 654.222656 513.757812 652.714844 514.8125 C 651.210938 515.859375 649.4375 516.515625 647.535156 516.433594 C 647.511719 516.433594 647.488281 516.429688 647.46875 516.429688 C 647.507812 516.652344 647.550781 516.875 647.601562 517.101562 C 648.878906 522.816406 653.136719 527.085938 658.371094 528.65625 C 658.242188 528.496094 658.117188 528.332031 658.007812 528.160156 C 657.4375 527.273438 657.105469 526.28125 656.988281 525.265625 Z M 656.988281 525.265625 " fill-opacity="1" fill-rule="nonzero"/></g></g></g><g clip-path="url(#66c46f96e1)"><g clip-path="url(#2f22220ff2)"><g clip-path="url(#56ab1de0c8)"><path fill="#eff8ff" d="M 678.457031 514.410156 C 677.671875 514.757812 676.773438 514.996094 675.746094 515.09375 C 674.714844 515.195312 673.550781 515.167969 672.222656 514.992188 C 669.558594 514.636719 667.171875 515.160156 665.179688 516.195312 C 663.1875 517.226562 661.601562 518.785156 660.609375 520.453125 C 659.917969 521.613281 659.519531 522.816406 659.433594 523.917969 C 659.351562 525.019531 659.570312 526 660.097656 526.824219 C 660.449219 527.375 660.949219 527.871094 661.65625 528.292969 C 662.34375 528.703125 663.25 529.03125 664.378906 529.234375 C 665.003906 529.171875 665.632812 529.078125 666.257812 528.9375 C 673.292969 527.363281 678.144531 521.277344 678.457031 514.410156 Z M 678.457031 514.410156 " fill-opacity="1" fill-rule="nonzero"/></g></g></g><g clip-path="url(#fc82103d96)"><g clip-path="url(#a5d3923bc4)"><g clip-path="url(#b3a41aed15)"><path fill="#eff8ff" d="M 654.320312 509.417969 C 655.273438 507.824219 655.882812 505.992188 656 504.335938 C 656.128906 502.582031 656.609375 501.078125 657.355469 499.828125 C 657.570312 499.46875 657.8125 499.136719 658.066406 498.820312 C 651.476562 500.933594 647.121094 507.125 647.222656 513.910156 C 647.363281 513.925781 647.503906 513.949219 647.644531 513.957031 C 648.484375 513.992188 649.304688 513.816406 650.109375 513.453125 C 651.722656 512.738281 653.242188 511.238281 654.320312 509.417969 Z M 654.320312 509.417969 " fill-opacity="1" fill-rule="nonzero"/></g></g></g><g clip-path="url(#8c8f73175d)"><g clip-path="url(#686ad22b38)"><g clip-path="url(#22515bbec4)"><path fill="#eff8ff" d="M 673.613281 495.253906 C 672.84375 493.851562 672.640625 492.152344 672.898438 490.433594 C 673.179688 488.574219 674.011719 486.675781 675.378906 485.0625 C 676.746094 483.453125 678.667969 482.136719 681.082031 481.507812 C 682.421875 481.160156 683.339844 480.722656 683.96875 480.257812 C 684.441406 479.902344 684.757812 479.542969 684.984375 479.160156 C 684.808594 478.855469 684.621094 478.554688 684.417969 478.257812 C 681.144531 473.546875 675.140625 471.871094 670.023438 473.867188 C 669.808594 474.089844 669.609375 474.320312 669.429688 474.558594 C 668.855469 475.328125 668.457031 476.160156 668.3125 477.109375 C 668.191406 477.917969 668.25 478.820312 668.589844 479.871094 C 669.097656 481.4375 669.199219 483.203125 668.945312 484.90625 C 668.722656 486.359375 668.238281 487.777344 667.464844 488.976562 C 666.6875 490.171875 665.601562 491.164062 664.207031 491.664062 C 664.191406 491.667969 664.175781 491.675781 664.15625 491.679688 C 664.253906 491.832031 664.347656 491.980469 664.453125 492.125 C 667.050781 495.867188 671.371094 497.695312 675.601562 497.289062 C 675.464844 497.210938 675.324219 497.128906 675.195312 497.039062 C 674.523438 496.566406 673.996094 495.949219 673.613281 495.253906 Z M 673.613281 495.253906 " fill-opacity="1" fill-rule="nonzero"/></g></g></g><g clip-path="url(#0ee6a817e5)"><g clip-path="url(#5410dd9fe7)"><g clip-path="url(#3b4088c8c4)"><path fill="#eff8ff" d="M 685.890625 481.128906 C 685.425781 481.609375 684.847656 482.042969 684.140625 482.417969 C 683.425781 482.792969 682.578125 483.113281 681.570312 483.375 C 679.546875 483.90625 677.980469 484.980469 676.847656 486.3125 C 675.71875 487.640625 675.03125 489.226562 674.804688 490.722656 C 674.648438 491.757812 674.714844 492.746094 674.976562 493.5625 C 675.242188 494.382812 675.683594 495.023438 676.308594 495.460938 C 676.722656 495.753906 677.230469 495.964844 677.863281 496.0625 C 678.480469 496.15625 679.230469 496.125 680.101562 495.941406 C 680.535156 495.714844 680.957031 495.460938 681.367188 495.175781 C 685.972656 491.976562 687.679688 486.167969 685.890625 481.128906 Z M 685.890625 481.128906 " fill-opacity="1" fill-rule="nonzero"/></g></g></g><g clip-path="url(#c732ab823c)"><g clip-path="url(#d4536d291a)"><g clip-path="url(#f23ac031e6)"><path fill="#eff8ff" d="M 667.039062 484.621094 C 667.253906 483.1875 667.15625 481.691406 666.753906 480.464844 C 666.332031 479.164062 666.238281 477.9375 666.40625 476.820312 C 666.457031 476.496094 666.53125 476.1875 666.621094 475.882812 C 662.496094 479.339844 661.179688 485.082031 663.242188 489.9375 C 663.347656 489.910156 663.457031 489.882812 663.558594 489.847656 C 664.175781 489.625 664.714844 489.257812 665.1875 488.761719 C 666.140625 487.773438 666.792969 486.246094 667.039062 484.621094 Z M 667.039062 484.621094 " fill-opacity="1" fill-rule="nonzero"/></g></g></g><g transform="matrix(1, 0, 0, 1, 668, 604)"><g clip-path="url(#7f7e8824a1)"><g fill="#eff8ff" fill-opacity="1"><g transform="translate(22.363495, 0.503967)"><g><path d="M 0 45.453125 L 29.953125 43.0625 L 29.953125 42.765625 L 0.3125 32.40625 L 0.3125 25.546875 L 29.953125 15.1875 L 29.953125 14.890625 L 0 12.5 L 0 0.984375 L 50.546875 5.515625 L 50.546875 17.765625 L 21.375 28.984375 L 50.546875 40.1875 L 50.546875 52.4375 L 0 56.984375 Z M 0 45.453125 "/></g></g></g><g fill="#eff8ff" fill-opacity="1"><g transform="translate(22.363495, 58.467024)"><g><path d="M 50.546875 32.59375 L 40.4375 32.59375 L 40.4375 15.1875 L 30.390625 15.1875 L 30.390625 31.859375 L 20.28125 31.859375 L 20.28125 15.1875 L 10.109375 15.1875 L 10.109375 32.59375 L 0 32.59375 L 0 3.671875 L 50.546875 3.671875 Z M 50.546875 32.59375 "/></g></g></g></g></g><path stroke-linecap="butt" transform="matrix(0.75, 0, 0, 0.75, 282.749993, 580.013062)" fill="none" stroke-linejoin="miter" d="M 0.00000946462 1.998209 L 160.000024 1.998209 " stroke="#eff8ff" stroke-width="4" stroke-opacity="1" stroke-miterlimit="4"/><path stroke-linecap="butt" transform="matrix(0.75, 0, 0, 0.75, 294.749992, 592.013061)" fill="none" stroke-linejoin="miter" d="M 0.0000109435 1.99821 L 160.000026 1.99821 " stroke="#eff8ff" stroke-width="4" stroke-opacity="1" stroke-miterlimit="4"/><path stroke-linecap="butt" transform="matrix(0.75, 0, 0, 0.75, 306.749991, 604.01306)" fill="none" stroke-linejoin="miter" d="M 0.0000124223 1.998212 L 160.000027 1.998212 " stroke="#eff8ff" stroke-width="4" stroke-opacity="1" stroke-miterlimit="4"/><path stroke-linecap="butt" transform="matrix(0.75, 0, 0, 0.75, 318.74999, 616.013059)" fill="none" stroke-linejoin="miter" d="M 0.0000139012 1.998213 L 160.000029 1.998213 " stroke="#eff8ff" stroke-width="4" stroke-opacity="1" stroke-miterlimit="4"/><path stroke-linecap="butt" transform="matrix(0.49528, 0.563203, -0.563203, 0.49528, 324.263103, 528.062691)" fill="none" stroke-linejoin="miter" d="M 0.00145688 2.001243 L 159.999488 1.997211 " stroke="#eff8ff" stroke-width="4" stroke-opacity="1" stroke-miterlimit="4"/><path stroke-linecap="butt" transform="matrix(0.49528, 0.563203, -0.563203, 0.49528, 323.176338, 544.998434)" fill="none" stroke-linejoin="miter" d="M 0.0000345612 1.998522 L 159.998538 2.001841 " stroke="#eff8ff" stroke-width="4" stroke-opacity="1" stroke-miterlimit="4"/><path stroke-linecap="butt" transform="matrix(0.49528, 0.563203, -0.563203, 0.49528, 322.08957, 561.934152)" fill="none" stroke-linejoin="miter" d="M 0.00254952 1.99926 L 160.001053 2.002578 " stroke="#eff8ff" stroke-width="4" stroke-opacity="1" stroke-miterlimit="4"/><path stroke-linecap="butt" transform="matrix(0.49528, 0.563203, -0.563203, 0.49528, 321.002802, 578.869846)" fill="none" stroke-linejoin="miter" d="M -0.00226207 2.00049 L 159.999681 1.999897 " stroke="#eff8ff" stroke-width="4" stroke-opacity="1" stroke-miterlimit="4"/><g clip-path="url(#3450aaeee7)"><g clip-path="url(#b0a1723d61)"><g transform="matrix(1, 0, 0, 1, 18, 174)"><g clip-path="url(#5250078b69)"><g clip-path="url(#83c3e823d2)"><g clip-path="url(#a262da01d0)"><path fill="#eff8ff" d="M 0.347656 0.246094 L 55.191406 0.246094 L 55.191406 47.359375 L 0.347656 47.359375 Z M 0.347656 0.246094 " fill-opacity="1" fill-rule="nonzero"/></g></g></g></g></g></g><path stroke-linecap="butt" transform="matrix(-0.75, 0, 0, -0.75, 438.749978, 296.55836)" fill="none" stroke-linejoin="miter" d="M -0.0000286898 1.999688 L 159.999986 1.999688 " stroke="#eff8ff" stroke-width="4" stroke-opacity="1" stroke-miterlimit="4"/><path stroke-linecap="butt" transform="matrix(-0.75, 0, 0, -0.75, 426.74998, 284.558361)" fill="none" stroke-linejoin="miter" d="M -0.0000272109 1.99969 L 159.999988 1.99969 " stroke="#eff8ff" stroke-width="4" stroke-opacity="1" stroke-miterlimit="4"/><path stroke-linecap="butt" transform="matrix(-0.75, 0, 0, -0.75, 414.749981, 272.558362)" fill="none" stroke-linejoin="miter" d="M -0.000025732 1.999691 L 159.999989 1.999691 " stroke="#eff8ff" stroke-width="4" stroke-opacity="1" stroke-miterlimit="4"/><path stroke-linecap="butt" transform="matrix(-0.75, 0, 0, -0.75, 402.749982, 260.558363)" fill="none" stroke-linejoin="miter" d="M -0.0000242532 1.999693 L 159.999991 1.999693 " stroke="#eff8ff" stroke-width="4" stroke-opacity="1" stroke-miterlimit="4"/><path stroke-linecap="butt" transform="matrix(-0.49528, -0.563203, 0.563203, -0.49528, 397.236868, 348.508717)" fill="none" stroke-linejoin="miter" d="M -0.0013828 1.998797 L 160.00056 1.998204 " stroke="#eff8ff" stroke-width="4" stroke-opacity="1" stroke-miterlimit="4"/><path stroke-linecap="butt" transform="matrix(-0.49528, -0.563203, 0.563203, -0.49528, 398.323633, 331.573015)" fill="none" stroke-linejoin="miter" d="M 0.00114686 1.999551 L 159.99965 2.00287 " stroke="#eff8ff" stroke-width="4" stroke-opacity="1" stroke-miterlimit="4"/><path stroke-linecap="butt" transform="matrix(-0.49528, -0.563203, 0.563203, -0.49528, 399.410401, 314.637256)" fill="none" stroke-linejoin="miter" d="M -0.000290161 1.996813 L 159.998213 2.000132 " stroke="#eff8ff" stroke-width="4" stroke-opacity="1" stroke-miterlimit="4"/><path stroke-linecap="butt" transform="matrix(-0.49528, -0.563203, 0.563203, -0.49528, 400.497198, 297.701554)" fill="none" stroke-linejoin="miter" d="M -0.00117247 2.001448 L 160.00077 2.000855 " stroke="#eff8ff" stroke-width="4" stroke-opacity="1" stroke-miterlimit="4"/><path stroke-linecap="butt" transform="matrix(0.75, 0, 0, 0.75, 282.749993, 902.465513)" fill="none" stroke-linejoin="miter" d="M 0.00000946462 1.999108 L 160.000024 1.999108 " stroke="#eff8ff" stroke-width="4" stroke-opacity="1" stroke-miterlimit="4"/><path stroke-linecap="butt" transform="matrix(0.75, 0, 0, 0.75, 294.749992, 914.465511)" fill="none" stroke-linejoin="miter" d="M 0.0000109435 1.99911 L 160.000026 1.99911 " stroke="#eff8ff" stroke-width="4" stroke-opacity="1" stroke-miterlimit="4"/><path stroke-linecap="butt" transform="matrix(0.75, 0, 0, 0.75, 306.749991, 926.46551)" fill="none" stroke-linejoin="miter" d="M 0.0000124223 1.999111 L 160.000027 1.999111 " stroke="#eff8ff" stroke-width="4" stroke-opacity="1" stroke-miterlimit="4"/><path stroke-linecap="butt" transform="matrix(0.75, 0, 0, 0.75, 318.74999, 938.465509)" fill="none" stroke-linejoin="miter" d="M 0.0000139012 1.999113 L 160.000029 1.999113 " stroke="#eff8ff" stroke-width="4" stroke-opacity="1" stroke-miterlimit="4"/><path stroke-linecap="butt" transform="matrix(0.49528, 0.563203, -0.563203, 0.49528, 324.263103, 850.515069)" fill="none" stroke-linejoin="miter" d="M -0.00170652 1.998461 L 160.000236 1.997869 " stroke="#eff8ff" stroke-width="4" stroke-opacity="1" stroke-miterlimit="4"/><path stroke-linecap="butt" transform="matrix(0.49528, 0.563203, -0.563203, 0.49528, 323.176338, 867.450788)" fill="none" stroke-linejoin="miter" d="M 0.000806329 1.999201 L 159.99931 2.00252 " stroke="#eff8ff" stroke-width="4" stroke-opacity="1" stroke-miterlimit="4"/><path stroke-linecap="butt" transform="matrix(0.49528, 0.563203, -0.563203, 0.49528, 322.08957, 884.386602)" fill="none" stroke-linejoin="miter" d="M 0.00322517 1.999854 L 159.997817 1.999733 " stroke="#eff8ff" stroke-width="4" stroke-opacity="1" stroke-miterlimit="4"/><path stroke-linecap="butt" transform="matrix(0.49528, 0.563203, -0.563203, 0.49528, 321.002802, 901.322297)" fill="none" stroke-linejoin="miter" d="M -0.00158642 2.001084 L 160.000356 2.000491 " stroke="#eff8ff" stroke-width="4" stroke-opacity="1" stroke-miterlimit="4"/><g clip-path="url(#13fb593806)"><g clip-path="url(#2e021ad0dd)"><g transform="matrix(1, 0, 0, 1, 624, 64)"><g clip-path="url(#6e93fab041)"><g clip-path="url(#a9e0d7a49b)"><g clip-path="url(#e99d7fb31f)"><path fill="#eff8ff" d="M 0.015625 0.472656 L 64.292969 0.472656 L 64.292969 55.6875 L 0.015625 55.6875 Z M 0.015625 0.472656 " fill-opacity="1" fill-rule="nonzero"/></g></g></g></g></g></g><g clip-path="url(#9c3b910b14)"><g clip-path="url(#5bf73fd0c8)"><g transform="matrix(1, 0, 0, 1, 624, 124)"><g clip-path="url(#205e47d45d)"><g clip-path="url(#fa30ef6495)"><g clip-path="url(#31780eaf85)"><path fill="#eff8ff" d="M 0.015625 0.882812 L 64.292969 0.882812 L 64.292969 56.101562 L 0.015625 56.101562 Z M 0.015625 0.882812 " fill-opacity="1" fill-rule="nonzero"/></g></g></g></g></g></g></svg>