<?xml version="1.0" encoding="utf-8"?>
<svg xmlns="http://www.w3.org/2000/svg" viewBox="0 0 900 900" xmlns:bx="https://boxy-svg.com">
  <g id="SVGRepo_bgCarrier" stroke-width="0" transform="matrix(3.688317, 0, 0, 3.688317, 290.88089, 41.839077)" style=""/>
  <g id="SVGRepo_tracerCarrier" stroke-linecap="round" stroke-linejoin="round" transform="matrix(3.688317, 0, 0, 3.688317, 290.88089, 41.839077)" style=""/>
  <g id="SVGRepo_iconCarrier" transform="matrix(3.688317, 0, 0, 3.688317, 60.560066, 165.17894)" style="">
    <title>honeycomb</title>
    <path d="M 17.299 14.203 L 15.109 10.444 L 17.299 6.685 L 21.679 6.685 L 23.869 10.444 L 21.679 14.203 L 17.299 14.203 Z M 24.155 26.161 L 21.965 22.402 L 24.155 18.643 L 28.535 18.643 L 30.725 22.402 L 28.535 26.161 L 24.155 26.161 Z M 17.247 22.143 L 15.057 18.384 L 17.247 14.625 L 21.627 14.625 L 23.817 18.384 L 21.627 22.143 L 17.247 22.143 Z M 24.312 10.129 L 22.122 6.37 L 24.312 2.611 L 28.692 2.611 L 30.882 6.37 L 28.692 10.129 L 24.312 10.129 Z" style="fill: rgb(86, 86, 86); fill-opacity: 0.2;"/>
  </g>
  <text style="fill: rgb(86, 86, 86); fill-opacity: 0.2; font-family: Audiowide; font-size: 23.8px; white-space: pre;" x="147.347" y="226.778">BELONG</text>
  <defs>
    <style bx:fonts="Audiowide">@import url(https://fonts.googleapis.com/css2?family=Audiowide%3Aital%2Cwght%400%2C400&amp;display=swap);</style>
    <bx:guide x="50.568" y="211.118" angle="0"/>
    <bx:guide x="153.721" y="-46.389" angle="90"/>
    <bx:guide x="152.202" y="-132.462" angle="90"/>
    <bx:guide x="384.972" y="153.089" angle="90"/>
    <bx:guide x="684.151" y="447.642" angle="90"/>
    <bx:guide x="765.886" y="743.738" angle="90"/>
    <bx:guide x="159.817" y="210.149" angle="0"/>
    <bx:guide x="462.081" y="304.221" angle="0"/>
    <bx:guide x="684.579" y="291.884" angle="0"/>
    <bx:grid x="-0.876" y="0" width="100" height="100"/>
    <bx:guide x="338.1" y="312.934" angle="0"/>
  </defs>
  <text style="fill: rgb(86, 86, 86); fill-opacity: 0.2; font-family: Audiowide; font-size: 23.8px; white-space: pre;" x="134.507" y="520.799">BELIEVE</text>
  <text style="fill: rgb(86, 86, 86); fill-opacity: 0.2; font-family: Audiowide; font-size: 23.8px; white-space: pre;" x="438.602" y="225.905">BEC</text>
  <g id="group-1" stroke-width="0" transform="matrix(1.475312, 0, 0, 1.475312, 44.374828, 153.167542)" style=""/>
  <g id="group-2" stroke-linecap="round" stroke-linejoin="round" transform="matrix(1.475312, 0, 0, 1.475312, 44.374828, 153.167542)" style=""/>
  <g id="group-3" transform="matrix(-0.497357, -1.171701, 1.171701, -0.497357, 457.983063, 178.870224)" style="transform-origin: 12.0017px 12.0017px;">
    <path d="M20.6881 16.5079C20.5832 16.4493 20.435 16.3627 20.2514 16.246C19.8844 16.0126 19.3751 15.6581 18.787 15.1643C17.6106 14.1765 16.1165 12.6292 14.816 10.3767C13.5156 8.12426 12.9226 6.05661 12.6553 4.54398C12.5217 3.78771 12.4694 3.16946 12.4508 2.73491C12.4415 2.51757 12.4406 2.34597 12.4422 2.22577C12.4431 2.16566 12.4495 2.04426 12.4508 2.01052C10.6072 1.9259 8.71856 2.35017 7.00167 3.34142C5.28578 4.33209 3.97456 5.75449 3.126 7.39219L3.31486 7.49547C3.41977 7.55415 3.56795 7.64072 3.75151 7.75744C4.11855 7.99083 4.6278 8.34528 5.21594 8.83912C6.39229 9.82688 7.88643 11.3743 9.18688 13.6267C10.4873 15.8792 11.0803 17.9468 11.3476 19.4594C11.4812 20.2157 11.5335 20.834 11.5521 21.2685C11.5614 21.4858 11.5623 21.6575 11.5607 21.7777V21.9932C13.4017 22.0762 15.2873 21.6517 17.0017 20.6619C18.7158 19.6723 20.0261 18.2518 20.8747 16.6162L20.6881 16.5079Z" style="fill: rgb(86, 86, 86); fill-opacity: 0.2;"/>
    <path d="M10.0598 21.8114C10.0611 21.7179 10.0615 21.5204 10.0535 21.3327C10.0374 20.9572 9.99142 20.4051 9.87046 19.7204C9.62854 18.3512 9.08739 16.4544 7.88784 14.3767C6.6883 12.299 5.31623 10.882 4.25137 9.98786C3.7189 9.54076 3.26381 9.2249 2.94663 9.02321C2.7881 8.9224 2.61686 8.82409 2.53523 8.77843C1.63973 11.4119 1.84135 14.4035 3.34142 17.0017C4.84147 19.5998 7.33139 21.2702 10.0598 21.8114Z" style="fill: rgb(86, 86, 86); fill-opacity: 0.2;"/>
    <path d="M13.9431 2.19181C13.9419 2.28533 13.9414 2.48305 13.9494 2.67075C13.9655 3.04627 14.0115 3.59833 14.1325 4.28301C14.3744 5.65227 14.9155 7.54903 16.1151 9.62671C17.3146 11.7044 18.6867 13.1214 19.7516 14.0156C20.284 14.4627 20.7391 14.7785 21.0563 14.9802C21.2148 15.081 21.3864 15.1795 21.468 15.2252C22.3636 12.5916 22.162 9.59995 20.6619 7.00167C19.1618 4.40337 16.6717 2.73296 13.9431 2.19181Z" style="fill: rgb(86, 86, 86); fill-opacity: 0.2;"/>
  </g>
  <g id="group-4" stroke-width="0" transform="matrix(1.132782, 0, 0, 1.132782, 78.582916, 162.74321)" style=""/>
  <g id="group-5" stroke-linecap="round" stroke-linejoin="round" transform="matrix(1.132782, 0, 0, 1.132782, 78.582916, 162.74321)" style=""/>
  <g id="group-6" transform="matrix(0.694248, -0.857325, 0.857325, 0.694248, 482.481323, 169.569992)" style="transform-origin: 12.0017px 12.0017px;">
    <path d="M20.6881 16.5079C20.5832 16.4493 20.435 16.3627 20.2514 16.246C19.8844 16.0126 19.3751 15.6581 18.787 15.1643C17.6106 14.1765 16.1165 12.6292 14.816 10.3767C13.5156 8.12426 12.9226 6.05661 12.6553 4.54398C12.5217 3.78771 12.4694 3.16946 12.4508 2.73491C12.4415 2.51757 12.4406 2.34597 12.4422 2.22577C12.4431 2.16566 12.4495 2.04426 12.4508 2.01052C10.6072 1.9259 8.71856 2.35017 7.00167 3.34142C5.28578 4.33209 3.97456 5.75449 3.126 7.39219L3.31486 7.49547C3.41977 7.55415 3.56795 7.64072 3.75151 7.75744C4.11855 7.99083 4.6278 8.34528 5.21594 8.83912C6.39229 9.82688 7.88643 11.3743 9.18688 13.6267C10.4873 15.8792 11.0803 17.9468 11.3476 19.4594C11.4812 20.2157 11.5335 20.834 11.5521 21.2685C11.5614 21.4858 11.5623 21.6575 11.5607 21.7777V21.9932C13.4017 22.0762 15.2873 21.6517 17.0017 20.6619C18.7158 19.6723 20.0261 18.2518 20.8747 16.6162L20.6881 16.5079Z" style="fill: rgb(86, 86, 86); fill-opacity: 0.2;"/>
    <path d="M10.0598 21.8114C10.0611 21.7179 10.0615 21.5204 10.0535 21.3327C10.0374 20.9572 9.99142 20.4051 9.87046 19.7204C9.62854 18.3512 9.08739 16.4544 7.88784 14.3767C6.6883 12.299 5.31623 10.882 4.25137 9.98786C3.7189 9.54076 3.26381 9.2249 2.94663 9.02321C2.7881 8.9224 2.61686 8.82409 2.53523 8.77843C1.63973 11.4119 1.84135 14.4035 3.34142 17.0017C4.84147 19.5998 7.33139 21.2702 10.0598 21.8114Z" style="fill: rgb(86, 86, 86); fill-opacity: 0.2;"/>
    <path d="M13.9431 2.19181C13.9419 2.28533 13.9414 2.48305 13.9494 2.67075C13.9655 3.04627 14.0115 3.59833 14.1325 4.28301C14.3744 5.65227 14.9155 7.54903 16.1151 9.62671C17.3146 11.7044 18.6867 13.1214 19.7516 14.0156C20.284 14.4627 20.7391 14.7785 21.0563 14.9802C21.2148 15.081 21.3864 15.1795 21.468 15.2252C22.3636 12.5916 22.162 9.59995 20.6619 7.00167C19.1618 4.40337 16.6717 2.73296 13.9431 2.19181Z" style="fill: rgb(86, 86, 86); fill-opacity: 0.2;"/>
  </g>
  <g id="group-7" stroke-width="0" transform="matrix(0.798606, 0, 0, 0.798606, 100.825645, 183.147675)" style=""/>
  <g id="group-8" stroke-linecap="round" stroke-linejoin="round" transform="matrix(0.798606, 0, 0, 0.798606, 100.825645, 183.147675)" style=""/>
  <g id="group-9" transform="matrix(0.905724, 0.225822, -0.225822, 0.905724, 499.011902, 185.193314)" style="transform-origin: 12.0017px 12.0017px;">
    <path d="M20.6881 16.5079C20.5832 16.4493 20.435 16.3627 20.2514 16.246C19.8844 16.0126 19.3751 15.6581 18.787 15.1643C17.6106 14.1765 16.1165 12.6292 14.816 10.3767C13.5156 8.12426 12.9226 6.05661 12.6553 4.54398C12.5217 3.78771 12.4694 3.16946 12.4508 2.73491C12.4415 2.51757 12.4406 2.34597 12.4422 2.22577C12.4431 2.16566 12.4495 2.04426 12.4508 2.01052C10.6072 1.9259 8.71856 2.35017 7.00167 3.34142C5.28578 4.33209 3.97456 5.75449 3.126 7.39219L3.31486 7.49547C3.41977 7.55415 3.56795 7.64072 3.75151 7.75744C4.11855 7.99083 4.6278 8.34528 5.21594 8.83912C6.39229 9.82688 7.88643 11.3743 9.18688 13.6267C10.4873 15.8792 11.0803 17.9468 11.3476 19.4594C11.4812 20.2157 11.5335 20.834 11.5521 21.2685C11.5614 21.4858 11.5623 21.6575 11.5607 21.7777V21.9932C13.4017 22.0762 15.2873 21.6517 17.0017 20.6619C18.7158 19.6723 20.0261 18.2518 20.8747 16.6162L20.6881 16.5079Z" style="fill: rgb(86, 86, 86); fill-opacity: 0.2;"/>
    <path d="M10.0598 21.8114C10.0611 21.7179 10.0615 21.5204 10.0535 21.3327C10.0374 20.9572 9.99142 20.4051 9.87046 19.7204C9.62854 18.3512 9.08739 16.4544 7.88784 14.3767C6.6883 12.299 5.31623 10.882 4.25137 9.98786C3.7189 9.54076 3.26381 9.2249 2.94663 9.02321C2.7881 8.9224 2.61686 8.82409 2.53523 8.77843C1.63973 11.4119 1.84135 14.4035 3.34142 17.0017C4.84147 19.5998 7.33139 21.2702 10.0598 21.8114Z" style="fill: rgb(86, 86, 86); fill-opacity: 0.2;"/>
    <path d="M13.9431 2.19181C13.9419 2.28533 13.9414 2.48305 13.9494 2.67075C13.9655 3.04627 14.0115 3.59833 14.1325 4.28301C14.3744 5.65227 14.9155 7.54903 16.1151 9.62671C17.3146 11.7044 18.6867 13.1214 19.7516 14.0156C20.284 14.4627 20.7391 14.7785 21.0563 14.9802C21.2148 15.081 21.3864 15.1795 21.468 15.2252C22.3636 12.5916 22.162 9.59995 20.6619 7.00167C19.1618 4.40337 16.6717 2.73296 13.9431 2.19181Z" style="fill: rgb(86, 86, 86); fill-opacity: 0.2;"/>
  </g>
  <g id="group-10" stroke-width="0" transform="matrix(0.573038, 0, 0, 0.573038, 99.020714, 223.438477)" style=""/>
  <g id="group-11" stroke-linecap="round" stroke-linejoin="round" transform="matrix(0.573038, 0, 0, 0.573038, 99.020714, 223.438477)" style=""/>
  <g id="group-12" transform="matrix(0.054755, 0.783036, -0.783036, 0.054755, 491.914734, 205.200058)" style="transform-origin: 12.0017px 12.0017px;">
    <path d="M20.6881 16.5079C20.5832 16.4493 20.435 16.3627 20.2514 16.246C19.8844 16.0126 19.3751 15.6581 18.787 15.1643C17.6106 14.1765 16.1165 12.6292 14.816 10.3767C13.5156 8.12426 12.9226 6.05661 12.6553 4.54398C12.5217 3.78771 12.4694 3.16946 12.4508 2.73491C12.4415 2.51757 12.4406 2.34597 12.4422 2.22577C12.4431 2.16566 12.4495 2.04426 12.4508 2.01052C10.6072 1.9259 8.71856 2.35017 7.00167 3.34142C5.28578 4.33209 3.97456 5.75449 3.126 7.39219L3.31486 7.49547C3.41977 7.55415 3.56795 7.64072 3.75151 7.75744C4.11855 7.99083 4.6278 8.34528 5.21594 8.83912C6.39229 9.82688 7.88643 11.3743 9.18688 13.6267C10.4873 15.8792 11.0803 17.9468 11.3476 19.4594C11.4812 20.2157 11.5335 20.834 11.5521 21.2685C11.5614 21.4858 11.5623 21.6575 11.5607 21.7777V21.9932C13.4017 22.0762 15.2873 21.6517 17.0017 20.6619C18.7158 19.6723 20.0261 18.2518 20.8747 16.6162L20.6881 16.5079Z" style="fill: rgb(86, 86, 86); fill-opacity: 0.2;"/>
    <path d="M10.0598 21.8114C10.0611 21.7179 10.0615 21.5204 10.0535 21.3327C10.0374 20.9572 9.99142 20.4051 9.87046 19.7204C9.62854 18.3512 9.08739 16.4544 7.88784 14.3767C6.6883 12.299 5.31623 10.882 4.25137 9.98786C3.7189 9.54076 3.26381 9.2249 2.94663 9.02321C2.7881 8.9224 2.61686 8.82409 2.53523 8.77843C1.63973 11.4119 1.84135 14.4035 3.34142 17.0017C4.84147 19.5998 7.33139 21.2702 10.0598 21.8114Z" style="fill: rgb(86, 86, 86); fill-opacity: 0.2;"/>
    <path d="M13.9431 2.19181C13.9419 2.28533 13.9414 2.48305 13.9494 2.67075C13.9655 3.04627 14.0115 3.59833 14.1325 4.28301C14.3744 5.65227 14.9155 7.54903 16.1151 9.62671C17.3146 11.7044 18.6867 13.1214 19.7516 14.0156C20.284 14.4627 20.7391 14.7785 21.0563 14.9802C21.2148 15.081 21.3864 15.1795 21.468 15.2252C22.3636 12.5916 22.162 9.59995 20.6619 7.00167C19.1618 4.40337 16.6717 2.73296 13.9431 2.19181Z" style="fill: rgb(86, 86, 86); fill-opacity: 0.2;"/>
  </g>
  <g id="group-13" stroke-width="0" transform="matrix(0.397597, 0, 0, 0.397597, 74.521942, 234.7854)" style=""/>
  <g id="group-14" stroke-linecap="round" stroke-linejoin="round" transform="matrix(0.397597, 0, 0, 0.397597, 74.521942, 234.7854)" style=""/>
  <text style="fill: rgb(86, 86, 86); fill-opacity: 0.2; font-family: Audiowide; font-size: 23.8px; white-space: pre;" x="513.604" y="225.92">ME</text>
  <rect x="186.478" y="527.078" width="11.987" height="14.588" style="fill: rgb(86, 86, 86); fill-opacity: 0.2;"/>
  <rect x="167.984" y="491.715" width="7.523" height="7.523" style="fill: rgb(86, 86, 86); stroke-width: 1; fill-opacity: 0.2;"/>
  <rect x="209.034" y="489.997" width="9.927" height="9.927" style="fill: rgb(86, 86, 86); stroke-width: 1; fill-opacity: 0.2;"/>
  <rect x="224.97" y="481.84" width="14.993" height="14.993" style="fill: rgb(86, 86, 86); stroke-width: 1; fill-opacity: 0.2;"/>
  <rect x="170.468" y="526.476" width="6.837" height="6.837" style="fill: rgb(86, 86, 86); stroke-width: 1; fill-opacity: 0.2;"/>
  <rect x="185.637" y="485.533" width="11.846" height="13.704" style="fill: rgb(86, 86, 86); stroke-width: 1; fill-opacity: 0.2;"/>
  <rect x="148.99" y="525.988" width="13.647" height="14.39" style="fill: rgb(86, 86, 86); stroke-width: 1; fill-opacity: 0.2;"/>
  <rect x="208.158" y="525.989" width="6.381" height="7.867" style="fill: rgb(86, 86, 86); stroke-width: 1; fill-opacity: 0.2;"/>
  <rect x="222.55" y="526.445" width="19.197" height="19.197" style="fill: rgb(86, 86, 86); stroke-width: 1; fill-opacity: 0.2;"/>
  <rect x="144.044" y="488.393" width="15.388" height="11.3" style="fill: rgb(86, 86, 86); stroke-width: 1; fill-opacity: 0.2;"/>
  <g id="group-19" transform="matrix(3.688317, 0, 0, 3.688317, 658.266052, 754.090454)" style="">
    <title>honeycomb</title>
    <path d="M 17.299 14.203 L 15.109 10.444 L 17.299 6.685 L 21.679 6.685 L 23.869 10.444 L 21.679 14.203 L 17.299 14.203 Z M 24.155 26.161 L 21.965 22.402 L 24.155 18.643 L 28.535 18.643 L 30.725 22.402 L 28.535 26.161 L 24.155 26.161 Z M 17.247 22.143 L 15.057 18.384 L 17.247 14.625 L 21.627 14.625 L 23.817 18.384 L 21.627 22.143 L 17.247 22.143 Z M 24.312 10.129 L 22.122 6.37 L 24.312 2.611 L 28.692 2.611 L 30.882 6.37 L 28.692 10.129 L 24.312 10.129 Z" style="fill: rgb(86, 86, 86); fill-opacity: 0.2;"/>
  </g>
  <text style="fill: rgb(86, 86, 86); fill-opacity: 0.2; font-family: Audiowide; font-size: 23.8px; white-space: pre;" x="745.053" y="815.689">BELONG</text>
  <g id="group-20" transform="matrix(3.688317, 0, 0, 3.688317, 363.516083, 460.827393)" style="">
    <title>honeycomb</title>
    <path d="M 17.299 14.203 L 15.109 10.444 L 17.299 6.685 L 21.679 6.685 L 23.869 10.444 L 21.679 14.203 L 17.299 14.203 Z M 24.155 26.161 L 21.965 22.402 L 24.155 18.643 L 28.535 18.643 L 30.725 22.402 L 28.535 26.161 L 24.155 26.161 Z M 17.247 22.143 L 15.057 18.384 L 17.247 14.625 L 21.627 14.625 L 23.817 18.384 L 21.627 22.143 L 17.247 22.143 Z M 24.312 10.129 L 22.122 6.37 L 24.312 2.611 L 28.692 2.611 L 30.882 6.37 L 28.692 10.129 L 24.312 10.129 Z" style="fill: rgb(86, 86, 86); fill-opacity: 0.2;"/>
  </g>
  <text style="fill: rgb(86, 86, 86); fill-opacity: 0.2; font-family: Audiowide; font-size: 23.8px; white-space: pre;" x="450.303" y="522.425">BELONG</text>
  <text style="fill: rgb(86, 86, 86); fill-opacity: 0.2; font-family: Audiowide; font-size: 23.8px; white-space: pre;" x="731.03" y="219.246">BELIEVE</text>
  <rect x="783.001" y="225.525" width="11.987" height="14.588" style="fill: rgb(86, 86, 86); stroke-width: 1; fill-opacity: 0.2;"/>
  <rect x="764.507" y="190.162" width="7.523" height="7.523" style="fill: rgb(86, 86, 86); stroke-width: 1; fill-opacity: 0.2;"/>
  <rect x="805.557" y="188.444" width="9.927" height="9.927" style="fill: rgb(86, 86, 86); stroke-width: 1; fill-opacity: 0.2;"/>
  <rect x="821.493" y="180.287" width="14.993" height="14.993" style="fill: rgb(86, 86, 86); stroke-width: 1; fill-opacity: 0.2;"/>
  <rect x="766.991" y="224.923" width="6.837" height="6.837" style="fill: rgb(86, 86, 86); stroke-width: 1; fill-opacity: 0.2;"/>
  <rect x="782.16" y="183.98" width="11.846" height="13.704" style="fill: rgb(86, 86, 86); stroke-width: 1; fill-opacity: 0.2;"/>
  <rect x="745.513" y="224.435" width="13.647" height="14.39" style="fill: rgb(86, 86, 86); stroke-width: 1; fill-opacity: 0.2;"/>
  <rect x="804.681" y="224.436" width="6.381" height="7.867" style="fill: rgb(86, 86, 86); stroke-width: 1; fill-opacity: 0.2;"/>
  <rect x="819.073" y="224.892" width="19.197" height="19.197" style="fill: rgb(86, 86, 86); stroke-width: 1; fill-opacity: 0.2;"/>
  <rect x="740.567" y="186.84" width="15.388" height="11.3" style="fill: rgb(86, 86, 86); stroke-width: 1; fill-opacity: 0.2;"/>
  <text style="fill: rgb(86, 86, 86); fill-opacity: 0.2; font-family: Audiowide; font-size: 23.8px; white-space: pre;" x="734.438" y="517.458">BEC</text>
  <g id="group-21" transform="matrix(-0.497357, -1.171701, 1.171701, -0.497357, 753.819092, 470.424042)" style="transform-origin: 12.0017px 12.0017px;">
    <path d="M20.6881 16.5079C20.5832 16.4493 20.435 16.3627 20.2514 16.246C19.8844 16.0126 19.3751 15.6581 18.787 15.1643C17.6106 14.1765 16.1165 12.6292 14.816 10.3767C13.5156 8.12426 12.9226 6.05661 12.6553 4.54398C12.5217 3.78771 12.4694 3.16946 12.4508 2.73491C12.4415 2.51757 12.4406 2.34597 12.4422 2.22577C12.4431 2.16566 12.4495 2.04426 12.4508 2.01052C10.6072 1.9259 8.71856 2.35017 7.00167 3.34142C5.28578 4.33209 3.97456 5.75449 3.126 7.39219L3.31486 7.49547C3.41977 7.55415 3.56795 7.64072 3.75151 7.75744C4.11855 7.99083 4.6278 8.34528 5.21594 8.83912C6.39229 9.82688 7.88643 11.3743 9.18688 13.6267C10.4873 15.8792 11.0803 17.9468 11.3476 19.4594C11.4812 20.2157 11.5335 20.834 11.5521 21.2685C11.5614 21.4858 11.5623 21.6575 11.5607 21.7777V21.9932C13.4017 22.0762 15.2873 21.6517 17.0017 20.6619C18.7158 19.6723 20.0261 18.2518 20.8747 16.6162L20.6881 16.5079Z" style="fill: rgb(86, 86, 86); fill-opacity: 0.2;"/>
    <path d="M10.0598 21.8114C10.0611 21.7179 10.0615 21.5204 10.0535 21.3327C10.0374 20.9572 9.99142 20.4051 9.87046 19.7204C9.62854 18.3512 9.08739 16.4544 7.88784 14.3767C6.6883 12.299 5.31623 10.882 4.25137 9.98786C3.7189 9.54076 3.26381 9.2249 2.94663 9.02321C2.7881 8.9224 2.61686 8.82409 2.53523 8.77843C1.63973 11.4119 1.84135 14.4035 3.34142 17.0017C4.84147 19.5998 7.33139 21.2702 10.0598 21.8114Z" style="fill: rgb(86, 86, 86); fill-opacity: 0.2;"/>
    <path d="M13.9431 2.19181C13.9419 2.28533 13.9414 2.48305 13.9494 2.67075C13.9655 3.04627 14.0115 3.59833 14.1325 4.28301C14.3744 5.65227 14.9155 7.54903 16.1151 9.62671C17.3146 11.7044 18.6867 13.1214 19.7516 14.0156C20.284 14.4627 20.7391 14.7785 21.0563 14.9802C21.2148 15.081 21.3864 15.1795 21.468 15.2252C22.3636 12.5916 22.162 9.59995 20.6619 7.00167C19.1618 4.40337 16.6717 2.73296 13.9431 2.19181Z" style="fill: rgb(86, 86, 86); fill-opacity: 0.2;"/>
  </g>
  <g id="group-22" transform="matrix(0.694248, -0.857325, 0.857325, 0.694248, 778.317444, 461.12384)" style="transform-origin: 12.0017px 12.0017px;">
    <path d="M20.6881 16.5079C20.5832 16.4493 20.435 16.3627 20.2514 16.246C19.8844 16.0126 19.3751 15.6581 18.787 15.1643C17.6106 14.1765 16.1165 12.6292 14.816 10.3767C13.5156 8.12426 12.9226 6.05661 12.6553 4.54398C12.5217 3.78771 12.4694 3.16946 12.4508 2.73491C12.4415 2.51757 12.4406 2.34597 12.4422 2.22577C12.4431 2.16566 12.4495 2.04426 12.4508 2.01052C10.6072 1.9259 8.71856 2.35017 7.00167 3.34142C5.28578 4.33209 3.97456 5.75449 3.126 7.39219L3.31486 7.49547C3.41977 7.55415 3.56795 7.64072 3.75151 7.75744C4.11855 7.99083 4.6278 8.34528 5.21594 8.83912C6.39229 9.82688 7.88643 11.3743 9.18688 13.6267C10.4873 15.8792 11.0803 17.9468 11.3476 19.4594C11.4812 20.2157 11.5335 20.834 11.5521 21.2685C11.5614 21.4858 11.5623 21.6575 11.5607 21.7777V21.9932C13.4017 22.0762 15.2873 21.6517 17.0017 20.6619C18.7158 19.6723 20.0261 18.2518 20.8747 16.6162L20.6881 16.5079Z" style="fill: rgb(86, 86, 86); fill-opacity: 0.2;"/>
    <path d="M10.0598 21.8114C10.0611 21.7179 10.0615 21.5204 10.0535 21.3327C10.0374 20.9572 9.99142 20.4051 9.87046 19.7204C9.62854 18.3512 9.08739 16.4544 7.88784 14.3767C6.6883 12.299 5.31623 10.882 4.25137 9.98786C3.7189 9.54076 3.26381 9.2249 2.94663 9.02321C2.7881 8.9224 2.61686 8.82409 2.53523 8.77843C1.63973 11.4119 1.84135 14.4035 3.34142 17.0017C4.84147 19.5998 7.33139 21.2702 10.0598 21.8114Z" style="fill: rgb(86, 86, 86); fill-opacity: 0.2;"/>
    <path d="M13.9431 2.19181C13.9419 2.28533 13.9414 2.48305 13.9494 2.67075C13.9655 3.04627 14.0115 3.59833 14.1325 4.28301C14.3744 5.65227 14.9155 7.54903 16.1151 9.62671C17.3146 11.7044 18.6867 13.1214 19.7516 14.0156C20.284 14.4627 20.7391 14.7785 21.0563 14.9802C21.2148 15.081 21.3864 15.1795 21.468 15.2252C22.3636 12.5916 22.162 9.59995 20.6619 7.00167C19.1618 4.40337 16.6717 2.73296 13.9431 2.19181Z" style="fill: rgb(86, 86, 86); fill-opacity: 0.2;"/>
  </g>
  <g id="group-23" transform="matrix(0.905724, 0.225822, -0.225822, 0.905724, 794.847961, 476.747253)" style="transform-origin: 12.0017px 12.0017px;">
    <path d="M20.6881 16.5079C20.5832 16.4493 20.435 16.3627 20.2514 16.246C19.8844 16.0126 19.3751 15.6581 18.787 15.1643C17.6106 14.1765 16.1165 12.6292 14.816 10.3767C13.5156 8.12426 12.9226 6.05661 12.6553 4.54398C12.5217 3.78771 12.4694 3.16946 12.4508 2.73491C12.4415 2.51757 12.4406 2.34597 12.4422 2.22577C12.4431 2.16566 12.4495 2.04426 12.4508 2.01052C10.6072 1.9259 8.71856 2.35017 7.00167 3.34142C5.28578 4.33209 3.97456 5.75449 3.126 7.39219L3.31486 7.49547C3.41977 7.55415 3.56795 7.64072 3.75151 7.75744C4.11855 7.99083 4.6278 8.34528 5.21594 8.83912C6.39229 9.82688 7.88643 11.3743 9.18688 13.6267C10.4873 15.8792 11.0803 17.9468 11.3476 19.4594C11.4812 20.2157 11.5335 20.834 11.5521 21.2685C11.5614 21.4858 11.5623 21.6575 11.5607 21.7777V21.9932C13.4017 22.0762 15.2873 21.6517 17.0017 20.6619C18.7158 19.6723 20.0261 18.2518 20.8747 16.6162L20.6881 16.5079Z" style="fill: rgb(86, 86, 86); fill-opacity: 0.2;"/>
    <path d="M10.0598 21.8114C10.0611 21.7179 10.0615 21.5204 10.0535 21.3327C10.0374 20.9572 9.99142 20.4051 9.87046 19.7204C9.62854 18.3512 9.08739 16.4544 7.88784 14.3767C6.6883 12.299 5.31623 10.882 4.25137 9.98786C3.7189 9.54076 3.26381 9.2249 2.94663 9.02321C2.7881 8.9224 2.61686 8.82409 2.53523 8.77843C1.63973 11.4119 1.84135 14.4035 3.34142 17.0017C4.84147 19.5998 7.33139 21.2702 10.0598 21.8114Z" style="fill: rgb(86, 86, 86); fill-opacity: 0.2;"/>
    <path d="M13.9431 2.19181C13.9419 2.28533 13.9414 2.48305 13.9494 2.67075C13.9655 3.04627 14.0115 3.59833 14.1325 4.28301C14.3744 5.65227 14.9155 7.54903 16.1151 9.62671C17.3146 11.7044 18.6867 13.1214 19.7516 14.0156C20.284 14.4627 20.7391 14.7785 21.0563 14.9802C21.2148 15.081 21.3864 15.1795 21.468 15.2252C22.3636 12.5916 22.162 9.59995 20.6619 7.00167C19.1618 4.40337 16.6717 2.73296 13.9431 2.19181Z" style="fill: rgb(86, 86, 86); fill-opacity: 0.2;"/>
  </g>
  <g id="group-24" transform="matrix(0.054755, 0.783036, -0.783036, 0.054755, 787.750732, 496.753967)" style="transform-origin: 12.0017px 12.0017px;">
    <path d="M20.6881 16.5079C20.5832 16.4493 20.435 16.3627 20.2514 16.246C19.8844 16.0126 19.3751 15.6581 18.787 15.1643C17.6106 14.1765 16.1165 12.6292 14.816 10.3767C13.5156 8.12426 12.9226 6.05661 12.6553 4.54398C12.5217 3.78771 12.4694 3.16946 12.4508 2.73491C12.4415 2.51757 12.4406 2.34597 12.4422 2.22577C12.4431 2.16566 12.4495 2.04426 12.4508 2.01052C10.6072 1.9259 8.71856 2.35017 7.00167 3.34142C5.28578 4.33209 3.97456 5.75449 3.126 7.39219L3.31486 7.49547C3.41977 7.55415 3.56795 7.64072 3.75151 7.75744C4.11855 7.99083 4.6278 8.34528 5.21594 8.83912C6.39229 9.82688 7.88643 11.3743 9.18688 13.6267C10.4873 15.8792 11.0803 17.9468 11.3476 19.4594C11.4812 20.2157 11.5335 20.834 11.5521 21.2685C11.5614 21.4858 11.5623 21.6575 11.5607 21.7777V21.9932C13.4017 22.0762 15.2873 21.6517 17.0017 20.6619C18.7158 19.6723 20.0261 18.2518 20.8747 16.6162L20.6881 16.5079Z" style="fill: rgb(86, 86, 86); fill-opacity: 0.2;"/>
    <path d="M10.0598 21.8114C10.0611 21.7179 10.0615 21.5204 10.0535 21.3327C10.0374 20.9572 9.99142 20.4051 9.87046 19.7204C9.62854 18.3512 9.08739 16.4544 7.88784 14.3767C6.6883 12.299 5.31623 10.882 4.25137 9.98786C3.7189 9.54076 3.26381 9.2249 2.94663 9.02321C2.7881 8.9224 2.61686 8.82409 2.53523 8.77843C1.63973 11.4119 1.84135 14.4035 3.34142 17.0017C4.84147 19.5998 7.33139 21.2702 10.0598 21.8114Z" style="fill: rgb(86, 86, 86); fill-opacity: 0.2;"/>
    <path d="M13.9431 2.19181C13.9419 2.28533 13.9414 2.48305 13.9494 2.67075C13.9655 3.04627 14.0115 3.59833 14.1325 4.28301C14.3744 5.65227 14.9155 7.54903 16.1151 9.62671C17.3146 11.7044 18.6867 13.1214 19.7516 14.0156C20.284 14.4627 20.7391 14.7785 21.0563 14.9802C21.2148 15.081 21.3864 15.1795 21.468 15.2252C22.3636 12.5916 22.162 9.59995 20.6619 7.00167C19.1618 4.40337 16.6717 2.73296 13.9431 2.19181Z" style="fill: rgb(86, 86, 86); fill-opacity: 0.2;"/>
  </g>
  <text style="fill: rgb(86, 86, 86); fill-opacity: 0.2; font-family: Audiowide; font-size: 23.8px; white-space: pre;" x="809.44" y="517.473">ME</text>
  <g id="group-30" stroke-width="0" transform="matrix(1, 0, 0, 1, 524.897339, -64.468933)"/>
  <g id="group-31" stroke-linecap="round" stroke-linejoin="round" transform="matrix(1, 0, 0, 1, 524.897339, -64.468933)"/>
  <text style="fill: rgb(86, 86, 86); fill-opacity: 0.2; font-family: Audiowide; font-size: 23.8px; white-space: pre;" x="435.996" y="814.895">BELIEVE</text>
  <rect x="487.967" y="821.174" width="11.987" height="14.588" style="fill: rgb(86, 86, 86); stroke-width: 1; fill-opacity: 0.2;"/>
  <rect x="469.473" y="785.811" width="7.523" height="7.523" style="fill: rgb(86, 86, 86); stroke-width: 1; fill-opacity: 0.2;"/>
  <rect x="510.523" y="784.093" width="9.927" height="9.927" style="fill: rgb(86, 86, 86); stroke-width: 1; fill-opacity: 0.2;"/>
  <rect x="526.459" y="775.936" width="14.993" height="14.993" style="fill: rgb(86, 86, 86); stroke-width: 1; fill-opacity: 0.2;"/>
  <rect x="471.957" y="820.572" width="6.837" height="6.837" style="fill: rgb(86, 86, 86); stroke-width: 1; fill-opacity: 0.2;"/>
  <rect x="487.126" y="779.629" width="11.846" height="13.704" style="fill: rgb(86, 86, 86); stroke-width: 1; fill-opacity: 0.2;"/>
  <rect x="450.479" y="820.084" width="13.647" height="14.39" style="fill: rgb(86, 86, 86); stroke-width: 1; fill-opacity: 0.2;"/>
  <rect x="509.647" y="820.085" width="6.381" height="7.867" style="fill: rgb(86, 86, 86); stroke-width: 1; fill-opacity: 0.2;"/>
  <rect x="524.039" y="820.541" width="19.197" height="19.197" style="fill: rgb(86, 86, 86); stroke-width: 1; fill-opacity: 0.2;"/>
  <rect x="445.533" y="782.489" width="15.388" height="11.3" style="fill: rgb(86, 86, 86); stroke-width: 1; fill-opacity: 0.2;"/>
  <g id="group-15" stroke-width="0" transform="matrix(1.929803, 0, 0, 1.929803, 738.464355, 245.956619)" style=""/>
  <g id="group-16" stroke-linecap="round" stroke-linejoin="round" transform="matrix(1.929803, 0, 0, 1.929803, 738.464355, 245.956619)" style=""/>
  <g id="group-17" transform="matrix(1.929803, 0, 0, 1.929803, 360.743378, 342.145691)" style="">
    <path fill-rule="evenodd" clip-rule="evenodd" d="M22.9999 11.9998C22.9999 18.0749 18.075 22.9998 11.9999 22.9998C5.92478 22.9998 0.999908 18.0749 0.999908 11.9998C0.999908 5.92462 5.92478 0.999756 11.9999 0.999756C18.075 0.999756 22.9999 5.92462 22.9999 11.9998ZM3.00674 11.9998C3.00674 14.5875 4.09974 16.92 5.84927 18.5608C6.0769 18.2328 6.34676 17.808 6.61709 17.2997C7.31622 15.9851 8 14.1476 8 12C8 9.85239 7.31622 8.01489 6.61709 6.7003C6.34668 6.19183 6.07674 5.7669 5.84906 5.43891C4.09965 7.07965 3.00674 9.41207 3.00674 11.9998ZM11.9999 20.9929C10.3404 20.9929 8.78593 20.5434 7.45152 19.7596C7.72696 19.3672 8.05519 18.855 8.38291 18.2388C9.18378 16.7329 10 14.5704 10 12C10 9.42961 9.18378 7.26711 8.38291 5.7612C8.0551 5.14481 7.72676 4.6325 7.45127 4.24005C8.78574 3.45612 10.3403 3.00659 11.9999 3.00659C13.6595 3.00659 15.2142 3.45615 16.5487 4.24013C16.2732 4.63257 15.9449 5.14485 15.6171 5.7612C14.8162 7.26711 14 9.42961 14 12C14 14.5704 14.8162 16.7329 15.6171 18.2388C15.9448 18.855 16.273 19.3671 16.5484 19.7595C15.214 20.5434 13.6594 20.9929 11.9999 20.9929ZM18.1507 18.5607C19.9001 16.9199 20.9931 14.5875 20.9931 11.9998C20.9931 9.41213 19.9002 7.07975 18.1509 5.43901C17.9232 5.76699 17.6533 6.19189 17.3829 6.7003C16.6838 8.01489 16 9.85239 16 12C16 14.1476 16.6838 15.9851 17.3829 17.2997C17.6532 17.808 17.923 18.2328 18.1507 18.5607Z" style="fill: rgb(86, 86, 86); fill-opacity: 0.2; stroke-width: 0px;"/>
  </g>
  <g id="group-27" style="" transform="matrix(0.144586, 0, 0, 0.144586, 1.231905, 340.268982)">
    <g id="group-28" stroke-width="0" transform="matrix(1, 0, 0, 1, 344.874847, -61.2724)"/>
    <g id="group-29" stroke-linecap="round" stroke-linejoin="round" transform="matrix(1, 0, 0, 1, 344.874847, -61.2724)"/>
    <g id="group-32" transform="matrix(1, 0, 0, 1, 344.874847, -61.2724)">
      <g>
        <path class="st0" d="M507.316,119.933c-6.746-27.334-21.252-52.624-41.815-73.186l-0.105-0.105l-0.088-0.079 c-0.008-0.017-0.026-0.026-0.035-0.035l-0.235-0.227l-0.009,0.009c-18.43-18.395-40.11-31.669-64.116-39.158 c-15.196-4.736-31.188-7.139-47.573-7.139c-2.184,0-4.404,0.043-6.658,0.14l-0.761,0.026l0.804-0.026 c-26.95,1.04-54.145,8.301-80.728,21.322c-26.102,12.75-50.579,30.577-72.784,52.773c-38.817,38.834-63.015,87.22-67.698,136.786 c-0.515,5.532-0.778,11.124-0.778,16.708c0,3.688,0.149,7.366,0.367,11.063c-1.643,33.478-8.966,64.291-21.698,91.826 c-10.539,22.826-24.975,43.772-42.916,62.325l-2.866,2.875c-4.885,4.902-13.782,13.466-27.571,26.985 c-9.928,9.7-18.421,18.002-20.615,20.204c-1.738,1.748-3.95,4.282-5.881,7.839c-1.923,3.521-3.557,8.188-3.557,13.641 c-0.079,7.995,3.775,16.595,11.063,23.734l19.479,19.479l0.822-0.83c5.261,3.304,10.828,5.156,16.158,5.103 c5.47,0,10.137-1.643,13.649-3.565c3.548-1.94,6.091-4.142,7.848-5.899c2.281-2.263,10.487-10.687,20.187-20.57l0.017-0.009 c13.406-13.72,21.908-22.555,26.871-27.509l2.928-2.884l-0.061,0.053c16.341-15.878,38.668-30.446,64.325-41.631 c28.112-12.242,58.602-20.012,90.725-23.017c2.919,0.166,5.881,0.262,8.87,0.27c18.771-0.035,38.538-2.91,54.268-7.637 c36.458-11.037,71.369-31.538,100.616-60.786c19.688-19.706,35.977-41.273,48.351-64.195c9.315-17.241,16.254-35.033,20.588-52.895 c3.513-14.506,5.296-28.881,5.296-43.003C512,145.503,510.445,132.518,507.316,119.933z M51.909,485.324l-0.044,0.044l-2.272,1.748 l-2.071,0.603c-0.76-0.07-2.464-0.009-6.528-3.906l-1.932-1.896l-2.106-2.089l-8.022-8.005l-0.699-0.708 c-3.994-4.124-3.906-5.855-3.977-6.615l0.612-2.072l1.738-2.28l0.018-0.018c1.162-1.171,5.278-5.208,10.574-10.382l25.054,25.063 C57.073,480.09,53.054,484.214,51.909,485.324z M73.519,463.303l-1.625,1.66c-0.402,0.42-0.761,0.778-1.154,1.18l-24.87-24.879 c0.393-0.376,0.752-0.717,1.135-1.11c5.2-5.095,9.482-9.263,13.336-13.021l32.097,16.752 C87.72,448.717,81.576,455.036,73.519,463.303z M102.069,434.194l-0.682,0.681l-31.913-16.656c2.054-2.001,3.862-3.792,5.33-5.261 l2.901-2.91l0.079-0.078l0.044-0.043c5.243-5.409,10.189-11.064,14.89-16.857l26.478,26.486 C113.106,424.249,107.321,429.108,102.069,434.194z M483.136,195.978c-3.818,15.686-9.97,31.582-18.359,47.101 c-11.169,20.685-26.007,40.408-44.166,58.576c-26.426,26.408-57.902,44.838-90.489,54.713c-12.863,3.915-31.066,6.624-47.241,6.589 c-2.901,0.009-5.724-0.07-8.433-0.236l-0.288-0.027l-0.743-0.035l-0.909,0.062l-0.227,0.026h-0.087 c-34.737,3.207-67.926,11.613-98.599,24.993c-16.114,7.043-30.944,15.424-44.392,24.678l-29.117-29.126 c9.814-13.362,18.412-27.492,25.342-42.47c14.165-30.647,22.162-64.684,23.926-101.046l0.009-0.279v-0.577v-0.42l-0.026-0.393 c-0.236-3.443-0.341-6.904-0.341-10.364c0-4.841,0.227-9.674,0.673-14.436c4.029-43.169,25.412-86.627,60.69-121.905 c20.501-20.492,42.829-36.667,66.3-48.132c23.926-11.718,47.783-17.967,71.019-18.884l0.76-0.035l-0.717,0.035 c1.852-0.078,3.723-0.114,5.619-0.114c14.017,0,27.545,2.045,40.346,6.038c20.318,6.344,38.52,17.46,54.451,33.399l0.105,0.096 l0.157,0.149c17.547,17.565,29.746,38.957,35.374,61.799c2.639,10.661,3.968,21.646,3.968,32.954 C487.742,170.793,486.23,183.236,483.136,195.978z" style="fill: rgb(86, 86, 86); fill-opacity: 0.2;"/>
        <polygon class="st0" points="11.064,488.251 11.064,488.234 10.356,487.535 " style="fill: rgb(86, 86, 86); fill-opacity: 0.2;"/>
        <path class="st0" d="M177.528,334.686c-5.532-5.531-10.591-11.648-15.048-18.194l-2.683-3.923l-1.363,4.535 c-3.347,11.133-7.463,21.986-12.216,32.264c-5.112,11.063-11.16,21.864-17.95,32.088l3.084,3.172 c10.574-6.563,21.995-12.532,33.967-17.765c10.164-4.448,20.877-8.407,31.862-11.754l4.631-1.408l-4.054-2.647 C190.364,346.213,183.557,340.69,177.528,334.686z" style="fill: rgb(86, 86, 86); fill-opacity: 0.2;"/>
        <path class="st0" d="M318.351,53.922c0.035-0.009,0.07-0.009,0.096-0.018l1.478-0.358L318.351,53.922z" style="fill: rgb(86, 86, 86); fill-opacity: 0.2;"/>
        <path class="st0" d="M431.822,86.203v-0.358l-2.839-2.84c-14.717-14.716-32.238-24.826-51.646-29.642 c-8.922-2.237-18.124-3.32-27.518-3.312c-10.259,0-20.763,1.319-31.372,3.853l-0.122,0.035 c-13.519,3.286-27.046,8.582-40.251,15.704c-18.019,9.735-35.051,22.598-50.676,38.223c-22.58,22.598-38.878,49.312-46.97,77.486 c-3.792,13.186-5.698,26.416-5.706,39.35c0,13.187,2.001,26.05,6.038,38.188c5.356,16.088,14.165,30.419,26.05,42.312 c11.885,11.885,26.216,20.693,42.313,26.05l0.131,0.035c12.06,3.976,24.826,5.976,38.031,5.976c4.133,0,8.328-0.192,12.566-0.576 c37.524-3.53,74.384-22.178,104.296-52.091c17.591-17.574,31.626-36.859,41.631-57.299c9.831-20.064,15.319-40.4,16.088-60.358 c0.052-1.6,0.079-3.172,0.079-4.763c0-11.64-1.67-22.974-5.025-33.678C452.018,112.821,443.41,98.629,431.822,86.203z M438.403,134.282c1.862,5.943,2.866,12.226,3.47,18.658l-16.822,16.822l-37.375-37.384l31.38-31.39 C428.048,111.047,434.584,122.136,438.403,134.282z M254.086,173.405l35.471-35.462l37.384,37.385l-35.479,35.453L254.086,173.405z M282.575,219.677l-33.329,33.347l-37.367-37.384l33.321-33.337L282.575,219.677z M298.453,129.039l34.038-34.037l37.384,37.376 l-34.028,34.045L298.453,129.039z M335.846,184.206l37.366,37.394l-35.462,35.47l-37.375-37.392L335.846,184.206z M344.742,175.329 l34.037-34.038l37.367,37.376l-34.028,34.037L344.742,175.329z M357.587,69.914c5.13,0.402,10.181,1.066,15.058,2.272 c13.798,3.451,26.224,10.216,37.428,19.985l-31.294,31.31l-37.375-37.375L357.587,69.914z M339.604,70.088l-7.113,7.113 l-5.209-5.217C331.45,71.146,335.557,70.482,339.604,70.088z M287.294,86.709c8.651-4.666,17.364-8.074,26.033-10.87l10.267,10.268 l-34.046,34.028l-21.357-21.366C274.448,94.339,280.792,90.213,287.294,86.709z M241.118,121.594 c5.479-5.488,11.177-10.452,16.962-15.135l22.582,22.58L245.2,164.501l-21.978-21.986 C228.552,135.244,234.486,128.218,241.118,121.594z M199.077,190.708c3.678-12.846,9.42-25.499,16.944-37.576l20.274,20.273 l-33.33,33.33l-6.046-6.056C197.6,197.367,198.116,194.064,199.077,190.708z M199.164,256.763 c-2.516-7.602-3.784-15.712-4.412-24.022l8.214-8.232l37.385,37.385l-24.416,24.424 C208.558,277.667,202.878,267.862,199.164,256.763z M277.708,317.122c-7.76-0.7-15.346-1.949-22.476-4.291l-0.035-0.009 c-11.474-3.836-21.576-9.796-30.411-17.565l24.46-24.451l37.384,37.384L277.708,317.122z M295.141,317.498l0.385-0.403l0.358,0.359 C295.639,317.471,295.386,317.471,295.141,317.498z M295.526,299.286l-37.376-37.392l33.312-33.32l37.393,37.384L295.526,299.286z M311.526,315.278l-7.105-7.087l33.329-33.329l21.14,21.13C343.684,305.455,327.64,311.975,311.526,315.278z M390.419,270.886 c-6.641,6.65-13.65,12.636-20.902,17.949l-22.86-22.878l35.462-35.462l23.419,23.429C400.853,259.7,395.915,265.38,390.419,270.886 z M428.345,218.768c-4.177,8.564-9.272,16.927-15.065,25.08L391.022,221.6l34.028-34.038l11.238,11.238 C434.147,205.398,431.639,212.057,428.345,218.768z M440.011,184.731l-6.066-6.064l8.092-8.092 C441.671,175.241,440.981,179.968,440.011,184.731z" style="fill: rgb(86, 86, 86); fill-opacity: 0.2;"/>
        <path class="st0" d="M249.962,331.523l-0.708-0.235c-0.035,0-0.07-0.018-0.105-0.027L249.962,331.523z" style="fill: rgb(86, 86, 86); fill-opacity: 0.2;"/>
      </g>
    </g>
  </g>
  <g id="Icons" transform="matrix(2.095292, 0, 0, 2.095292, -1009.294922, -301.141449)" style="">
    <g id="group-33" stroke-width="0" transform="matrix(1, 0, 0, 1, 743.684998, 271.537781)"/>
    <g id="group-34" stroke-linecap="round" stroke-linejoin="round" transform="matrix(1, 0, 0, 1, 743.684998, 271.537781)"/>
    <g id="group-35" transform="matrix(1, 0, 0, 1, 743.684998, 271.537781)">
      <g/>
    </g>
  </g>
  <g id="Layer_1" transform="matrix(1, 0, 0, 1, -29.981544, 29.314411)">
    <g id="group-18" stroke-width="0" transform="matrix(1, 0, 0, 1, 463.305939, 178.846588)"/>
    <g id="group-25" stroke-linecap="round" stroke-linejoin="round" transform="matrix(1, 0, 0, 1, 463.305939, 178.846588)"/>
    <g id="group-26" transform="matrix(1, 0, 0, 1, 463.305939, 178.846588)">
      <g>
        <g>
          <g id="_x32_" style="" transform="matrix(0.118546, 0, 0, 0.118546, 204.395584, 130.745407)">
            <g id="group-40" stroke-width="0" transform="matrix(1, 0, 0, 1, -68.99115, -59.136372)"/>
            <g id="group-41" stroke-linecap="round" stroke-linejoin="round" transform="matrix(1, 0, 0, 1, -68.99115, -59.136372)"/>
            <g id="group-42" transform="matrix(1, 0, 0, 1, -68.99115, -59.136372)">
              <g>
                <path class="st0" d="M 446.436 399.278 C 432.966 379.624 412.653 368.261 394.395 361.349 C 385.188 357.889 376.15 355.322 368.375 353.196 C 360.627 351.082 354.099 349.377 349.825 347.755 C 342.084 344.883 334.259 341.365 328.836 337.499 C 326.193 335.69 324.527 334.17 323.55 332.747 C 322.609 331.706 322.822 331.913 322.822 331.494 C 322.822 323.879 322.822 316.282 322.822 303.75 C 332.89 292.384 345.999 276.297 352.766 248.926 C 354.321 248.132 355.17 247.73 357.44 246.169 C 362.883 242.311 367.868 236.469 371.726 229.271 C 375.458 222.183 378.817 213.046 382.261 201.024 C 384.035 194.708 384.931 188.811 384.961 183.779 C 384.905 177.842 383.496 172.013 381.248 167.642 C 377.859 161.795 375.306 160.043 372.02 157.811 C 373.056 152.014 373.644 147.607 374.275 140.794 C 374.999 139.265 375.53 137.984 375.734 135.632 L 375.734 86.272 C 375.544 83.644 374.137 80.243 372.411 78.246 C 370.948 76.998 371.157 77.276 370.475 76.865 C 367.127 61.819 362.408 48.738 356.034 38.194 C 349.536 27.446 341.844 20.125 332.768 18.213 C 298.642 -7.512 270.042 -7.447 242.57 -1.773 C 215.129 3.895 189.054 14.494 157.503 8.484 L 154.102 7.836 L 152.338 10.831 C 141.958 28.456 137.578 53.512 136.435 77.713 L 138.412 77.079 C 138.658 77 137.958 77.431 136.808 78.282 C 136.665 78.449 136.524 78.626 136.385 78.812 C 136.354 79.539 136.325 80.264 136.299 80.989 L 136.376 78.824 C 134.866 80.852 133.688 83.868 133.514 86.273 L 133.514 135.631 C 133.702 138.249 135.109 141.655 136.836 143.655 C 138.659 145.196 138.521 144.887 139.489 145.383 C 140.185 151.234 140.446 153.207 141.055 156.983 C 140.93 157.056 140.701 157.191 140.309 157.423 C 137.049 159.502 133.237 163.225 130.743 167.638 C 128.492 172.016 127.095 177.849 127.042 183.788 C 127.071 188.806 127.952 194.706 129.741 201.028 C 134.354 217.053 138.81 228.003 144.393 235.989 C 147.313 240.032 150.928 243.621 154.545 246.169 C 156.821 247.727 157.03 247.926 159.219 248.922 C 165.932 276.211 179.047 292.303 189.179 303.75 C 189.179 315.347 189.179 323.879 189.179 331.494 C 189.179 331.766 189.397 331.615 188.361 332.708 C 186.684 335.102 183.048 337.899 178.137 340.624 C 173.158 343.473 167.52 345.871 162.409 347.671 C 156.519 349.78 146.702 352.007 135.425 355.244 C 118.526 360.129 97.798 367.616 80.876 381.888 C 72.54 389.118 64.826 398.65 59.522 409.964 C 54.38 421.244 51.3 435.095 51.253 450.63 C 51.255 454.212 51.415 458.007 51.725 461.822 C 52.184 465.259 53.583 468.577 54.92 470.647 C 57.619 474.409 61.265 477.563 65.153 480.196 C 71.921 484.646 81.428 489.11 93.087 493.295 C 127.695 505.607 185.251 516.937 255.998 516.998 C 313.462 516.969 362.304 509.473 396.979 500.106 C 414.409 495.368 428.63 490.076 438.832 484.853 C 443.986 482.173 448.514 479.297 452.019 476.284 C 453.755 474.733 455.603 472.762 457.047 470.691 C 458.381 468.623 459.81 465.3 460.27 461.861 C 460.579 458.046 460.743 454.221 460.745 450.644 C 460.654 429.912 455.097 412.427 446.435 399.275 Z M 156.197 97.616 L 353.049 97.616 L 353.049 124.283 L 156.197 124.283 Z M 182.755 237.609 L 181.464 230.307 L 174.486 227.815 C 172.028 226.952 170.571 226.273 169.13 225.233 C 166.851 223.688 165.216 222.003 162.791 217.304 C 160.154 212.386 157.412 205.11 154.27 194.026 C 152.939 189.444 152.527 186.315 152.547 183.796 C 152.442 181.238 152.753 180.501 153.222 179.719 C 153.357 178.843 153.285 179.191 154.332 178.826 C 154.901 178.52 155.036 178.575 155.343 178.555 L 159.101 179.023 C 164.54 187.077 168.474 196.361 168.474 196.361 L 178.068 219 L 178.068 148.982 C 180.247 148.458 179.251 148.726 186.242 146.98 L 335.425 146.98 L 340.638 191.337 L 347.426 186.792 C 347.426 186.792 352.764 183.218 358.169 179.035 C 358.186 179.054 358.203 179.073 358.219 179.094 C 358.753 179.382 358.607 179.123 358.764 179.689 C 359.233 180.5 359.565 181.251 359.455 183.787 C 359.477 186.316 359.063 189.442 357.732 194.024 C 353.563 208.766 350.089 216.785 346.832 221.179 C 345.402 223.27 344.383 224.204 342.879 225.226 C 341.441 226.267 339.968 226.946 337.504 227.812 L 330.526 230.304 L 330.02 233.165 L 329.236 237.598 C 324.896 264.141 311.179 278.543 300.586 290.341 L 297.305 293.974 C 297.305 308.076 297.305 323.262 297.305 331.491 C 297.305 337.59 299.987 343.683 303.002 347.854 C 306.574 352.535 307.974 353.478 310.871 355.836 C 307.339 358.51 305.484 359.878 297.971 362.716 C 287.915 366.647 275.466 368.759 260.036 368.716 C 244.607 368.759 232.144 366.646 222.103 362.715 C 212.758 359.213 209.24 356.484 205.035 352.176 C 206.331 350.907 206.502 350.927 208.696 348.113 C 211.782 343.965 214.454 337.819 214.703 331.492 C 214.703 323.263 214.703 310.009 214.703 295.906 L 214.703 293.987 L 211.424 290.345 C 200.83 278.546 187.111 264.15 182.757 237.608 Z M 429.979 460.636 C 424.16 464.029 418.612 466.324 410.051 469.346 L 410.051 445.578 L 387.354 445.578 L 387.354 476.243 C 381.094 477.889 375.849 479.173 367.181 480.936 C 337.055 487.113 299.312 491.493 256 491.493 C 202.057 491.493 160.192 485.18 128.006 477.095 L 128.006 445.578 L 105.309 445.578 L 105.309 470.532 C 96.855 467.687 91.267 465.501 84.84 462.167 C 81.055 460.242 78.483 458.565 76.998 457.274 C 76.841 454.965 76.759 452.781 76.761 450.633 C 76.66 434.009 80.502 422.669 86.801 413.282 C 95.797 399.164 110.391 391.008 126.522 384.97 C 134.542 381.932 142.632 379.65 150.226 377.622 C 157.816 375.577 164.919 373.817 170.908 371.722 C 176.805 369.629 181.04 367.812 186.265 365.168 C 193.513 374.615 201.467 379.017 213.954 383.898 C 226.83 388.791 242.589 391.373 260.039 391.413 C 277.489 391.374 293.245 388.79 306.122 383.898 C 317.257 379.543 324.632 374.426 331.353 367.69 C 334.535 369.126 336.678 370.072 340.888 371.649 C 348.884 374.593 358.857 376.898 369.418 379.98 C 385.279 384.551 402.043 390.563 414.472 401.428 C 420.77 406.769 425.664 412.715 429.3 420.74 C 433.1 428.823 435.292 438.173 435.241 450.65 C 435.244 452.791 435.151 454.982 434.995 457.301 C 434.029 458.148 432.498 459.22 429.981 460.634 Z" style="stroke-width: 12.6533px; stroke-opacity: 0.2; fill: rgb(86, 86, 86); fill-opacity: 0.2; fill-rule: evenodd;"/>
              </g>
            </g>
          </g>
        </g>
      </g>
    </g>
  </g>
  <g id="svg-1" transform="matrix(0.07597, 0, 0, 0.07597, 164.189774, 582.780518)" style="">
    <g id="group-51" stroke-width="0" transform="matrix(1, 0, 0, 1, 225.378067, 257.14682)"/>
    <g id="group-52" stroke-linecap="round" stroke-linejoin="round" transform="matrix(1, 0, 0, 1, 225.378067, 257.14682)"/>
    <g id="group-53" transform="matrix(1, 0, 0, 1, 225.378067, 257.14682)">
      <g>
        <g>
          <g id="Capa_1">
            <g id="group-54" stroke-width="0" transform="matrix(13.163087, 0, 0, 13.163093, -2809.672607, -1772.01355)"/>
            <g id="group-55" stroke-linecap="round" stroke-linejoin="round" transform="matrix(13.163087, 0, 0, 13.163093, -2809.672607, -1772.01355)"/>
            <g id="group-56" transform="matrix(13.163089, 0, 0, 13.163089, -2809.672607, -1772.01355)">
              <g>
                <path d="M 128.994 155.303 C 130.23 153.71 134.128 149.61 138.759 154.056 C 144.388 159.456 143.365 168.381 141.375 174.75 C 139.385 181.117 139.512 186.758 141.886 188.508 C 141.346 190.254 134.381 183.446 134.381 183.446 C 134.381 183.446 135.546 186.373 139.329 189.018 C 129.706 187.055 131.313 176.51 131.313 176.51 C 131.313 176.51 136.258 164.543 133.913 160.363 C 132.474 157.8 131.116 158.062 130.281 158.646" style="fill: rgb(86, 86, 86); transform-box: fill-box; transform-origin: 50% 50%; fill-opacity: 0.2;" transform="matrix(0.866025, -0.5, 0.5, 0.866025, -0.000006, -0.000001)"/>
              </g>
            </g>
          </g>
        </g>
      </g>
    </g>
  </g>
  <g id="group-43" transform="matrix(1, 0, 0, 1, -607.165955, 324.721344)">
    <g id="group-44" stroke-width="0" transform="matrix(1, 0, 0, 1, 463.305939, 178.846588)"/>
    <g id="group-45" stroke-linecap="round" stroke-linejoin="round" transform="matrix(1, 0, 0, 1, 463.305939, 178.846588)"/>
    <g id="group-46" transform="matrix(1, 0, 0, 1, 463.305939, 178.846588)">
      <g>
        <g>
          <g id="group-47" style="" transform="matrix(0.118546, 0, 0, 0.118546, 204.395584, 130.745407)">
            <g id="group-48" stroke-width="0" transform="matrix(1, 0, 0, 1, -68.99115, -59.136372)"/>
            <g id="group-49" stroke-linecap="round" stroke-linejoin="round" transform="matrix(1, 0, 0, 1, -68.99115, -59.136372)"/>
            <g id="group-50" transform="matrix(1, 0, 0, 1, -68.99115, -59.136372)">
              <g>
                <path class="st0" d="M 446.436 399.278 C 432.966 379.624 412.653 368.261 394.395 361.349 C 385.188 357.889 376.15 355.322 368.375 353.196 C 360.627 351.082 354.099 349.377 349.825 347.755 C 342.084 344.883 334.259 341.365 328.836 337.499 C 326.193 335.69 324.527 334.17 323.55 332.747 C 322.609 331.706 322.822 331.913 322.822 331.494 C 322.822 323.879 322.822 316.282 322.822 303.75 C 332.89 292.384 345.999 276.297 352.766 248.926 C 354.321 248.132 355.17 247.73 357.44 246.169 C 362.883 242.311 367.868 236.469 371.726 229.271 C 375.458 222.183 378.817 213.046 382.261 201.024 C 384.035 194.708 384.931 188.811 384.961 183.779 C 384.905 177.842 383.496 172.013 381.248 167.642 C 377.859 161.795 375.306 160.043 372.02 157.811 C 373.056 152.014 373.644 147.607 374.275 140.794 C 374.999 139.265 375.53 137.984 375.734 135.632 L 375.734 86.272 C 375.544 83.644 374.137 80.243 372.411 78.246 C 370.948 76.998 371.138 77.263 370.446 76.848 C 363.188 45.937 348.702 28.952 333.466 18.741 C 299.239 -7.518 263.037 -10.476 234.011 -4.656 C 204.789 1.203 181.398 15.526 171.937 22.091 C 166.154 26.269 139.914 52.069 136.599 77.659 L 138.411 77.078 C 138.657 76.999 137.957 77.43 136.807 78.281 C 136.696 78.411 136.586 78.546 136.478 78.687 C 136.394 79.481 136.333 80.275 136.296 81.068 L 136.403 78.786 C 134.88 80.815 133.688 83.853 133.514 86.272 L 133.514 135.63 C 133.702 138.248 135.109 141.654 136.836 143.654 C 138.659 145.195 138.521 144.886 139.489 145.382 C 140.185 151.233 140.446 153.206 141.055 156.982 C 140.93 157.055 140.701 157.19 140.309 157.422 C 137.049 159.501 133.237 163.224 130.743 167.637 C 128.492 172.015 127.095 177.848 127.042 183.787 C 127.071 188.805 127.952 194.705 129.741 201.027 C 134.354 217.052 138.81 228.002 144.393 235.988 C 147.313 240.031 150.928 243.62 154.545 246.168 C 156.821 247.726 157.03 247.925 159.219 248.921 C 165.932 276.21 179.047 292.302 189.179 303.749 C 189.179 315.346 189.179 323.878 189.179 331.493 C 189.179 331.765 189.397 331.614 188.361 332.707 C 186.684 335.101 183.048 337.898 178.137 340.623 C 173.158 343.472 167.52 345.87 162.409 347.67 C 156.519 349.779 146.702 352.006 135.425 355.243 C 118.526 360.128 97.798 367.615 80.876 381.887 C 72.54 389.117 64.826 398.649 59.522 409.963 C 54.38 421.243 51.3 435.094 51.253 450.629 C 51.255 454.211 51.415 458.006 51.725 461.821 C 52.184 465.258 53.583 468.576 54.92 470.646 C 57.619 474.408 61.265 477.562 65.153 480.195 C 71.921 484.645 81.428 489.109 93.087 493.294 C 127.695 505.606 185.251 516.936 255.998 516.997 C 313.462 516.968 362.304 509.472 396.979 500.105 C 414.409 495.367 428.63 490.075 438.832 484.852 C 443.986 482.172 448.514 479.296 452.019 476.283 C 453.755 474.732 455.603 472.761 457.047 470.69 C 458.381 468.622 459.81 465.299 460.27 461.86 C 460.579 458.045 460.743 454.22 460.745 450.643 C 460.654 429.911 455.097 412.426 446.435 399.274 Z M 156.197 85.616 L 353.049 85.616 L 353.049 124.283 L 156.197 124.283 Z M 182.755 237.609 L 181.464 230.307 L 174.486 227.815 C 172.028 226.952 170.571 226.273 169.13 225.233 C 166.851 223.688 165.216 222.003 162.791 217.304 C 160.154 212.386 157.412 205.11 154.27 194.026 C 152.939 189.444 152.527 186.315 152.547 183.796 C 152.442 181.238 152.753 180.501 153.222 179.719 C 153.356 178.848 153.285 179.191 154.332 178.827 C 154.901 178.521 155.036 178.576 155.343 178.556 L 159.101 179.024 C 164.54 187.078 168.474 196.362 168.474 196.362 L 178.068 219.001 L 178.068 148.983 C 180.247 148.459 179.251 148.727 186.242 146.981 L 335.425 146.981 L 340.638 191.338 L 347.426 186.793 C 347.426 186.793 352.764 183.219 358.169 179.036 C 358.186 179.055 358.203 179.074 358.219 179.095 C 358.753 179.383 358.607 179.124 358.764 179.69 C 359.233 180.501 359.565 181.252 359.455 183.788 C 359.477 186.317 359.063 189.443 357.732 194.025 C 353.563 208.767 350.089 216.786 346.832 221.18 C 345.402 223.271 344.383 224.205 342.879 225.227 C 341.441 226.268 339.968 226.947 337.504 227.813 L 330.526 230.305 L 330.02 233.166 L 329.236 237.599 C 324.896 264.142 311.179 278.544 300.586 290.342 L 297.305 293.975 C 297.305 308.077 297.305 323.263 297.305 331.492 C 297.305 337.591 299.987 343.684 303.002 347.855 C 306.574 352.536 307.974 353.479 310.871 355.837 C 307.339 358.511 305.484 359.879 297.971 362.717 C 287.915 366.648 275.466 368.76 260.036 368.717 C 244.607 368.76 232.144 366.647 222.103 362.716 C 212.758 359.214 209.24 356.485 205.035 352.177 C 206.331 350.908 206.502 350.928 208.696 348.114 C 211.782 343.966 214.454 337.82 214.703 331.493 C 214.703 323.264 214.703 310.01 214.703 295.907 L 214.703 293.988 L 211.424 290.346 C 200.83 278.547 187.111 264.151 182.757 237.609 Z M 429.979 460.636 C 424.16 464.029 418.612 466.324 410.051 469.346 L 410.051 445.578 L 387.354 445.578 L 387.354 476.243 C 381.094 477.889 375.849 479.173 367.181 480.936 C 337.055 487.113 299.312 491.493 256 491.493 C 202.057 491.493 160.192 485.18 128.006 477.095 L 128.006 445.578 L 105.309 445.578 L 105.309 470.532 C 96.855 467.687 91.267 465.501 84.84 462.167 C 81.055 460.242 78.483 458.565 76.998 457.274 C 76.841 454.965 76.759 452.781 76.761 450.633 C 76.66 434.009 80.502 422.669 86.801 413.282 C 95.797 399.164 110.391 391.008 126.522 384.97 C 134.542 381.932 142.632 379.65 150.226 377.622 C 157.816 375.577 164.919 373.817 170.908 371.722 C 176.805 369.629 181.04 367.812 186.265 365.168 C 193.513 374.615 201.467 379.017 213.954 383.898 C 226.83 388.791 242.589 391.373 260.039 391.413 C 277.489 391.374 293.245 388.79 306.122 383.898 C 317.257 379.543 324.632 374.426 331.353 367.69 C 334.535 369.126 336.678 370.072 340.888 371.649 C 348.884 374.593 358.857 376.898 369.418 379.98 C 385.279 384.551 402.043 390.563 414.472 401.428 C 420.77 406.769 425.665 412.718 429.301 420.742 C 433.101 428.825 435.293 438.173 435.241 450.65 C 435.244 452.791 435.151 454.982 434.995 457.301 C 434.029 458.148 432.498 459.22 429.981 460.634 Z" style="fill: rgb(86, 86, 86); stroke-width: 12.6533px; fill-opacity: 0.2; stroke-opacity: 0.2;"/>
              </g>
            </g>
          </g>
        </g>
      </g>
    </g>
  </g>
  <g id="group-57" style="" transform="matrix(0.144586, 0, 0, 0.144586, 299.260101, 628.482117)">
    <g id="group-58" stroke-width="0" transform="matrix(1, 0, 0, 1, 344.874847, -61.2724)"/>
    <g id="group-59" stroke-linecap="round" stroke-linejoin="round" transform="matrix(1, 0, 0, 1, 344.874847, -61.2724)"/>
    <g id="group-60" transform="matrix(1, 0, 0, 1, 344.874847, -61.2724)">
      <g>
        <path class="st0" d="M507.316,119.933c-6.746-27.334-21.252-52.624-41.815-73.186l-0.105-0.105l-0.088-0.079 c-0.008-0.017-0.026-0.026-0.035-0.035l-0.235-0.227l-0.009,0.009c-18.43-18.395-40.11-31.669-64.116-39.158 c-15.196-4.736-31.188-7.139-47.573-7.139c-2.184,0-4.404,0.043-6.658,0.14l-0.761,0.026l0.804-0.026 c-26.95,1.04-54.145,8.301-80.728,21.322c-26.102,12.75-50.579,30.577-72.784,52.773c-38.817,38.834-63.015,87.22-67.698,136.786 c-0.515,5.532-0.778,11.124-0.778,16.708c0,3.688,0.149,7.366,0.367,11.063c-1.643,33.478-8.966,64.291-21.698,91.826 c-10.539,22.826-24.975,43.772-42.916,62.325l-2.866,2.875c-4.885,4.902-13.782,13.466-27.571,26.985 c-9.928,9.7-18.421,18.002-20.615,20.204c-1.738,1.748-3.95,4.282-5.881,7.839c-1.923,3.521-3.557,8.188-3.557,13.641 c-0.079,7.995,3.775,16.595,11.063,23.734l19.479,19.479l0.822-0.83c5.261,3.304,10.828,5.156,16.158,5.103 c5.47,0,10.137-1.643,13.649-3.565c3.548-1.94,6.091-4.142,7.848-5.899c2.281-2.263,10.487-10.687,20.187-20.57l0.017-0.009 c13.406-13.72,21.908-22.555,26.871-27.509l2.928-2.884l-0.061,0.053c16.341-15.878,38.668-30.446,64.325-41.631 c28.112-12.242,58.602-20.012,90.725-23.017c2.919,0.166,5.881,0.262,8.87,0.27c18.771-0.035,38.538-2.91,54.268-7.637 c36.458-11.037,71.369-31.538,100.616-60.786c19.688-19.706,35.977-41.273,48.351-64.195c9.315-17.241,16.254-35.033,20.588-52.895 c3.513-14.506,5.296-28.881,5.296-43.003C512,145.503,510.445,132.518,507.316,119.933z M51.909,485.324l-0.044,0.044l-2.272,1.748 l-2.071,0.603c-0.76-0.07-2.464-0.009-6.528-3.906l-1.932-1.896l-2.106-2.089l-8.022-8.005l-0.699-0.708 c-3.994-4.124-3.906-5.855-3.977-6.615l0.612-2.072l1.738-2.28l0.018-0.018c1.162-1.171,5.278-5.208,10.574-10.382l25.054,25.063 C57.073,480.09,53.054,484.214,51.909,485.324z M73.519,463.303l-1.625,1.66c-0.402,0.42-0.761,0.778-1.154,1.18l-24.87-24.879 c0.393-0.376,0.752-0.717,1.135-1.11c5.2-5.095,9.482-9.263,13.336-13.021l32.097,16.752 C87.72,448.717,81.576,455.036,73.519,463.303z M102.069,434.194l-0.682,0.681l-31.913-16.656c2.054-2.001,3.862-3.792,5.33-5.261 l2.901-2.91l0.079-0.078l0.044-0.043c5.243-5.409,10.189-11.064,14.89-16.857l26.478,26.486 C113.106,424.249,107.321,429.108,102.069,434.194z M483.136,195.978c-3.818,15.686-9.97,31.582-18.359,47.101 c-11.169,20.685-26.007,40.408-44.166,58.576c-26.426,26.408-57.902,44.838-90.489,54.713c-12.863,3.915-31.066,6.624-47.241,6.589 c-2.901,0.009-5.724-0.07-8.433-0.236l-0.288-0.027l-0.743-0.035l-0.909,0.062l-0.227,0.026h-0.087 c-34.737,3.207-67.926,11.613-98.599,24.993c-16.114,7.043-30.944,15.424-44.392,24.678l-29.117-29.126 c9.814-13.362,18.412-27.492,25.342-42.47c14.165-30.647,22.162-64.684,23.926-101.046l0.009-0.279v-0.577v-0.42l-0.026-0.393 c-0.236-3.443-0.341-6.904-0.341-10.364c0-4.841,0.227-9.674,0.673-14.436c4.029-43.169,25.412-86.627,60.69-121.905 c20.501-20.492,42.829-36.667,66.3-48.132c23.926-11.718,47.783-17.967,71.019-18.884l0.76-0.035l-0.717,0.035 c1.852-0.078,3.723-0.114,5.619-0.114c14.017,0,27.545,2.045,40.346,6.038c20.318,6.344,38.52,17.46,54.451,33.399l0.105,0.096 l0.157,0.149c17.547,17.565,29.746,38.957,35.374,61.799c2.639,10.661,3.968,21.646,3.968,32.954 C487.742,170.793,486.23,183.236,483.136,195.978z" style="fill: rgb(86, 86, 86); fill-opacity: 0.2;"/>
        <polygon class="st0" points="11.064,488.251 11.064,488.234 10.356,487.535 " style="fill: rgb(86, 86, 86); fill-opacity: 0.2;"/>
        <path class="st0" d="M177.528,334.686c-5.532-5.531-10.591-11.648-15.048-18.194l-2.683-3.923l-1.363,4.535 c-3.347,11.133-7.463,21.986-12.216,32.264c-5.112,11.063-11.16,21.864-17.95,32.088l3.084,3.172 c10.574-6.563,21.995-12.532,33.967-17.765c10.164-4.448,20.877-8.407,31.862-11.754l4.631-1.408l-4.054-2.647 C190.364,346.213,183.557,340.69,177.528,334.686z" style="fill: rgb(86, 86, 86); fill-opacity: 0.2;"/>
        <path class="st0" d="M318.351,53.922c0.035-0.009,0.07-0.009,0.096-0.018l1.478-0.358L318.351,53.922z" style="fill: rgb(86, 86, 86); fill-opacity: 0.2;"/>
        <path class="st0" d="M431.822,86.203v-0.358l-2.839-2.84c-14.717-14.716-32.238-24.826-51.646-29.642 c-8.922-2.237-18.124-3.32-27.518-3.312c-10.259,0-20.763,1.319-31.372,3.853l-0.122,0.035 c-13.519,3.286-27.046,8.582-40.251,15.704c-18.019,9.735-35.051,22.598-50.676,38.223c-22.58,22.598-38.878,49.312-46.97,77.486 c-3.792,13.186-5.698,26.416-5.706,39.35c0,13.187,2.001,26.05,6.038,38.188c5.356,16.088,14.165,30.419,26.05,42.312 c11.885,11.885,26.216,20.693,42.313,26.05l0.131,0.035c12.06,3.976,24.826,5.976,38.031,5.976c4.133,0,8.328-0.192,12.566-0.576 c37.524-3.53,74.384-22.178,104.296-52.091c17.591-17.574,31.626-36.859,41.631-57.299c9.831-20.064,15.319-40.4,16.088-60.358 c0.052-1.6,0.079-3.172,0.079-4.763c0-11.64-1.67-22.974-5.025-33.678C452.018,112.821,443.41,98.629,431.822,86.203z M438.403,134.282c1.862,5.943,2.866,12.226,3.47,18.658l-16.822,16.822l-37.375-37.384l31.38-31.39 C428.048,111.047,434.584,122.136,438.403,134.282z M254.086,173.405l35.471-35.462l37.384,37.385l-35.479,35.453L254.086,173.405z M282.575,219.677l-33.329,33.347l-37.367-37.384l33.321-33.337L282.575,219.677z M298.453,129.039l34.038-34.037l37.384,37.376 l-34.028,34.045L298.453,129.039z M335.846,184.206l37.366,37.394l-35.462,35.47l-37.375-37.392L335.846,184.206z M344.742,175.329 l34.037-34.038l37.367,37.376l-34.028,34.037L344.742,175.329z M357.587,69.914c5.13,0.402,10.181,1.066,15.058,2.272 c13.798,3.451,26.224,10.216,37.428,19.985l-31.294,31.31l-37.375-37.375L357.587,69.914z M339.604,70.088l-7.113,7.113 l-5.209-5.217C331.45,71.146,335.557,70.482,339.604,70.088z M287.294,86.709c8.651-4.666,17.364-8.074,26.033-10.87l10.267,10.268 l-34.046,34.028l-21.357-21.366C274.448,94.339,280.792,90.213,287.294,86.709z M241.118,121.594 c5.479-5.488,11.177-10.452,16.962-15.135l22.582,22.58L245.2,164.501l-21.978-21.986 C228.552,135.244,234.486,128.218,241.118,121.594z M199.077,190.708c3.678-12.846,9.42-25.499,16.944-37.576l20.274,20.273 l-33.33,33.33l-6.046-6.056C197.6,197.367,198.116,194.064,199.077,190.708z M199.164,256.763 c-2.516-7.602-3.784-15.712-4.412-24.022l8.214-8.232l37.385,37.385l-24.416,24.424 C208.558,277.667,202.878,267.862,199.164,256.763z M277.708,317.122c-7.76-0.7-15.346-1.949-22.476-4.291l-0.035-0.009 c-11.474-3.836-21.576-9.796-30.411-17.565l24.46-24.451l37.384,37.384L277.708,317.122z M295.141,317.498l0.385-0.403l0.358,0.359 C295.639,317.471,295.386,317.471,295.141,317.498z M295.526,299.286l-37.376-37.392l33.312-33.32l37.393,37.384L295.526,299.286z M311.526,315.278l-7.105-7.087l33.329-33.329l21.14,21.13C343.684,305.455,327.64,311.975,311.526,315.278z M390.419,270.886 c-6.641,6.65-13.65,12.636-20.902,17.949l-22.86-22.878l35.462-35.462l23.419,23.429C400.853,259.7,395.915,265.38,390.419,270.886 z M428.345,218.768c-4.177,8.564-9.272,16.927-15.065,25.08L391.022,221.6l34.028-34.038l11.238,11.238 C434.147,205.398,431.639,212.057,428.345,218.768z M440.011,184.731l-6.066-6.064l8.092-8.092 C441.671,175.241,440.981,179.968,440.011,184.731z" style="fill: rgb(86, 86, 86); fill-opacity: 0.2;"/>
        <path class="st0" d="M249.962,331.523l-0.708-0.235c-0.035,0-0.07-0.018-0.105-0.027L249.962,331.523z" style="fill: rgb(86, 86, 86); fill-opacity: 0.2;"/>
      </g>
    </g>
  </g>
  <g id="group-61" transform="matrix(1.929803, 0, 0, 1.929803, 632.498047, 636.787964)" style="">
    <path fill-rule="evenodd" clip-rule="evenodd" d="M22.9999 11.9998C22.9999 18.0749 18.075 22.9998 11.9999 22.9998C5.92478 22.9998 0.999908 18.0749 0.999908 11.9998C0.999908 5.92462 5.92478 0.999756 11.9999 0.999756C18.075 0.999756 22.9999 5.92462 22.9999 11.9998ZM3.00674 11.9998C3.00674 14.5875 4.09974 16.92 5.84927 18.5608C6.0769 18.2328 6.34676 17.808 6.61709 17.2997C7.31622 15.9851 8 14.1476 8 12C8 9.85239 7.31622 8.01489 6.61709 6.7003C6.34668 6.19183 6.07674 5.7669 5.84906 5.43891C4.09965 7.07965 3.00674 9.41207 3.00674 11.9998ZM11.9999 20.9929C10.3404 20.9929 8.78593 20.5434 7.45152 19.7596C7.72696 19.3672 8.05519 18.855 8.38291 18.2388C9.18378 16.7329 10 14.5704 10 12C10 9.42961 9.18378 7.26711 8.38291 5.7612C8.0551 5.14481 7.72676 4.6325 7.45127 4.24005C8.78574 3.45612 10.3403 3.00659 11.9999 3.00659C13.6595 3.00659 15.2142 3.45615 16.5487 4.24013C16.2732 4.63257 15.9449 5.14485 15.6171 5.7612C14.8162 7.26711 14 9.42961 14 12C14 14.5704 14.8162 16.7329 15.6171 18.2388C15.9448 18.855 16.273 19.3671 16.5484 19.7595C15.214 20.5434 13.6594 20.9929 11.9999 20.9929ZM18.1507 18.5607C19.9001 16.9199 20.9931 14.5875 20.9931 11.9998C20.9931 9.41213 19.9002 7.07975 18.1509 5.43901C17.9232 5.76699 17.6533 6.19189 17.3829 6.7003C16.6838 8.01489 16 9.85239 16 12C16 14.1476 16.6838 15.9851 17.3829 17.2997C17.6532 17.808 17.923 18.2328 18.1507 18.5607Z" style="fill: rgb(86, 86, 86); fill-opacity: 0.2;"/>
  </g>
  <text style="fill: rgb(86, 86, 86); fill-opacity: 0.2; font-family: Audiowide; font-size: 23.8px; white-space: pre;" x="132.124" y="814.152">BEC</text>
  <g id="group-36" transform="matrix(-0.497357, -1.171701, 1.171701, -0.497357, 151.505234, 767.117493)" style="transform-origin: 12.0017px 12.0017px;">
    <path d="M20.6881 16.5079C20.5832 16.4493 20.435 16.3627 20.2514 16.246C19.8844 16.0126 19.3751 15.6581 18.787 15.1643C17.6106 14.1765 16.1165 12.6292 14.816 10.3767C13.5156 8.12426 12.9226 6.05661 12.6553 4.54398C12.5217 3.78771 12.4694 3.16946 12.4508 2.73491C12.4415 2.51757 12.4406 2.34597 12.4422 2.22577C12.4431 2.16566 12.4495 2.04426 12.4508 2.01052C10.6072 1.9259 8.71856 2.35017 7.00167 3.34142C5.28578 4.33209 3.97456 5.75449 3.126 7.39219L3.31486 7.49547C3.41977 7.55415 3.56795 7.64072 3.75151 7.75744C4.11855 7.99083 4.6278 8.34528 5.21594 8.83912C6.39229 9.82688 7.88643 11.3743 9.18688 13.6267C10.4873 15.8792 11.0803 17.9468 11.3476 19.4594C11.4812 20.2157 11.5335 20.834 11.5521 21.2685C11.5614 21.4858 11.5623 21.6575 11.5607 21.7777V21.9932C13.4017 22.0762 15.2873 21.6517 17.0017 20.6619C18.7158 19.6723 20.0261 18.2518 20.8747 16.6162L20.6881 16.5079Z" style="fill: rgb(86, 86, 86); fill-opacity: 0.2;"/>
    <path d="M10.0598 21.8114C10.0611 21.7179 10.0615 21.5204 10.0535 21.3327C10.0374 20.9572 9.99142 20.4051 9.87046 19.7204C9.62854 18.3512 9.08739 16.4544 7.88784 14.3767C6.6883 12.299 5.31623 10.882 4.25137 9.98786C3.7189 9.54076 3.26381 9.2249 2.94663 9.02321C2.7881 8.9224 2.61686 8.82409 2.53523 8.77843C1.63973 11.4119 1.84135 14.4035 3.34142 17.0017C4.84147 19.5998 7.33139 21.2702 10.0598 21.8114Z" style="fill: rgb(86, 86, 86); fill-opacity: 0.2;"/>
    <path d="M13.9431 2.19181C13.9419 2.28533 13.9414 2.48305 13.9494 2.67075C13.9655 3.04627 14.0115 3.59833 14.1325 4.28301C14.3744 5.65227 14.9155 7.54903 16.1151 9.62671C17.3146 11.7044 18.6867 13.1214 19.7516 14.0156C20.284 14.4627 20.7391 14.7785 21.0563 14.9802C21.2148 15.081 21.3864 15.1795 21.468 15.2252C22.3636 12.5916 22.162 9.59995 20.6619 7.00167C19.1618 4.40337 16.6717 2.73296 13.9431 2.19181Z" style="fill: rgb(86, 86, 86); fill-opacity: 0.2;"/>
  </g>
  <g id="group-37" transform="matrix(0.694248, -0.857325, 0.857325, 0.694248, 176.003586, 757.817261)" style="transform-origin: 12.0017px 12.0017px;">
    <path d="M20.6881 16.5079C20.5832 16.4493 20.435 16.3627 20.2514 16.246C19.8844 16.0126 19.3751 15.6581 18.787 15.1643C17.6106 14.1765 16.1165 12.6292 14.816 10.3767C13.5156 8.12426 12.9226 6.05661 12.6553 4.54398C12.5217 3.78771 12.4694 3.16946 12.4508 2.73491C12.4415 2.51757 12.4406 2.34597 12.4422 2.22577C12.4431 2.16566 12.4495 2.04426 12.4508 2.01052C10.6072 1.9259 8.71856 2.35017 7.00167 3.34142C5.28578 4.33209 3.97456 5.75449 3.126 7.39219L3.31486 7.49547C3.41977 7.55415 3.56795 7.64072 3.75151 7.75744C4.11855 7.99083 4.6278 8.34528 5.21594 8.83912C6.39229 9.82688 7.88643 11.3743 9.18688 13.6267C10.4873 15.8792 11.0803 17.9468 11.3476 19.4594C11.4812 20.2157 11.5335 20.834 11.5521 21.2685C11.5614 21.4858 11.5623 21.6575 11.5607 21.7777V21.9932C13.4017 22.0762 15.2873 21.6517 17.0017 20.6619C18.7158 19.6723 20.0261 18.2518 20.8747 16.6162L20.6881 16.5079Z" style="fill: rgb(86, 86, 86); fill-opacity: 0.2;"/>
    <path d="M10.0598 21.8114C10.0611 21.7179 10.0615 21.5204 10.0535 21.3327C10.0374 20.9572 9.99142 20.4051 9.87046 19.7204C9.62854 18.3512 9.08739 16.4544 7.88784 14.3767C6.6883 12.299 5.31623 10.882 4.25137 9.98786C3.7189 9.54076 3.26381 9.2249 2.94663 9.02321C2.7881 8.9224 2.61686 8.82409 2.53523 8.77843C1.63973 11.4119 1.84135 14.4035 3.34142 17.0017C4.84147 19.5998 7.33139 21.2702 10.0598 21.8114Z" style="fill: rgb(86, 86, 86); fill-opacity: 0.2;"/>
    <path d="M13.9431 2.19181C13.9419 2.28533 13.9414 2.48305 13.9494 2.67075C13.9655 3.04627 14.0115 3.59833 14.1325 4.28301C14.3744 5.65227 14.9155 7.54903 16.1151 9.62671C17.3146 11.7044 18.6867 13.1214 19.7516 14.0156C20.284 14.4627 20.7391 14.7785 21.0563 14.9802C21.2148 15.081 21.3864 15.1795 21.468 15.2252C22.3636 12.5916 22.162 9.59995 20.6619 7.00167C19.1618 4.40337 16.6717 2.73296 13.9431 2.19181Z" style="fill: rgb(86, 86, 86); fill-opacity: 0.2;"/>
  </g>
  <g id="group-38" transform="matrix(0.905724, 0.225822, -0.225822, 0.905724, 192.534103, 773.440674)" style="transform-origin: 12.0017px 12.0017px;">
    <path d="M20.6881 16.5079C20.5832 16.4493 20.435 16.3627 20.2514 16.246C19.8844 16.0126 19.3751 15.6581 18.787 15.1643C17.6106 14.1765 16.1165 12.6292 14.816 10.3767C13.5156 8.12426 12.9226 6.05661 12.6553 4.54398C12.5217 3.78771 12.4694 3.16946 12.4508 2.73491C12.4415 2.51757 12.4406 2.34597 12.4422 2.22577C12.4431 2.16566 12.4495 2.04426 12.4508 2.01052C10.6072 1.9259 8.71856 2.35017 7.00167 3.34142C5.28578 4.33209 3.97456 5.75449 3.126 7.39219L3.31486 7.49547C3.41977 7.55415 3.56795 7.64072 3.75151 7.75744C4.11855 7.99083 4.6278 8.34528 5.21594 8.83912C6.39229 9.82688 7.88643 11.3743 9.18688 13.6267C10.4873 15.8792 11.0803 17.9468 11.3476 19.4594C11.4812 20.2157 11.5335 20.834 11.5521 21.2685C11.5614 21.4858 11.5623 21.6575 11.5607 21.7777V21.9932C13.4017 22.0762 15.2873 21.6517 17.0017 20.6619C18.7158 19.6723 20.0261 18.2518 20.8747 16.6162L20.6881 16.5079Z" style="fill: rgb(86, 86, 86); fill-opacity: 0.2;"/>
    <path d="M10.0598 21.8114C10.0611 21.7179 10.0615 21.5204 10.0535 21.3327C10.0374 20.9572 9.99142 20.4051 9.87046 19.7204C9.62854 18.3512 9.08739 16.4544 7.88784 14.3767C6.6883 12.299 5.31623 10.882 4.25137 9.98786C3.7189 9.54076 3.26381 9.2249 2.94663 9.02321C2.7881 8.9224 2.61686 8.82409 2.53523 8.77843C1.63973 11.4119 1.84135 14.4035 3.34142 17.0017C4.84147 19.5998 7.33139 21.2702 10.0598 21.8114Z" style="fill: rgb(86, 86, 86); fill-opacity: 0.2;"/>
    <path d="M13.9431 2.19181C13.9419 2.28533 13.9414 2.48305 13.9494 2.67075C13.9655 3.04627 14.0115 3.59833 14.1325 4.28301C14.3744 5.65227 14.9155 7.54903 16.1151 9.62671C17.3146 11.7044 18.6867 13.1214 19.7516 14.0156C20.284 14.4627 20.7391 14.7785 21.0563 14.9802C21.2148 15.081 21.3864 15.1795 21.468 15.2252C22.3636 12.5916 22.162 9.59995 20.6619 7.00167C19.1618 4.40337 16.6717 2.73296 13.9431 2.19181Z" style="fill: rgb(86, 86, 86); fill-opacity: 0.2;"/>
  </g>
  <g id="group-39" transform="matrix(0.054755, 0.783036, -0.783036, 0.054755, 185.436874, 793.447388)" style="transform-origin: 12.0017px 12.0017px;">
    <path d="M20.6881 16.5079C20.5832 16.4493 20.435 16.3627 20.2514 16.246C19.8844 16.0126 19.3751 15.6581 18.787 15.1643C17.6106 14.1765 16.1165 12.6292 14.816 10.3767C13.5156 8.12426 12.9226 6.05661 12.6553 4.54398C12.5217 3.78771 12.4694 3.16946 12.4508 2.73491C12.4415 2.51757 12.4406 2.34597 12.4422 2.22577C12.4431 2.16566 12.4495 2.04426 12.4508 2.01052C10.6072 1.9259 8.71856 2.35017 7.00167 3.34142C5.28578 4.33209 3.97456 5.75449 3.126 7.39219L3.31486 7.49547C3.41977 7.55415 3.56795 7.64072 3.75151 7.75744C4.11855 7.99083 4.6278 8.34528 5.21594 8.83912C6.39229 9.82688 7.88643 11.3743 9.18688 13.6267C10.4873 15.8792 11.0803 17.9468 11.3476 19.4594C11.4812 20.2157 11.5335 20.834 11.5521 21.2685C11.5614 21.4858 11.5623 21.6575 11.5607 21.7777V21.9932C13.4017 22.0762 15.2873 21.6517 17.0017 20.6619C18.7158 19.6723 20.0261 18.2518 20.8747 16.6162L20.6881 16.5079Z" style="fill: rgb(86, 86, 86); fill-opacity: 0.2;"/>
    <path d="M10.0598 21.8114C10.0611 21.7179 10.0615 21.5204 10.0535 21.3327C10.0374 20.9572 9.99142 20.4051 9.87046 19.7204C9.62854 18.3512 9.08739 16.4544 7.88784 14.3767C6.6883 12.299 5.31623 10.882 4.25137 9.98786C3.7189 9.54076 3.26381 9.2249 2.94663 9.02321C2.7881 8.9224 2.61686 8.82409 2.53523 8.77843C1.63973 11.4119 1.84135 14.4035 3.34142 17.0017C4.84147 19.5998 7.33139 21.2702 10.0598 21.8114Z" style="fill: rgb(86, 86, 86); fill-opacity: 0.2;"/>
    <path d="M13.9431 2.19181C13.9419 2.28533 13.9414 2.48305 13.9494 2.67075C13.9655 3.04627 14.0115 3.59833 14.1325 4.28301C14.3744 5.65227 14.9155 7.54903 16.1151 9.62671C17.3146 11.7044 18.6867 13.1214 19.7516 14.0156C20.284 14.4627 20.7391 14.7785 21.0563 14.9802C21.2148 15.081 21.3864 15.1795 21.468 15.2252C22.3636 12.5916 22.162 9.59995 20.6619 7.00167C19.1618 4.40337 16.6717 2.73296 13.9431 2.19181Z" style="fill: rgb(86, 86, 86); fill-opacity: 0.2;"/>
  </g>
  <text style="fill: rgb(86, 86, 86); fill-opacity: 0.2; font-family: Audiowide; font-size: 23.8px; white-space: pre;" x="207.126" y="814.167">ME</text>
  <g id="group-62" transform="matrix(1.929803, 0, 0, 1.929803, 54.738712, 55.614922)" style="">
    <path fill-rule="evenodd" clip-rule="evenodd" d="M22.9999 11.9998C22.9999 18.0749 18.075 22.9998 11.9999 22.9998C5.92478 22.9998 0.999908 18.0749 0.999908 11.9998C0.999908 5.92462 5.92478 0.999756 11.9999 0.999756C18.075 0.999756 22.9999 5.92462 22.9999 11.9998ZM3.00674 11.9998C3.00674 14.5875 4.09974 16.92 5.84927 18.5608C6.0769 18.2328 6.34676 17.808 6.61709 17.2997C7.31622 15.9851 8 14.1476 8 12C8 9.85239 7.31622 8.01489 6.61709 6.7003C6.34668 6.19183 6.07674 5.7669 5.84906 5.43891C4.09965 7.07965 3.00674 9.41207 3.00674 11.9998ZM11.9999 20.9929C10.3404 20.9929 8.78593 20.5434 7.45152 19.7596C7.72696 19.3672 8.05519 18.855 8.38291 18.2388C9.18378 16.7329 10 14.5704 10 12C10 9.42961 9.18378 7.26711 8.38291 5.7612C8.0551 5.14481 7.72676 4.6325 7.45127 4.24005C8.78574 3.45612 10.3403 3.00659 11.9999 3.00659C13.6595 3.00659 15.2142 3.45615 16.5487 4.24013C16.2732 4.63257 15.9449 5.14485 15.6171 5.7612C14.8162 7.26711 14 9.42961 14 12C14 14.5704 14.8162 16.7329 15.6171 18.2388C15.9448 18.855 16.273 19.3671 16.5484 19.7595C15.214 20.5434 13.6594 20.9929 11.9999 20.9929ZM18.1507 18.5607C19.9001 16.9199 20.9931 14.5875 20.9931 11.9998C20.9931 9.41213 19.9002 7.07975 18.1509 5.43901C17.9232 5.76699 17.6533 6.19189 17.3829 6.7003C16.6838 8.01489 16 9.85239 16 12C16 14.1476 16.6838 15.9851 17.3829 17.2997C17.6532 17.808 17.923 18.2328 18.1507 18.5607Z" style="fill: rgb(86, 86, 86); fill-opacity: 0.2;"/>
  </g>
  <g id="group-63" style="" transform="matrix(0.144586, 0, 0, 0.144586, 568.68689, 50.648346)">
    <g id="group-64" stroke-width="0" transform="matrix(1, 0, 0, 1, 344.874847, -61.2724)"/>
    <g id="group-65" stroke-linecap="round" stroke-linejoin="round" transform="matrix(1, 0, 0, 1, 344.874847, -61.2724)"/>
    <g id="group-66" transform="matrix(1, 0, 0, 1, 344.874847, -61.2724)">
      <g>
        <path class="st0" d="M507.316,119.933c-6.746-27.334-21.252-52.624-41.815-73.186l-0.105-0.105l-0.088-0.079 c-0.008-0.017-0.026-0.026-0.035-0.035l-0.235-0.227l-0.009,0.009c-18.43-18.395-40.11-31.669-64.116-39.158 c-15.196-4.736-31.188-7.139-47.573-7.139c-2.184,0-4.404,0.043-6.658,0.14l-0.761,0.026l0.804-0.026 c-26.95,1.04-54.145,8.301-80.728,21.322c-26.102,12.75-50.579,30.577-72.784,52.773c-38.817,38.834-63.015,87.22-67.698,136.786 c-0.515,5.532-0.778,11.124-0.778,16.708c0,3.688,0.149,7.366,0.367,11.063c-1.643,33.478-8.966,64.291-21.698,91.826 c-10.539,22.826-24.975,43.772-42.916,62.325l-2.866,2.875c-4.885,4.902-13.782,13.466-27.571,26.985 c-9.928,9.7-18.421,18.002-20.615,20.204c-1.738,1.748-3.95,4.282-5.881,7.839c-1.923,3.521-3.557,8.188-3.557,13.641 c-0.079,7.995,3.775,16.595,11.063,23.734l19.479,19.479l0.822-0.83c5.261,3.304,10.828,5.156,16.158,5.103 c5.47,0,10.137-1.643,13.649-3.565c3.548-1.94,6.091-4.142,7.848-5.899c2.281-2.263,10.487-10.687,20.187-20.57l0.017-0.009 c13.406-13.72,21.908-22.555,26.871-27.509l2.928-2.884l-0.061,0.053c16.341-15.878,38.668-30.446,64.325-41.631 c28.112-12.242,58.602-20.012,90.725-23.017c2.919,0.166,5.881,0.262,8.87,0.27c18.771-0.035,38.538-2.91,54.268-7.637 c36.458-11.037,71.369-31.538,100.616-60.786c19.688-19.706,35.977-41.273,48.351-64.195c9.315-17.241,16.254-35.033,20.588-52.895 c3.513-14.506,5.296-28.881,5.296-43.003C512,145.503,510.445,132.518,507.316,119.933z M51.909,485.324l-0.044,0.044l-2.272,1.748 l-2.071,0.603c-0.76-0.07-2.464-0.009-6.528-3.906l-1.932-1.896l-2.106-2.089l-8.022-8.005l-0.699-0.708 c-3.994-4.124-3.906-5.855-3.977-6.615l0.612-2.072l1.738-2.28l0.018-0.018c1.162-1.171,5.278-5.208,10.574-10.382l25.054,25.063 C57.073,480.09,53.054,484.214,51.909,485.324z M73.519,463.303l-1.625,1.66c-0.402,0.42-0.761,0.778-1.154,1.18l-24.87-24.879 c0.393-0.376,0.752-0.717,1.135-1.11c5.2-5.095,9.482-9.263,13.336-13.021l32.097,16.752 C87.72,448.717,81.576,455.036,73.519,463.303z M102.069,434.194l-0.682,0.681l-31.913-16.656c2.054-2.001,3.862-3.792,5.33-5.261 l2.901-2.91l0.079-0.078l0.044-0.043c5.243-5.409,10.189-11.064,14.89-16.857l26.478,26.486 C113.106,424.249,107.321,429.108,102.069,434.194z M483.136,195.978c-3.818,15.686-9.97,31.582-18.359,47.101 c-11.169,20.685-26.007,40.408-44.166,58.576c-26.426,26.408-57.902,44.838-90.489,54.713c-12.863,3.915-31.066,6.624-47.241,6.589 c-2.901,0.009-5.724-0.07-8.433-0.236l-0.288-0.027l-0.743-0.035l-0.909,0.062l-0.227,0.026h-0.087 c-34.737,3.207-67.926,11.613-98.599,24.993c-16.114,7.043-30.944,15.424-44.392,24.678l-29.117-29.126 c9.814-13.362,18.412-27.492,25.342-42.47c14.165-30.647,22.162-64.684,23.926-101.046l0.009-0.279v-0.577v-0.42l-0.026-0.393 c-0.236-3.443-0.341-6.904-0.341-10.364c0-4.841,0.227-9.674,0.673-14.436c4.029-43.169,25.412-86.627,60.69-121.905 c20.501-20.492,42.829-36.667,66.3-48.132c23.926-11.718,47.783-17.967,71.019-18.884l0.76-0.035l-0.717,0.035 c1.852-0.078,3.723-0.114,5.619-0.114c14.017,0,27.545,2.045,40.346,6.038c20.318,6.344,38.52,17.46,54.451,33.399l0.105,0.096 l0.157,0.149c17.547,17.565,29.746,38.957,35.374,61.799c2.639,10.661,3.968,21.646,3.968,32.954 C487.742,170.793,486.23,183.236,483.136,195.978z" style="fill: rgb(86, 86, 86); fill-opacity: 0.2;"/>
        <polygon class="st0" points="11.064,488.251 11.064,488.234 10.356,487.535 " style="fill: rgb(86, 86, 86); fill-opacity: 0.2;"/>
        <path class="st0" d="M177.528,334.686c-5.532-5.531-10.591-11.648-15.048-18.194l-2.683-3.923l-1.363,4.535 c-3.347,11.133-7.463,21.986-12.216,32.264c-5.112,11.063-11.16,21.864-17.95,32.088l3.084,3.172 c10.574-6.563,21.995-12.532,33.967-17.765c10.164-4.448,20.877-8.407,31.862-11.754l4.631-1.408l-4.054-2.647 C190.364,346.213,183.557,340.69,177.528,334.686z" style="fill: rgb(86, 86, 86); fill-opacity: 0.2;"/>
        <path class="st0" d="M318.351,53.922c0.035-0.009,0.07-0.009,0.096-0.018l1.478-0.358L318.351,53.922z" style="fill: rgb(86, 86, 86); fill-opacity: 0.2;"/>
        <path class="st0" d="M431.822,86.203v-0.358l-2.839-2.84c-14.717-14.716-32.238-24.826-51.646-29.642 c-8.922-2.237-18.124-3.32-27.518-3.312c-10.259,0-20.763,1.319-31.372,3.853l-0.122,0.035 c-13.519,3.286-27.046,8.582-40.251,15.704c-18.019,9.735-35.051,22.598-50.676,38.223c-22.58,22.598-38.878,49.312-46.97,77.486 c-3.792,13.186-5.698,26.416-5.706,39.35c0,13.187,2.001,26.05,6.038,38.188c5.356,16.088,14.165,30.419,26.05,42.312 c11.885,11.885,26.216,20.693,42.313,26.05l0.131,0.035c12.06,3.976,24.826,5.976,38.031,5.976c4.133,0,8.328-0.192,12.566-0.576 c37.524-3.53,74.384-22.178,104.296-52.091c17.591-17.574,31.626-36.859,41.631-57.299c9.831-20.064,15.319-40.4,16.088-60.358 c0.052-1.6,0.079-3.172,0.079-4.763c0-11.64-1.67-22.974-5.025-33.678C452.018,112.821,443.41,98.629,431.822,86.203z M438.403,134.282c1.862,5.943,2.866,12.226,3.47,18.658l-16.822,16.822l-37.375-37.384l31.38-31.39 C428.048,111.047,434.584,122.136,438.403,134.282z M254.086,173.405l35.471-35.462l37.384,37.385l-35.479,35.453L254.086,173.405z M282.575,219.677l-33.329,33.347l-37.367-37.384l33.321-33.337L282.575,219.677z M298.453,129.039l34.038-34.037l37.384,37.376 l-34.028,34.045L298.453,129.039z M335.846,184.206l37.366,37.394l-35.462,35.47l-37.375-37.392L335.846,184.206z M344.742,175.329 l34.037-34.038l37.367,37.376l-34.028,34.037L344.742,175.329z M357.587,69.914c5.13,0.402,10.181,1.066,15.058,2.272 c13.798,3.451,26.224,10.216,37.428,19.985l-31.294,31.31l-37.375-37.375L357.587,69.914z M339.604,70.088l-7.113,7.113 l-5.209-5.217C331.45,71.146,335.557,70.482,339.604,70.088z M287.294,86.709c8.651-4.666,17.364-8.074,26.033-10.87l10.267,10.268 l-34.046,34.028l-21.357-21.366C274.448,94.339,280.792,90.213,287.294,86.709z M241.118,121.594 c5.479-5.488,11.177-10.452,16.962-15.135l22.582,22.58L245.2,164.501l-21.978-21.986 C228.552,135.244,234.486,128.218,241.118,121.594z M199.077,190.708c3.678-12.846,9.42-25.499,16.944-37.576l20.274,20.273 l-33.33,33.33l-6.046-6.056C197.6,197.367,198.116,194.064,199.077,190.708z M199.164,256.763 c-2.516-7.602-3.784-15.712-4.412-24.022l8.214-8.232l37.385,37.385l-24.416,24.424 C208.558,277.667,202.878,267.862,199.164,256.763z M277.708,317.122c-7.76-0.7-15.346-1.949-22.476-4.291l-0.035-0.009 c-11.474-3.836-21.576-9.796-30.411-17.565l24.46-24.451l37.384,37.384L277.708,317.122z M295.141,317.498l0.385-0.403l0.358,0.359 C295.639,317.471,295.386,317.471,295.141,317.498z M295.526,299.286l-37.376-37.392l33.312-33.32l37.393,37.384L295.526,299.286z M311.526,315.278l-7.105-7.087l33.329-33.329l21.14,21.13C343.684,305.455,327.64,311.975,311.526,315.278z M390.419,270.886 c-6.641,6.65-13.65,12.636-20.902,17.949l-22.86-22.878l35.462-35.462l23.419,23.429C400.853,259.7,395.915,265.38,390.419,270.886 z M428.345,218.768c-4.177,8.564-9.272,16.927-15.065,25.08L391.022,221.6l34.028-34.038l11.238,11.238 C434.147,205.398,431.639,212.057,428.345,218.768z M440.011,184.731l-6.066-6.064l8.092-8.092 C441.671,175.241,440.981,179.968,440.011,184.731z" style="fill: rgb(86, 86, 86); fill-opacity: 0.2;"/>
        <path class="st0" d="M249.962,331.523l-0.708-0.235c-0.035,0-0.07-0.018-0.105-0.027L249.962,331.523z" style="fill: rgb(86, 86, 86); fill-opacity: 0.2;"/>
      </g>
    </g>
  </g>
  <g id="group-67" stroke-width="0" transform="matrix(1, 0, 0, 1, 338.100006, 180)"/>
  <g id="group-68" stroke-linecap="round" stroke-linejoin="round" transform="matrix(1, 0, 0, 1, 338.100006, 180)"/>
  <g id="group-70" stroke-width="0" transform="matrix(2.087331, 0, 0, 2.087331, 376.124054, 51.982899)" style=""/>
  <g id="group-71" stroke-linecap="round" stroke-linejoin="round" transform="matrix(2.087331, 0, 0, 2.087331, 376.124054, 51.982899)" style=""/>
  <g id="svg-2" style="transform-origin: 566.369px 124.818px;" transform="matrix(-0.110923, -0.042579, -0.042579, 0.110923, -183.972473, -53.710949)">
    <g id="group-72" stroke-width="0" transform="matrix(1, 0, 0, 1, 310.369263, -131.181076)"/>
    <g id="group-73" stroke-linecap="round" stroke-linejoin="round" transform="matrix(1, 0, 0, 1, 310.369263, -131.181076)"/>
    <g id="group-74" transform="matrix(1, 0, 0, 1, 310.369263, -131.181076)">
      <g>
        <g/>
      </g>
    </g>
  </g>
  <g id="group-69" stroke-width="0" transform="matrix(2.187509, 0, 0, 2.187509, 314.461548, 51.874805)" style=""/>
  <g id="group-75" stroke-linecap="round" stroke-linejoin="round" transform="matrix(2.187509, 0, 0, 2.187509, 314.461548, 51.874805)" style=""/>
  <g id="group-76" transform="matrix(2.187509, 0, 0, 2.187509, 311.558746, 51.874802)" style="">
    <path d="M10,10a1,1,0,1,0-1,1A1,1,0,0,0,10,10Zm4.5,4.06a1,1,0,0,0-1.37.36,1.3,1.3,0,0,1-2.26,0,1,1,0,0,0-1.37-.36,1,1,0,0,0-.37,1.36,3.31,3.31,0,0,0,5.74,0A1,1,0,0,0,14.5,14.06ZM15,9a1,1,0,1,0,1,1A1,1,0,0,0,15,9ZM12,2A10,10,0,1,0,22,12,10,10,0,0,0,12,2Zm0,18A8,8,0,0,1,9,4.57,3,3,0,0,0,9,5a3,3,0,0,0,3,3,1,1,0,0,0,0-2,1,1,0,0,1,0-2,8,8,0,0,1,0,16Z" style="fill: rgb(86, 86, 86); fill-opacity: 0.2;"/>
  </g>
</svg>