<?xml version="1.0" encoding="utf-8"?>
<svg xmlns="http://www.w3.org/2000/svg" viewBox="0 0 500 200">
  <defs>
    <clipPath id="clip-14">
      <rect x="0" width="78" y="0" height="123"/>
    </clipPath>
    <clipPath id="clip-15">
      <path d="M 690.839844 557 L 742.589844 557 L 742.589844 598 L 690.839844 598 Z M 690.839844 557 " clip-rule="nonzero"/>
    </clipPath>
    <clipPath id="clip-16">
      <path d="M 694 579 L 729 579 L 729 602.523438 L 694 602.523438 Z M 694 579 " clip-rule="nonzero"/>
    </clipPath>
    <clipPath id="clip-17">
      <path d="M 702 550.773438 L 734 550.773438 L 734 561 L 702 561 Z M 702 550.773438 " clip-rule="nonzero"/>
    </clipPath>
    <clipPath id="clip-18">
      <path d="M 647 535 L 690 535 L 690 571 L 647 571 Z M 647 535 " clip-rule="nonzero"/>
    </clipPath>
    <clipPath id="clip-19">
      <path d="M 672.515625 525.140625 L 698.097656 558.449219 L 664.789062 584.035156 L 639.207031 550.722656 Z M 672.515625 525.140625 " clip-rule="nonzero"/>
    </clipPath>
    <clipPath id="clip-20">
      <path d="M 672.515625 525.140625 L 698.097656 558.449219 L 664.789062 584.035156 L 639.207031 550.722656 Z M 672.515625 525.140625 " clip-rule="nonzero"/>
    </clipPath>
    <clipPath id="clip-21">
      <path d="M 658 558 L 688 558 L 688 576 L 658 576 Z M 658 558 " clip-rule="nonzero"/>
    </clipPath>
    <clipPath id="clip-22">
      <path d="M 672.515625 525.140625 L 698.097656 558.449219 L 664.789062 584.035156 L 639.207031 550.722656 Z M 672.515625 525.140625 " clip-rule="nonzero"/>
    </clipPath>
    <clipPath id="clip-23">
      <path d="M 672.515625 525.140625 L 698.097656 558.449219 L 664.789062 584.035156 L 639.207031 550.722656 Z M 672.515625 525.140625 " clip-rule="nonzero"/>
    </clipPath>
    <clipPath id="clip-24">
      <path d="M 649 533 L 671 533 L 671 548 L 649 548 Z M 649 533 " clip-rule="nonzero"/>
    </clipPath>
    <clipPath id="clip-25">
      <path d="M 672.515625 525.140625 L 698.097656 558.449219 L 664.789062 584.035156 L 639.207031 550.722656 Z M 672.515625 525.140625 " clip-rule="nonzero"/>
    </clipPath>
    <clipPath id="clip-26">
      <path d="M 672.515625 525.140625 L 698.097656 558.449219 L 664.789062 584.035156 L 639.207031 550.722656 Z M 672.515625 525.140625 " clip-rule="nonzero"/>
    </clipPath>
    <clipPath id="clip-27">
      <path d="M 647 498 L 679 498 L 679 529 L 647 529 Z M 647 498 " clip-rule="nonzero"/>
    </clipPath>
    <clipPath id="clip-28">
      <path d="M 657.417969 492.277344 L 684.484375 508.390625 L 668.371094 535.457031 L 641.304688 519.34375 Z M 657.417969 492.277344 " clip-rule="nonzero"/>
    </clipPath>
    <clipPath id="clip-29">
      <path d="M 657.417969 492.277344 L 684.484375 508.390625 L 668.371094 535.457031 L 641.304688 519.34375 Z M 657.417969 492.277344 " clip-rule="nonzero"/>
    </clipPath>
    <clipPath id="clip-30">
      <path d="M 659 514 L 679 514 L 679 530 L 659 530 Z M 659 514 " clip-rule="nonzero"/>
    </clipPath>
    <clipPath id="clip-31">
      <path d="M 657.417969 492.277344 L 684.484375 508.390625 L 668.371094 535.457031 L 641.304688 519.34375 Z M 657.417969 492.277344 " clip-rule="nonzero"/>
    </clipPath>
    <clipPath id="clip-32">
      <path d="M 657.417969 492.277344 L 684.484375 508.390625 L 668.371094 535.457031 L 641.304688 519.34375 Z M 657.417969 492.277344 " clip-rule="nonzero"/>
    </clipPath>
    <clipPath id="clip-33">
      <path d="M 647 498 L 659 498 L 659 514 L 647 514 Z M 647 498 " clip-rule="nonzero"/>
    </clipPath>
    <clipPath id="clip-34">
      <path d="M 657.417969 492.277344 L 684.484375 508.390625 L 668.371094 535.457031 L 641.304688 519.34375 Z M 657.417969 492.277344 " clip-rule="nonzero"/>
    </clipPath>
    <clipPath id="clip-35">
      <path d="M 657.417969 492.277344 L 684.484375 508.390625 L 668.371094 535.457031 L 641.304688 519.34375 Z M 657.417969 492.277344 " clip-rule="nonzero"/>
    </clipPath>
    <clipPath id="clip-36">
      <path d="M 664 473 L 685 473 L 685 498 L 664 498 Z M 664 473 " clip-rule="nonzero"/>
    </clipPath>
    <clipPath id="clip-37">
      <path d="M 664.234375 471.359375 L 687.964844 474.949219 L 684.378906 498.679688 L 660.648438 495.089844 Z M 664.234375 471.359375 " clip-rule="nonzero"/>
    </clipPath>
    <clipPath id="clip-38">
      <path d="M 664.234375 471.359375 L 687.964844 474.949219 L 684.378906 498.679688 L 660.648438 495.089844 Z M 664.234375 471.359375 " clip-rule="nonzero"/>
    </clipPath>
    <clipPath id="clip-39">
      <path d="M 674 481 L 687 481 L 687 497 L 674 497 Z M 674 481 " clip-rule="nonzero"/>
    </clipPath>
    <clipPath id="clip-40">
      <path d="M 664.234375 471.359375 L 687.964844 474.949219 L 684.378906 498.679688 L 660.648438 495.089844 Z M 664.234375 471.359375 " clip-rule="nonzero"/>
    </clipPath>
    <clipPath id="clip-41">
      <path d="M 664.234375 471.359375 L 687.964844 474.949219 L 684.378906 498.679688 L 660.648438 495.089844 Z M 664.234375 471.359375 " clip-rule="nonzero"/>
    </clipPath>
    <clipPath id="clip-42">
      <path d="M 662 475 L 668 475 L 668 490 L 662 490 Z M 662 475 " clip-rule="nonzero"/>
    </clipPath>
    <clipPath id="clip-43">
      <path d="M 664.234375 471.359375 L 687.964844 474.949219 L 684.378906 498.679688 L 660.648438 495.089844 Z M 664.234375 471.359375 " clip-rule="nonzero"/>
    </clipPath>
    <clipPath id="clip-44">
      <path d="M 664.234375 471.359375 L 687.964844 474.949219 L 684.378906 498.679688 L 660.648438 495.089844 Z M 664.234375 471.359375 " clip-rule="nonzero"/>
    </clipPath>
    <clipPath id="clip-45">
      <rect x="0" width="78" y="0" height="96"/>
    </clipPath>
  </defs>
  <g transform="matrix(1, 0, 0, 1, -502.675369, -2.249649)">
    <g transform="matrix(0, -1.38586, 1.38586, 0, 565.321001, 125.617664)">
      <g clip-path="url(#clip-14)">
        <g fill="#eff8ff" fill-opacity="1">
          <g transform="translate(22.363788, 0.191699)">
            <g>
              <path d="M 50.546875 3.671875 L 50.546875 19.359375 C 50.546875 24.097656 49.535156 27.875 47.515625 30.6875 C 45.492188 33.507812 42.210938 34.921875 37.671875 34.921875 C 32.609375 34.921875 28.992188 32.816406 26.828125 28.609375 C 25.566406 35.796875 21.320312 39.390625 14.09375 39.390625 C 9.84375 39.390625 6.429688 37.921875 3.859375 34.984375 C 1.285156 32.046875 0 28.003906 0 22.859375 L 0 3.671875 Z M 30.75 15.1875 L 30.75 16.109375 C 30.75 18.679688 31.195312 20.597656 32.09375 21.859375 C 33 23.128906 34.472656 23.765625 36.515625 23.765625 C 39.941406 23.765625 41.65625 21.210938 41.65625 16.109375 L 41.65625 15.1875 Z M 8.890625 15.1875 L 8.890625 18.8125 C 8.890625 24.445312 10.765625 27.265625 14.515625 27.265625 C 16.765625 27.265625 18.378906 26.554688 19.359375 25.140625 C 20.335938 23.734375 20.828125 21.625 20.828125 18.8125 L 20.828125 15.1875 Z M 8.890625 15.1875 " style="fill: rgb(0, 0, 0);"/>
            </g>
          </g>
        </g>
        <g fill="#eff8ff" fill-opacity="1">
          <g transform="translate(22.363788, 40.99866)">
            <g>
              <path d="M 50.546875 32.59375 L 40.4375 32.59375 L 40.4375 15.1875 L 30.390625 15.1875 L 30.390625 31.859375 L 20.28125 31.859375 L 20.28125 15.1875 L 10.109375 15.1875 L 10.109375 32.59375 L 0 32.59375 L 0 3.671875 L 50.546875 3.671875 Z M 50.546875 32.59375 " style="fill: rgb(0, 0, 0);"/>
            </g>
          </g>
        </g>
        <g fill="#eff8ff" fill-opacity="1">
          <g transform="translate(22.363788, 76.536268)">
            <g>
              <path d="M 10.421875 30.578125 C 10.421875 32.328125 10.6875 34.03125 11.21875 35.6875 C 11.75 37.34375 12.257812 38.554688 12.75 39.328125 L 13.546875 40.5 L 3.734375 45.390625 C 3.609375 45.234375 3.441406 45.007812 3.234375 44.71875 C 3.035156 44.4375 2.660156 43.773438 2.109375 42.734375 C 1.554688 41.691406 1.078125 40.578125 0.671875 39.390625 C 0.265625 38.203125 -0.0976562 36.648438 -0.421875 34.734375 C -0.753906 32.816406 -0.921875 30.835938 -0.921875 28.796875 C -0.921875 24.097656 0.226562 19.644531 2.53125 15.4375 C 4.84375 11.226562 8.019531 7.835938 12.0625 5.265625 C 16.113281 2.691406 20.488281 1.40625 25.1875 1.40625 C 28.738281 1.40625 32.144531 2.160156 35.40625 3.671875 C 38.675781 5.179688 41.472656 7.191406 43.796875 9.703125 C 46.128906 12.222656 47.988281 15.15625 49.375 18.5 C 50.769531 21.851562 51.46875 25.285156 51.46875 28.796875 C 51.46875 32.066406 51.078125 35.078125 50.296875 37.828125 C 49.523438 40.585938 48.75 42.539062 47.96875 43.6875 L 46.8125 45.390625 L 37 40.5 C 37.25 40.207031 37.546875 39.773438 37.890625 39.203125 C 38.234375 38.640625 38.691406 37.5 39.265625 35.78125 C 39.835938 34.0625 40.125 32.328125 40.125 30.578125 C 40.125 27.796875 39.675781 25.300781 38.78125 23.09375 C 37.882812 20.882812 36.695312 19.132812 35.21875 17.84375 C 33.75 16.5625 32.164062 15.582031 30.46875 14.90625 C 28.78125 14.238281 27.054688 13.90625 25.296875 13.90625 C 21.460938 13.90625 18.023438 15.34375 14.984375 18.21875 C 11.941406 21.101562 10.421875 25.222656 10.421875 30.578125 Z M 10.421875 30.578125 " style="fill: rgb(0, 0, 0);"/>
            </g>
          </g>
        </g>
      </g>
    </g>
    <g clip-path="url(#clip-15)" transform="matrix(0, -1.38586, 1.38586, 0, -23.669514, 1051.372224)">
      <path d="M 694.972656 578.292969 C 697.695312 576.21875 701.230469 575.242188 704.953125 575.238281 C 708.980469 575.242188 713.277344 576.390625 717.128906 578.773438 C 720.980469 581.15625 724.378906 584.800781 726.484375 589.71875 C 727.652344 592.445312 728.878906 594.25 730.058594 595.429688 C 730.960938 596.320312 731.824219 596.875 732.707031 597.230469 C 733.300781 596.761719 733.878906 596.269531 734.4375 595.742188 C 743.371094 587.304688 745 574.042969 739.128906 563.835938 C 738.589844 563.460938 738.039062 563.109375 737.476562 562.804688 C 735.667969 561.832031 733.769531 561.257812 731.71875 561.257812 C 729.96875 561.257812 728.074219 561.671875 725.957031 562.726562 C 722.800781 564.300781 719.09375 565.085938 715.398438 565.089844 C 712.246094 565.089844 709.09375 564.515625 706.304688 563.253906 C 703.519531 562 701.066406 560.011719 699.566406 557.21875 C 699.546875 557.1875 699.53125 557.152344 699.515625 557.117188 C 699.226562 557.367188 698.941406 557.621094 698.664062 557.882812 C 691.570312 564.585938 689.082031 574.324219 691.292969 583.160156 C 691.417969 582.839844 691.542969 582.523438 691.695312 582.21875 C 692.480469 580.648438 693.621094 579.328125 694.972656 578.292969 Z M 694.972656 578.292969 " fill-opacity="1" fill-rule="nonzero" style=""/>
    </g>
    <g clip-path="url(#clip-16)" transform="matrix(0, -1.38586, 1.38586, 0, -23.669514, 1051.372224)">
      <path d="M 728.832031 599.78125 C 727.667969 598.953125 726.558594 597.871094 725.539062 596.484375 C 724.511719 595.089844 723.5625 593.398438 722.683594 591.347656 C 720.914062 587.230469 718.132812 584.261719 714.953125 582.289062 C 711.777344 580.316406 708.191406 579.371094 704.953125 579.371094 C 702.707031 579.371094 700.636719 579.828125 698.992188 580.644531 C 697.339844 581.46875 696.125 582.613281 695.394531 584.070312 C 694.90625 585.046875 694.621094 586.183594 694.617188 587.558594 C 694.617188 588.894531 694.921875 590.472656 695.589844 592.261719 C 696.214844 593.105469 696.886719 593.921875 697.621094 594.699219 C 705.875 603.433594 718.726562 605.191406 728.832031 599.78125 Z M 728.832031 599.78125 " fill-opacity="1" fill-rule="nonzero" style=""/>
    </g>
    <g clip-path="url(#clip-17)" transform="matrix(0, -1.38586, 1.38586, 0, -23.669514, 1051.372224)">
      <path d="M 715.398438 560.957031 C 718.496094 560.960938 721.636719 560.269531 724.109375 559.03125 C 726.730469 557.71875 729.296875 557.121094 731.71875 557.125 C 732.421875 557.125 733.101562 557.1875 733.773438 557.28125 C 725.128906 549.648438 712.542969 548.691406 702.914062 554.621094 C 703.007812 554.835938 703.097656 555.054688 703.207031 555.261719 C 703.871094 556.496094 704.824219 557.523438 706.027344 558.367188 C 708.425781 560.0625 711.867188 560.964844 715.398438 560.957031 Z M 715.398438 560.957031 " fill-opacity="1" fill-rule="nonzero" style=""/>
    </g>
    <g clip-path="url(#clip-18)" transform="matrix(0, -1.38586, 1.38586, 0, -23.669514, 1051.372224)">
      <g clip-path="url(#clip-19)">
        <g clip-path="url(#clip-20)">
          <path d="M 655.714844 565.800781 C 656.429688 563.160156 658.195312 560.816406 660.558594 559 C 663.113281 557.039062 666.398438 555.675781 670.003906 555.308594 C 673.609375 554.945312 677.539062 555.601562 681.273438 557.695312 C 683.34375 558.855469 685 559.40625 686.324219 559.578125 C 687.332031 559.703125 688.148438 559.632812 688.882812 559.429688 C 689.03125 558.84375 689.15625 558.246094 689.253906 557.640625 C 690.808594 547.933594 685.382812 538.726562 676.6875 535.113281 C 676.160156 535.136719 675.640625 535.183594 675.132812 535.265625 C 673.511719 535.527344 672.027344 536.089844 670.726562 537.085938 C 669.617188 537.941406 668.617188 539.125 667.789062 540.828125 C 666.550781 543.363281 664.582031 545.667969 662.238281 547.472656 C 660.238281 549.007812 657.960938 550.179688 655.574219 550.738281 C 653.195312 551.296875 650.675781 551.234375 648.359375 550.195312 C 648.332031 550.179688 648.304688 550.167969 648.277344 550.152344 C 648.21875 550.453125 648.160156 550.75 648.109375 551.054688 C 646.875 558.761719 650.042969 566.15625 655.753906 570.683594 C 655.675781 570.417969 655.601562 570.15625 655.546875 569.890625 C 655.28125 568.507812 655.359375 567.117188 655.714844 565.800781 Z M 655.714844 565.800781 " fill-opacity="1" fill-rule="nonzero" style=""/>
        </g>
      </g>
    </g>
    <g clip-path="url(#clip-21)" transform="matrix(0, -1.38586, 1.38586, 0, -23.669514, 1051.372224)">
      <g clip-path="url(#clip-22)">
        <g clip-path="url(#clip-23)">
          <path d="M 687.664062 562.933594 C 686.523438 562.980469 685.292969 562.832031 683.972656 562.449219 C 682.640625 562.066406 681.214844 561.453125 679.65625 560.582031 C 676.527344 558.832031 673.316406 558.304688 670.335938 558.601562 C 667.359375 558.898438 664.625 560.042969 662.574219 561.621094 C 661.144531 562.714844 660.054688 564.015625 659.410156 565.335938 C 658.761719 566.660156 658.550781 567.980469 658.796875 569.261719 C 658.960938 570.117188 659.335938 570.980469 660.003906 571.851562 C 660.65625 572.699219 661.617188 573.554688 662.914062 574.363281 C 663.71875 574.59375 664.542969 574.785156 665.390625 574.917969 C 674.878906 576.441406 683.890625 571.292969 687.664062 562.933594 Z M 687.664062 562.933594 " fill-opacity="1" fill-rule="nonzero" style=""/>
        </g>
      </g>
    </g>
    <g clip-path="url(#clip-24)" transform="matrix(0, -1.38586, 1.38586, 0, -23.669514, 1051.372224)">
      <g clip-path="url(#clip-25)">
        <g clip-path="url(#clip-26)">
          <path d="M 660.226562 544.851562 C 662.195312 543.34375 663.851562 541.375 664.8125 539.382812 C 665.835938 537.273438 667.175781 535.644531 668.710938 534.464844 C 669.15625 534.125 669.621094 533.832031 670.09375 533.566406 C 660.890625 532.933594 652.4375 538.460938 649.21875 546.914062 C 649.382812 547.003906 649.546875 547.101562 649.714844 547.175781 C 650.738281 547.636719 651.84375 547.824219 653.019531 547.773438 C 655.367188 547.679688 657.988281 546.574219 660.226562 544.851562 Z M 660.226562 544.851562 " fill-opacity="1" fill-rule="nonzero" style=""/>
        </g>
      </g>
    </g>
    <g clip-path="url(#clip-27)" transform="matrix(0, -1.38586, 1.38586, 0, -23.669514, 1051.372224)">
      <g clip-path="url(#clip-28)">
        <g clip-path="url(#clip-29)">
          <path d="M 656.988281 525.265625 C 656.753906 523.226562 657.335938 521.105469 658.476562 519.183594 C 659.714844 517.109375 661.625 515.25 664.035156 513.992188 C 666.445312 512.742188 669.367188 512.109375 672.550781 512.53125 C 674.3125 512.765625 675.621094 512.6875 676.589844 512.441406 C 677.328125 512.25 677.875 511.972656 678.332031 511.628906 C 678.273438 511.179688 678.195312 510.730469 678.09375 510.277344 C 676.488281 503.085938 670.152344 498.175781 663.089844 498.070312 C 662.730469 498.234375 662.378906 498.40625 662.050781 498.605469 C 660.992188 499.238281 660.113281 500.042969 659.484375 501.097656 C 658.949219 502 658.582031 503.101562 658.476562 504.519531 C 658.316406 506.628906 657.585938 508.78125 656.453125 510.6875 C 655.484375 512.3125 654.222656 513.757812 652.714844 514.8125 C 651.210938 515.859375 649.4375 516.515625 647.535156 516.433594 C 647.511719 516.433594 647.488281 516.429688 647.46875 516.429688 C 647.507812 516.652344 647.550781 516.875 647.601562 517.101562 C 648.878906 522.816406 653.136719 527.085938 658.371094 528.65625 C 658.242188 528.496094 658.117188 528.332031 658.007812 528.160156 C 657.4375 527.273438 657.105469 526.28125 656.988281 525.265625 Z M 656.988281 525.265625 " fill-opacity="1" fill-rule="nonzero" style=""/>
        </g>
      </g>
    </g>
    <g clip-path="url(#clip-30)" transform="matrix(0, -1.38586, 1.38586, 0, -23.669514, 1051.372224)">
      <g clip-path="url(#clip-31)">
        <g clip-path="url(#clip-32)">
          <path d="M 678.457031 514.410156 C 677.671875 514.757812 676.773438 514.996094 675.746094 515.09375 C 674.714844 515.195312 673.550781 515.167969 672.222656 514.992188 C 669.558594 514.636719 667.171875 515.160156 665.179688 516.195312 C 663.1875 517.226562 661.601562 518.785156 660.609375 520.453125 C 659.917969 521.613281 659.519531 522.816406 659.433594 523.917969 C 659.351562 525.019531 659.570312 526 660.097656 526.824219 C 660.449219 527.375 660.949219 527.871094 661.65625 528.292969 C 662.34375 528.703125 663.25 529.03125 664.378906 529.234375 C 665.003906 529.171875 665.632812 529.078125 666.257812 528.9375 C 673.292969 527.363281 678.144531 521.277344 678.457031 514.410156 Z M 678.457031 514.410156 " fill-opacity="1" fill-rule="nonzero" style=""/>
        </g>
      </g>
    </g>
    <g clip-path="url(#clip-33)" transform="matrix(0, -1.38586, 1.38586, 0, -23.669514, 1051.372224)">
      <g clip-path="url(#clip-34)">
        <g clip-path="url(#clip-35)">
          <path d="M 654.320312 509.417969 C 655.273438 507.824219 655.882812 505.992188 656 504.335938 C 656.128906 502.582031 656.609375 501.078125 657.355469 499.828125 C 657.570312 499.46875 657.8125 499.136719 658.066406 498.820312 C 651.476562 500.933594 647.121094 507.125 647.222656 513.910156 C 647.363281 513.925781 647.503906 513.949219 647.644531 513.957031 C 648.484375 513.992188 649.304688 513.816406 650.109375 513.453125 C 651.722656 512.738281 653.242188 511.238281 654.320312 509.417969 Z M 654.320312 509.417969 " fill-opacity="1" fill-rule="nonzero" style=""/>
        </g>
      </g>
    </g>
    <g clip-path="url(#clip-36)" transform="matrix(0, -1.38586, 1.38586, 0, -23.669514, 1051.372224)">
      <g clip-path="url(#clip-37)">
        <g clip-path="url(#clip-38)">
          <path d="M 673.613281 495.253906 C 672.84375 493.851562 672.640625 492.152344 672.898438 490.433594 C 673.179688 488.574219 674.011719 486.675781 675.378906 485.0625 C 676.746094 483.453125 678.667969 482.136719 681.082031 481.507812 C 682.421875 481.160156 683.339844 480.722656 683.96875 480.257812 C 684.441406 479.902344 684.757812 479.542969 684.984375 479.160156 C 684.808594 478.855469 684.621094 478.554688 684.417969 478.257812 C 681.144531 473.546875 675.140625 471.871094 670.023438 473.867188 C 669.808594 474.089844 669.609375 474.320312 669.429688 474.558594 C 668.855469 475.328125 668.457031 476.160156 668.3125 477.109375 C 668.191406 477.917969 668.25 478.820312 668.589844 479.871094 C 669.097656 481.4375 669.199219 483.203125 668.945312 484.90625 C 668.722656 486.359375 668.238281 487.777344 667.464844 488.976562 C 666.6875 490.171875 665.601562 491.164062 664.207031 491.664062 C 664.191406 491.667969 664.175781 491.675781 664.15625 491.679688 C 664.253906 491.832031 664.347656 491.980469 664.453125 492.125 C 667.050781 495.867188 671.371094 497.695312 675.601562 497.289062 C 675.464844 497.210938 675.324219 497.128906 675.195312 497.039062 C 674.523438 496.566406 673.996094 495.949219 673.613281 495.253906 Z M 673.613281 495.253906 " fill-opacity="1" fill-rule="nonzero" style=""/>
        </g>
      </g>
    </g>
    <g clip-path="url(#clip-39)" transform="matrix(0, -1.38586, 1.38586, 0, -23.669514, 1051.372224)">
      <g clip-path="url(#clip-40)">
        <g clip-path="url(#clip-41)">
          <path d="M 685.890625 481.128906 C 685.425781 481.609375 684.847656 482.042969 684.140625 482.417969 C 683.425781 482.792969 682.578125 483.113281 681.570312 483.375 C 679.546875 483.90625 677.980469 484.980469 676.847656 486.3125 C 675.71875 487.640625 675.03125 489.226562 674.804688 490.722656 C 674.648438 491.757812 674.714844 492.746094 674.976562 493.5625 C 675.242188 494.382812 675.683594 495.023438 676.308594 495.460938 C 676.722656 495.753906 677.230469 495.964844 677.863281 496.0625 C 678.480469 496.15625 679.230469 496.125 680.101562 495.941406 C 680.535156 495.714844 680.957031 495.460938 681.367188 495.175781 C 685.972656 491.976562 687.679688 486.167969 685.890625 481.128906 Z M 685.890625 481.128906 " fill-opacity="1" fill-rule="nonzero" style=""/>
        </g>
      </g>
    </g>
    <g clip-path="url(#clip-42)" transform="matrix(0, -1.38586, 1.38586, 0, -23.669514, 1051.372224)">
      <g clip-path="url(#clip-43)">
        <g clip-path="url(#clip-44)">
          <path d="M 667.039062 484.621094 C 667.253906 483.1875 667.15625 481.691406 666.753906 480.464844 C 666.332031 479.164062 666.238281 477.9375 666.40625 476.820312 C 666.457031 476.496094 666.53125 476.1875 666.621094 475.882812 C 662.496094 479.339844 661.179688 485.082031 663.242188 489.9375 C 663.347656 489.910156 663.457031 489.882812 663.558594 489.847656 C 664.175781 489.625 664.714844 489.257812 665.1875 488.761719 C 666.140625 487.773438 666.792969 486.246094 667.039062 484.621094 Z M 667.039062 484.621094 " fill-opacity="1" fill-rule="nonzero" style=""/>
        </g>
      </g>
    </g>
    <g transform="matrix(0, -1.38586, 1.38586, 0, 813.389978, 125.617664)">
      <g clip-path="url(#clip-45)">
        <g fill="#eff8ff" fill-opacity="1">
          <g transform="translate(22.363495, 0.503967)">
            <g>
              <path d="M 0 45.453125 L 29.953125 43.0625 L 29.953125 42.765625 L 0.3125 32.40625 L 0.3125 25.546875 L 29.953125 15.1875 L 29.953125 14.890625 L 0 12.5 L 0 0.984375 L 50.546875 5.515625 L 50.546875 17.765625 L 21.375 28.984375 L 50.546875 40.1875 L 50.546875 52.4375 L 0 56.984375 Z M 0 45.453125 " style="fill: rgb(0, 0, 0);"/>
            </g>
          </g>
        </g>
        <g fill="#eff8ff" fill-opacity="1">
          <g transform="translate(22.363495, 58.467024)">
            <g>
              <path d="M 50.546875 32.59375 L 40.4375 32.59375 L 40.4375 15.1875 L 30.390625 15.1875 L 30.390625 31.859375 L 20.28125 31.859375 L 20.28125 15.1875 L 10.109375 15.1875 L 10.109375 32.59375 L 0 32.59375 L 0 3.671875 L 50.546875 3.671875 Z M 50.546875 32.59375 " style="fill: rgb(0, 0, 0);"/>
            </g>
          </g>
        </g>
      </g>
    </g>
  </g>
</svg>