<?xml version="1.0" encoding="utf-8"?>
<svg xmlns="http://www.w3.org/2000/svg" viewBox="0 0 500 200">
  <defs>
    <clipPath id="clip-1">
      <path d="M 643.839844 768.894531 L 682.34375 768.894531 L 682.34375 807.398438 L 643.839844 807.398438 Z M 643.839844 768.894531 " clip-rule="nonzero"/>
    </clipPath>
    <clipPath id="clip-2">
      <rect x="0" width="40" y="0" height="40"/>
    </clipPath>
    <clipPath id="clip-3">
      <path d="M 0.839844 0.894531 L 39.34375 0.894531 L 39.34375 39.398438 L 0.839844 39.398438 Z M 0.839844 0.894531 " clip-rule="nonzero"/>
    </clipPath>
    <clipPath id="clip-4">
      <rect x="0" width="77" y="0" height="250"/>
    </clipPath>
    <clipPath id="clip-5">
      <path d="M 643.839844 813.414062 L 682.34375 813.414062 L 682.34375 851.917969 L 643.839844 851.917969 Z M 643.839844 813.414062 " clip-rule="nonzero"/>
    </clipPath>
    <clipPath id="clip-6">
      <rect x="0" width="40" y="0" height="39"/>
    </clipPath>
    <clipPath id="clip-7">
      <path d="M 0.839844 0.414062 L 39.34375 0.414062 L 39.34375 38.917969 L 0.839844 38.917969 Z M 0.839844 0.414062 " clip-rule="nonzero"/>
    </clipPath>
    <clipPath id="clip-8">
      <path d="M 643.839844 858.515625 L 682.34375 858.515625 L 682.34375 897.015625 L 643.839844 897.015625 Z M 643.839844 858.515625 " clip-rule="nonzero"/>
    </clipPath>
    <clipPath id="clip-9">
      <rect x="0" width="40" y="0" height="40"/>
    </clipPath>
    <clipPath id="clip-10">
      <path d="M 0.839844 0.515625 L 39.34375 0.515625 L 39.34375 39.015625 L 0.839844 39.015625 Z M 0.839844 0.515625 " clip-rule="nonzero"/>
    </clipPath>
    <clipPath id="clip-11">
      <path d="M 643.839844 903.175781 L 682.34375 903.175781 L 682.34375 941.679688 L 643.839844 941.679688 Z M 643.839844 903.175781 " clip-rule="nonzero"/>
    </clipPath>
    <clipPath id="clip-12">
      <rect x="0" width="40" y="0" height="39"/>
    </clipPath>
    <clipPath id="clip-13">
      <path d="M 0.839844 0.175781 L 39.34375 0.175781 L 39.34375 38.679688 L 0.839844 38.679688 Z M 0.839844 0.175781 " clip-rule="nonzero"/>
    </clipPath>
  </defs>
  <g transform="matrix(1, 0, 0, 1, -959.951445, -2.928469)">
    <g clip-path="url(#clip-1)" transform="matrix(0, -1.38586, 1.38586, 0, -23.776686, 1051.068269)">
      <g transform="matrix(1, 0, 0, 1, 643, 768)">
        <g clip-path="url(#clip-2)">
          <g clip-path="url(#clip-3)">
            <path d="M 39.34375 0.894531 L 39.34375 39.398438 L 0.839844 39.398438 L 0.839844 0.894531 Z M 39.34375 0.894531 " fill-opacity="1" fill-rule="nonzero" style="fill: rgb(30 58 138);"/>
          </g>
        </g>
      </g>
    </g>
    <g transform="matrix(0, -1.38586, 1.38586, 0, 1037.792145, 123.927814)">
      <g clip-path="url(#clip-4)">
        <g fill="#eff8ff" fill-opacity="1">
          <g transform="translate(22.300336, 0.392569)">
            <g>
              <path d="M 50.578125 3.671875 L 50.578125 19.375 C 50.578125 24.113281 49.566406 27.894531 47.546875 30.71875 C 45.523438 33.539062 42.242188 34.953125 37.703125 34.953125 C 32.640625 34.953125 29.023438 32.847656 26.859375 28.640625 C 25.585938 35.828125 21.335938 39.421875 14.109375 39.421875 C 9.847656 39.421875 6.429688 37.945312 3.859375 35 C 1.285156 32.0625 0 28.019531 0 22.875 L 0 3.671875 Z M 30.78125 15.203125 L 30.78125 16.125 C 30.78125 18.695312 31.226562 20.617188 32.125 21.890625 C 33.03125 23.160156 34.503906 23.796875 36.546875 23.796875 C 39.972656 23.796875 41.6875 21.238281 41.6875 16.125 L 41.6875 15.203125 Z M 8.890625 15.203125 L 8.890625 18.828125 C 8.890625 24.460938 10.769531 27.28125 14.53125 27.28125 C 16.78125 27.28125 18.394531 26.570312 19.375 25.15625 C 20.351562 23.75 20.84375 21.640625 20.84375 18.828125 L 20.84375 15.203125 Z M 8.890625 15.203125 " style="fill: rgb(30 58 138);"/>
            </g>
          </g>
        </g>
        <g fill="#eff8ff" fill-opacity="1">
          <g transform="translate(22.300336, 41.230351)">
            <g>
              <path d="M 50.578125 32.625 L 40.46875 32.625 L 40.46875 15.203125 L 30.40625 15.203125 L 30.40625 31.875 L 20.296875 31.875 L 20.296875 15.203125 L 10.109375 15.203125 L 10.109375 32.625 L 0 32.625 L 0 3.671875 L 50.578125 3.671875 Z M 50.578125 32.625 " style="fill: rgb(30 58 138);"/>
            </g>
          </g>
        </g>
        <g fill="#eff8ff" fill-opacity="1">
          <g transform="translate(22.300336, 76.79478)">
            <g>
              <path d="M 50.578125 15.203125 L 10.109375 15.203125 L 10.109375 32.625 L 0 32.625 L 0 3.671875 L 50.578125 3.671875 Z M 50.578125 15.203125 " style="fill: rgb(30 58 138);"/>
            </g>
          </g>
        </g>
        <g fill="#eff8ff" fill-opacity="1">
          <g transform="translate(22.300336, 111.439446)">
            <g>
              <path d="M 50.578125 15.203125 L 0 15.203125 L 0 3.671875 L 50.578125 3.671875 Z M 50.578125 15.203125 " style="fill: rgb(30 58 138);"/>
            </g>
          </g>
        </g>
        <g fill="#eff8ff" fill-opacity="1">
          <g transform="translate(22.300336, 130.325379)">
            <g>
              <path d="M 50.578125 32.625 L 40.46875 32.625 L 40.46875 15.203125 L 30.40625 15.203125 L 30.40625 31.875 L 20.296875 31.875 L 20.296875 15.203125 L 10.109375 15.203125 L 10.109375 32.625 L 0 32.625 L 0 3.671875 L 50.578125 3.671875 Z M 50.578125 32.625 " style="fill: rgb(30 58 138);"/>
            </g>
          </g>
        </g>
        <g fill="#eff8ff" fill-opacity="1">
          <g transform="translate(22.300336, 165.889808)">
            <g>
              <path d="M 0 19.5 L 50.578125 -1.71875 L 50.578125 11.28125 L 17.34375 24.03125 L 50.578125 36.78125 L 50.578125 49.78125 L 0 28.578125 Z M 0 19.5 " style="fill: rgb(30 58 138);"/>
            </g>
          </g>
        </g>
        <g fill="#eff8ff" fill-opacity="1">
          <g transform="translate(22.300336, 213.963112)">
            <g>
              <path d="M 50.578125 32.625 L 40.46875 32.625 L 40.46875 15.203125 L 30.40625 15.203125 L 30.40625 31.875 L 20.296875 31.875 L 20.296875 15.203125 L 10.109375 15.203125 L 10.109375 32.625 L 0 32.625 L 0 3.671875 L 50.578125 3.671875 Z M 50.578125 32.625 " style="fill: rgb(30 58 138);"/>
            </g>
          </g>
        </g>
      </g>
    </g>
    <g clip-path="url(#clip-5)" transform="matrix(0, -1.38586, 1.38586, 0, -23.776686, 1051.068269)">
      <g transform="matrix(1, 0, 0, 1, 643, 813)">
        <g clip-path="url(#clip-6)">
          <g clip-path="url(#clip-7)">
            <path d="M 39.34375 0.414062 L 39.34375 38.917969 L 0.839844 38.917969 L 0.839844 0.414062 Z M 39.34375 0.414062 " fill-opacity="1" fill-rule="nonzero" style="fill: rgb(30 58 138);"/>
          </g>
        </g>
      </g>
    </g>
    <g clip-path="url(#clip-8)" transform="matrix(0, -1.38586, 1.38586, 0, -23.776686, 1051.068269)">
      <g transform="matrix(1, 0, 0, 1, 643, 858)">
        <g clip-path="url(#clip-9)">
          <g clip-path="url(#clip-10)">
            <path d="M 39.34375 0.515625 L 39.34375 39.015625 L 0.839844 39.015625 L 0.839844 0.515625 Z M 39.34375 0.515625 " fill-opacity="1" fill-rule="nonzero" style="fill: rgb(30 58 138);"/>
          </g>
        </g>
      </g>
    </g>
    <g clip-path="url(#clip-11)" transform="matrix(0, -1.38586, 1.38586, 0, -23.776686, 1051.068269)">
      <g transform="matrix(1, 0, 0, 1, 643, 903)">
        <g clip-path="url(#clip-12)">
          <g clip-path="url(#clip-13)">
            <path d="M 39.34375 0.175781 L 39.34375 38.679688 L 0.839844 38.679688 L 0.839844 0.175781 Z M 39.34375 0.175781 " fill-opacity="1" fill-rule="nonzero" style="fill: rgb(30 58 138);"/>
          </g>
        </g>
      </g>
    </g>
  </g>
</svg>