<?xml version="1.0" encoding="utf-8"?>
<svg xmlns="http://www.w3.org/2000/svg" viewBox="0 0 500 200">
  <defs>
    <clipPath id="4024e9592a">
      <path d="M 676.570312 33.03125 L 740.84375 33.03125 L 740.84375 88.25 L 676.570312 88.25 Z M 676.570312 33.03125 " clip-rule="nonzero"/>
    </clipPath>
    <clipPath id="af08530702">
      <path d="M 740.820312 60.640625 L 724.757812 88.25 L 692.632812 88.25 L 676.570312 60.640625 L 692.632812 33.03125 L 724.757812 33.03125 Z M 740.820312 60.640625 " clip-rule="nonzero"/>
    </clipPath>
    <clipPath id="02eee609a0">
      <rect x="0" width="65" y="0" height="56"/>
    </clipPath>
    <clipPath id="6a408f0c50">
      <path d="M 0.570312 0.03125 L 64.84375 0.03125 L 64.84375 55.25 L 0.570312 55.25 Z M 0.570312 0.03125 " clip-rule="nonzero"/>
    </clipPath>
    <clipPath id="1aadee938a">
      <path d="M 64.820312 27.640625 L 48.757812 55.25 L 16.632812 55.25 L 0.570312 27.640625 L 16.632812 0.03125 L 48.757812 0.03125 Z M 64.820312 27.640625 " clip-rule="nonzero"/>
    </clipPath>
    <clipPath id="4294477a2f">
      <rect x="0" width="78" y="0" height="268"/>
    </clipPath>
    <clipPath id="13fb593806">
      <path d="M 624.015625 64.472656 L 688.292969 64.472656 L 688.292969 119.6875 L 624.015625 119.6875 Z M 624.015625 64.472656 " clip-rule="nonzero"/>
    </clipPath>
    <clipPath id="2e021ad0dd">
      <path d="M 688.269531 92.082031 L 672.207031 119.6875 L 640.078125 119.6875 L 624.015625 92.082031 L 640.078125 64.472656 L 672.207031 64.472656 Z M 688.269531 92.082031 " clip-rule="nonzero"/>
    </clipPath>
    <clipPath id="6e93fab041">
      <rect x="0" width="65" y="0" height="56"/>
    </clipPath>
    <clipPath id="a9e0d7a49b">
      <path d="M 0.015625 0.472656 L 64.292969 0.472656 L 64.292969 55.6875 L 0.015625 55.6875 Z M 0.015625 0.472656 " clip-rule="nonzero"/>
    </clipPath>
    <clipPath id="e99d7fb31f">
      <path d="M 64.269531 28.082031 L 48.207031 55.6875 L 16.078125 55.6875 L 0.015625 28.082031 L 16.078125 0.472656 L 48.207031 0.472656 Z M 64.269531 28.082031 " clip-rule="nonzero"/>
    </clipPath>
    <clipPath id="9c3b910b14">
      <path d="M 624.015625 124.882812 L 688.292969 124.882812 L 688.292969 180.101562 L 624.015625 180.101562 Z M 624.015625 124.882812 " clip-rule="nonzero"/>
    </clipPath>
    <clipPath id="5bf73fd0c8">
      <path d="M 688.269531 152.492188 L 672.207031 180.101562 L 640.078125 180.101562 L 624.015625 152.492188 L 640.078125 124.882812 L 672.207031 124.882812 Z M 688.269531 152.492188 " clip-rule="nonzero"/>
    </clipPath>
    <clipPath id="205e47d45d">
      <rect x="0" width="65" y="0" height="57"/>
    </clipPath>
    <clipPath id="fa30ef6495">
      <path d="M 0.015625 0.882812 L 64.292969 0.882812 L 64.292969 56.101562 L 0.015625 56.101562 Z M 0.015625 0.882812 " clip-rule="nonzero"/>
    </clipPath>
    <clipPath id="31780eaf85">
      <path d="M 64.269531 28.492188 L 48.207031 56.101562 L 16.078125 56.101562 L 0.015625 28.492188 L 16.078125 0.882812 L 48.207031 0.882812 Z M 64.269531 28.492188 " clip-rule="nonzero"/>
    </clipPath>
  </defs>
  <g transform="matrix(1, 0, 0, 1, -0.107172, -0.303997)">
    <g clip-path="url(#4024e9592a)" transform="matrix(0, -1.38586, 1.38586, 0, -20.669514, 1048.372224)">
      <g clip-path="url(#af08530702)">
        <g transform="matrix(1, 0, 0, 1, 676, 33)">
          <g clip-path="url(#02eee609a0)">
            <g clip-path="url(#6a408f0c50)">
              <g clip-path="url(#1aadee938a)">
                <path d="M 0.570312 0.03125 L 64.84375 0.03125 L 64.84375 55.25 L 0.570312 55.25 Z M 0.570312 0.03125 " fill-opacity="1" fill-rule="nonzero" style="fill: rgb(60, 130, 180);"/>
              </g>
            </g>
          </g>
        </g>
      </g>
    </g>
    <g transform="matrix(0, -1.38586, 1.38586, 0, 104.057895, 122.617664)">
      <g clip-path="url(#4294477a2f)">
        <g fill="#eff8ff" fill-opacity="1">
          <g transform="translate(22.326837, 0.494708)">
            <g>
              <path d="M 50.578125 3.671875 L 50.578125 19.375 C 50.578125 24.113281 49.566406 27.894531 47.546875 30.71875 C 45.523438 33.539062 42.242188 34.953125 37.703125 34.953125 C 32.640625 34.953125 29.023438 32.847656 26.859375 28.640625 C 25.585938 35.828125 21.335938 39.421875 14.109375 39.421875 C 9.847656 39.421875 6.429688 37.945312 3.859375 35 C 1.285156 32.0625 0 28.019531 0 22.875 L 0 3.671875 Z M 30.78125 15.203125 L 30.78125 16.125 C 30.78125 18.695312 31.226562 20.617188 32.125 21.890625 C 33.03125 23.160156 34.503906 23.796875 36.546875 23.796875 C 39.972656 23.796875 41.6875 21.238281 41.6875 16.125 L 41.6875 15.203125 Z M 8.890625 15.203125 L 8.890625 18.828125 C 8.890625 24.460938 10.769531 27.28125 14.53125 27.28125 C 16.78125 27.28125 18.394531 26.570312 19.375 25.15625 C 20.351562 23.75 20.84375 21.640625 20.84375 18.828125 L 20.84375 15.203125 Z M 8.890625 15.203125 " style="fill: rgb(60, 130, 180);"/>
            </g>
          </g>
        </g>
        <g fill="#eff8ff" fill-opacity="1">
          <g transform="translate(22.326837, 41.331111)">
            <g>
              <path d="M 50.578125 32.625 L 40.46875 32.625 L 40.46875 15.203125 L 30.40625 15.203125 L 30.40625 31.875 L 20.296875 31.875 L 20.296875 15.203125 L 10.109375 15.203125 L 10.109375 32.625 L 0 32.625 L 0 3.671875 L 50.578125 3.671875 Z M 50.578125 32.625 " style="fill: rgb(60, 130, 180);"/>
            </g>
          </g>
        </g>
        <g fill="#eff8ff" fill-opacity="1">
          <g transform="translate(22.326837, 76.894359)">
            <g>
              <path d="M 50.578125 15.203125 L 10.109375 15.203125 L 10.109375 32.625 L 0 32.625 L 0 3.671875 L 50.578125 3.671875 Z M 50.578125 15.203125 " style="fill: rgb(60, 130, 180);"/>
            </g>
          </g>
        </g>
        <g fill="#eff8ff" fill-opacity="1">
          <g transform="translate(22.326837, 111.537858)">
            <g>
              <path d="M 25.328125 1.40625 C 32.640625 1.40625 38.828125 3.898438 43.890625 8.890625 C 48.960938 13.878906 51.5 19.890625 51.5 26.921875 C 51.5 33.984375 48.972656 39.988281 43.921875 44.9375 C 38.878906 49.882812 32.679688 52.359375 25.328125 52.359375 C 17.921875 52.359375 11.691406 49.925781 6.640625 45.0625 C 1.597656 40.195312 -0.921875 34.148438 -0.921875 26.921875 C -0.921875 19.515625 1.582031 13.410156 6.59375 8.609375 C 11.601562 3.804688 17.847656 1.40625 25.328125 1.40625 Z M 25.328125 13.859375 C 22.671875 13.859375 20.25 14.265625 18.0625 15.078125 C 15.875 15.898438 14.019531 17.332031 12.5 19.375 C 10.988281 21.414062 10.234375 23.929688 10.234375 26.921875 C 10.234375 31.210938 11.703125 34.453125 14.640625 36.640625 C 17.585938 38.828125 21.148438 39.921875 25.328125 39.921875 C 29.453125 39.921875 32.992188 38.804688 35.953125 36.578125 C 38.921875 34.347656 40.40625 31.128906 40.40625 26.921875 C 40.40625 22.742188 38.921875 19.519531 35.953125 17.25 C 32.992188 14.988281 29.453125 13.859375 25.328125 13.859375 Z M 25.328125 13.859375 " style="fill: rgb(60, 130, 180);"/>
            </g>
          </g>
        </g>
        <g fill="#eff8ff" fill-opacity="1">
          <g transform="translate(22.326837, 165.311938)">
            <g>
              <path d="M 31.390625 15.203125 L 0 15.203125 L 0 3.671875 L 50.578125 3.671875 L 50.578125 15.203125 L 19.1875 35.3125 L 19.1875 35.4375 L 50.578125 35.4375 L 50.578125 46.96875 L 0 46.96875 L 0 35.4375 L 31.390625 15.328125 Z M 31.390625 15.203125 " style="fill: rgb(60, 130, 180);"/>
            </g>
          </g>
        </g>
        <g fill="#eff8ff" fill-opacity="1">
          <g transform="translate(22.326837, 215.958891)">
            <g>
              <path d="M 28.328125 49.421875 L 17.34375 49.421875 C 11.34375 48.109375 6.796875 45.242188 3.703125 40.828125 C 0.617188 36.421875 -0.921875 31.5 -0.921875 26.0625 C -0.921875 19.226562 1.628906 13.410156 6.734375 8.609375 C 11.847656 3.804688 18.023438 1.40625 25.265625 1.40625 C 32.617188 1.40625 38.828125 3.753906 43.890625 8.453125 C 48.960938 13.160156 51.5 19.03125 51.5 26.0625 C 51.5 34.269531 48.617188 40.769531 42.859375 45.5625 L 34.578125 38.015625 C 38.910156 35.316406 41.078125 31.554688 41.078125 26.734375 C 41.078125 23.171875 39.535156 20.132812 36.453125 17.625 C 33.367188 15.113281 29.640625 13.859375 25.265625 13.859375 C 20.972656 13.859375 17.300781 15.113281 14.25 17.625 C 11.207031 20.132812 9.6875 23.171875 9.6875 26.734375 C 9.6875 29.671875 10.570312 32.234375 12.34375 34.421875 C 14.125 36.609375 16.488281 37.703125 19.4375 37.703125 L 19.4375 26.0625 L 28.328125 26.0625 Z M 28.328125 49.421875 " style="fill: rgb(60, 130, 180);"/>
            </g>
          </g>
        </g>
      </g>
    </g>
    <g clip-path="url(#13fb593806)" transform="matrix(0, -1.38586, 1.38586, 0, -20.669514, 1048.372224)">
      <g clip-path="url(#2e021ad0dd)">
        <g transform="matrix(1, 0, 0, 1, 624, 64)">
          <g clip-path="url(#6e93fab041)">
            <g clip-path="url(#a9e0d7a49b)">
              <g clip-path="url(#e99d7fb31f)">
                <path d="M 0.015625 0.472656 L 64.292969 0.472656 L 64.292969 55.6875 L 0.015625 55.6875 Z M 0.015625 0.472656 " fill-opacity="1" fill-rule="nonzero" style="fill: rgb(60, 130, 180);"/>
              </g>
            </g>
          </g>
        </g>
      </g>
    </g>
    <g clip-path="url(#9c3b910b14)" transform="matrix(0, -1.38586, 1.38586, 0, -20.669514, 1048.372224)">
      <g clip-path="url(#5bf73fd0c8)">
        <g transform="matrix(1, 0, 0, 1, 624, 124)">
          <g clip-path="url(#205e47d45d)">
            <g clip-path="url(#fa30ef6495)">
              <g clip-path="url(#31780eaf85)">
                <path d="M 0.015625 0.882812 L 64.292969 0.882812 L 64.292969 56.101562 L 0.015625 56.101562 Z M 0.015625 0.882812 " fill-opacity="1" fill-rule="nonzero" style="fill: rgb(60, 130, 180);"/>
              </g>
            </g>
          </g>
        </g>
      </g>
    </g>
  </g>
</svg>