<?xml version="1.0" encoding="utf-8"?>
<svg xmlns="http://www.w3.org/2000/svg" viewBox="0 0 500 500">
  <defs>
    <linearGradient gradientUnits="userSpaceOnUse" x1="194.948" y1="135.791" x2="194.948" y2="411.883" id="gradient-0" gradientTransform="matrix(1, 0, 0, 1, 2, -15.00002)">
      <stop offset="0" style="stop-color: rgb(208, 50, 79)"/>
      <stop offset="1" style="stop-color: rgb(231, 126, 10);"/>
    </linearGradient>
    <linearGradient gradientUnits="userSpaceOnUse" x1="293.364" y1="133.398" x2="293.364" y2="541.921" id="gradient-1" gradientTransform="matrix(1, 0, 0, 1, 2, -15.00002)">
      <stop offset="0" style="stop-color: rgb(208, 50, 79);"/>
      <stop offset="1" style="stop-color: rgb(229, 177, 14);"/>
    </linearGradient>
  </defs>
  <g transform="matrix(1, 0, 0, 1, 0, -56.000013)">
    <path style="stroke-width: 1; fill: url(&quot;#gradient-1&quot;); transform-origin: 306.675px 298.525px;" d="M 307.382 186.095 C 331.018 162.459 378.262 143.838 419.812 185.388 C 461.362 226.938 438.497 278.425 419.105 297.818 C 399.713 317.21 249.399 467.524 249.399 467.524 L 136.262 354.386 L 106.564 384.085 L 249.399 526.921 C 249.399 526.921 417.906 358.414 448.803 327.516 C 479.701 296.619 509.526 215.705 449.511 155.689 C 389.495 95.674 316.833 117.248 277.684 156.396 M 277.684 156.396 C 297.956 176.669 307.382 186.095 307.382 186.095"/>
    <path style="stroke-width: 1; fill: url(&quot;#gradient-0&quot;); transform-origin: 171.511px 276.498px;" d="M 78.986 356.507 L 108.685 326.809 C 108.685 326.809 90.121 308.245 74.036 292.16 C 47.166 265.29 52.197 212.317 79.764 184.751 C 107.33 157.184 160.303 152.153 187.173 179.023 C 203.532 195.382 276.269 268.119 276.269 268.119 L 177.203 367.184 L 206.902 396.883 L 305.967 297.817 L 348.394 340.244 L 378.092 310.545 C 378.092 310.545 261.321 193.774 216.872 149.325 C 182.931 115.384 102.454 104.926 51.197 156.184 C -0.061 207.441 10.397 287.918 44.338 321.859 C 55.556 333.077 78.986 356.507 78.986 356.507"/>
  </g>
</svg>