<?xml version="1.0" encoding="utf-8"?>
<svg xmlns="http://www.w3.org/2000/svg" viewBox="0 0 500 500">
  <g id="group-6" transform="matrix(21.36364, 0, 0, 21.36364, 14.999992, 9.999996)">
    <path d="M 0 8.823 C 0 12.924 4.421 17.263 7.658 19.89 C 9.123 21.078 9.855 21.672 11 21.672 C 12.145 21.672 12.877 21.078 14.342 19.89 C 17.579 17.263 22 12.924 22 8.823 C 22 1.969 15.95 -0.59 11 4.704 C 6.05 -0.59 0 1.969 0 8.823 Z" style="fill: rgb(255, 0, 0); paint-order: fill;"/>
    <path fill-rule="evenodd" clip-rule="evenodd" d="M 15.95 5.448 C 16.406 5.448 16.775 5.818 16.775 6.273 L 16.775 7.648 L 18.15 7.648 C 18.606 7.648 18.975 8.017 18.975 8.473 C 18.975 8.928 18.606 9.298 18.15 9.298 L 16.775 9.298 L 16.775 10.673 C 16.775 11.129 16.406 11.497 15.95 11.497 C 15.494 11.497 15.124 11.129 15.124 10.673 L 15.124 9.298 L 13.75 9.298 C 13.295 9.298 12.925 8.928 12.925 8.473 C 12.925 8.017 13.295 7.648 13.75 7.648 L 15.124 7.648 L 15.124 6.273 C 15.124 5.818 15.494 5.448 15.95 5.448 Z" style="fill: rgb(255, 131, 131);"/>
    <path d="M 7.561 6.272 L 11.001 13.152 L 12.721 9.713 L 14.004 12.277 L 22.469 12.277 L 22.469 14.57 L 12.858 14.57 L 11.001 18.281 L 7.561 11.401 L 5.978 14.57 L -0.467 14.57 L -0.467 12.277 L 4.557 12.277 L 7.561 6.272 Z" id="path-2" style="fill: rgb(85, 255, 0); stroke-width: 0.468085px; stroke: rgb(0, 0, 0);"/>
  </g>
</svg>