<svg xmlns="http://www.w3.org/2000/svg" xmlns:xlink="http://www.w3.org/1999/xlink" width="800" zoomAndPan="magnify" viewBox="0 0 600 239.999995" height="320" preserveAspectRatio="xMidYMid meet" version="1.0"><defs><g/><clipPath id="bc9a7859fa"><path d="M 8.527344 165.65625 L 591.648438 165.65625 L 591.648438 240 L 8.527344 240 Z M 8.527344 165.65625 " clip-rule="nonzero"/></clipPath><clipPath id="eff5cd75e1"><path d="M 45.699219 165.65625 L 554.300781 165.65625 C 574.828125 165.65625 591.472656 182.300781 591.472656 202.828125 C 591.472656 223.359375 574.828125 240 554.300781 240 L 45.699219 240 C 25.171875 240 8.527344 223.359375 8.527344 202.828125 C 8.527344 182.300781 25.171875 165.65625 45.699219 165.65625 Z M 45.699219 165.65625 " clip-rule="nonzero"/></clipPath><clipPath id="9bee009e4d"><path d="M 0.527344 0.65625 L 583.601562 0.65625 L 583.601562 75 L 0.527344 75 Z M 0.527344 0.65625 " clip-rule="nonzero"/></clipPath><clipPath id="d1607e163b"><path d="M 37.699219 0.65625 L 546.300781 0.65625 C 566.828125 0.65625 583.472656 17.300781 583.472656 37.828125 C 583.472656 58.359375 566.828125 75 546.300781 75 L 37.699219 75 C 17.171875 75 0.527344 58.359375 0.527344 37.828125 C 0.527344 17.300781 17.171875 0.65625 37.699219 0.65625 Z M 37.699219 0.65625 " clip-rule="nonzero"/></clipPath><clipPath id="c7f6a3e260"><rect x="0" width="584" y="0" height="75"/></clipPath><clipPath id="6bb792236f"><path d="M 193.191406 195.101562 L 208.644531 195.101562 L 208.644531 210.554688 L 193.191406 210.554688 Z M 193.191406 195.101562 " clip-rule="nonzero"/></clipPath><clipPath id="261b4bc623"><path d="M 200.917969 195.101562 C 196.648438 195.101562 193.191406 198.5625 193.191406 202.828125 C 193.191406 207.097656 196.648438 210.554688 200.917969 210.554688 C 205.183594 210.554688 208.644531 207.097656 208.644531 202.828125 C 208.644531 198.5625 205.183594 195.101562 200.917969 195.101562 Z M 200.917969 195.101562 " clip-rule="nonzero"/></clipPath><clipPath id="ec6760ec76"><path d="M 0.191406 0.101562 L 15.644531 0.101562 L 15.644531 15.554688 L 0.191406 15.554688 Z M 0.191406 0.101562 " clip-rule="nonzero"/></clipPath><clipPath id="7be9317968"><path d="M 7.917969 0.101562 C 3.648438 0.101562 0.191406 3.5625 0.191406 7.828125 C 0.191406 12.097656 3.648438 15.554688 7.917969 15.554688 C 12.183594 15.554688 15.644531 12.097656 15.644531 7.828125 C 15.644531 3.5625 12.183594 0.101562 7.917969 0.101562 Z M 7.917969 0.101562 " clip-rule="nonzero"/></clipPath><clipPath id="2aee1f51f8"><rect x="0" width="16" y="0" height="16"/></clipPath><clipPath id="29de5a5f74"><rect x="0" width="158" y="0" height="45"/></clipPath><clipPath id="b36dddf39f"><rect x="0" width="160" y="0" height="45"/></clipPath><clipPath id="e204e3242f"><rect x="0" width="148" y="0" height="45"/></clipPath><clipPath id="16e2bd34bc"><path d="M 391.554688 195.101562 L 407.007812 195.101562 L 407.007812 210.554688 L 391.554688 210.554688 Z M 391.554688 195.101562 " clip-rule="nonzero"/></clipPath><clipPath id="787449b08d"><path d="M 399.28125 195.101562 C 395.015625 195.101562 391.554688 198.5625 391.554688 202.828125 C 391.554688 207.097656 395.015625 210.554688 399.28125 210.554688 C 403.546875 210.554688 407.007812 207.097656 407.007812 202.828125 C 407.007812 198.5625 403.546875 195.101562 399.28125 195.101562 Z M 399.28125 195.101562 " clip-rule="nonzero"/></clipPath><clipPath id="85cf2ba5e0"><path d="M 0.554688 0.101562 L 16.007812 0.101562 L 16.007812 15.554688 L 0.554688 15.554688 Z M 0.554688 0.101562 " clip-rule="nonzero"/></clipPath><clipPath id="598dad0ce4"><path d="M 8.28125 0.101562 C 4.015625 0.101562 0.554688 3.5625 0.554688 7.828125 C 0.554688 12.097656 4.015625 15.554688 8.28125 15.554688 C 12.546875 15.554688 16.007812 12.097656 16.007812 7.828125 C 16.007812 3.5625 12.546875 0.101562 8.28125 0.101562 Z M 8.28125 0.101562 " clip-rule="nonzero"/></clipPath><clipPath id="735299d651"><rect x="0" width="17" y="0" height="16"/></clipPath></defs><g clip-path="url(#bc9a7859fa)"><g clip-path="url(#eff5cd75e1)"><g transform="matrix(1, 0, 0, 1, 8, 165)"><g clip-path="url(#c7f6a3e260)"><g clip-path="url(#9bee009e4d)"><g clip-path="url(#d1607e163b)"><path fill="#4887d9" d="M 0.527344 0.65625 L 583.359375 0.65625 L 583.359375 75 L 0.527344 75 Z M 0.527344 0.65625 " fill-opacity="1" fill-rule="nonzero"/></g></g></g></g></g></g><g clip-path="url(#6bb792236f)"><g clip-path="url(#261b4bc623)"><g transform="matrix(1, 0, 0, 1, 193, 195)"><g clip-path="url(#2aee1f51f8)"><g clip-path="url(#ec6760ec76)"><g clip-path="url(#7be9317968)"><path fill="#7ed957" d="M 0.191406 0.101562 L 15.644531 0.101562 L 15.644531 15.554688 L 0.191406 15.554688 Z M 0.191406 0.101562 " fill-opacity="1" fill-rule="nonzero"/></g></g></g></g></g></g><g transform="matrix(1, 0, 0, 1, 24, 186)"><g clip-path="url(#29de5a5f74)"><g fill="#edf73d" fill-opacity="1"><g transform="translate(0.613375, 31.703087)"><g><path d="M 2.15625 -29.734375 L 11.390625 -29.734375 C 14.179688 -29.734375 16.40625 -29.140625 18.0625 -27.953125 C 19.71875 -26.765625 20.546875 -24.835938 20.546875 -22.171875 C 20.546875 -19.191406 19.304688 -17.0625 16.828125 -15.78125 C 21.054688 -15.039062 23.171875 -12.546875 23.171875 -8.296875 C 23.171875 -5.796875 22.304688 -3.785156 20.578125 -2.265625 C 18.847656 -0.753906 16.472656 0 13.453125 0 L 2.15625 0 Z M 8.9375 -18.09375 L 9.484375 -18.09375 C 10.992188 -18.09375 12.117188 -18.359375 12.859375 -18.890625 C 13.609375 -19.421875 13.984375 -20.285156 13.984375 -21.484375 C 13.984375 -23.503906 12.484375 -24.515625 9.484375 -24.515625 L 8.9375 -24.515625 Z M 8.9375 -5.234375 L 11.0625 -5.234375 C 14.382812 -5.234375 16.046875 -6.335938 16.046875 -8.546875 C 16.046875 -9.867188 15.628906 -10.816406 14.796875 -11.390625 C 13.960938 -11.960938 12.71875 -12.25 11.0625 -12.25 L 8.9375 -12.25 Z M 8.9375 -5.234375 "/></g></g></g><g fill="#edf73d" fill-opacity="1"><g transform="translate(24.620543, 31.703087)"><g><path d="M 19.171875 -29.734375 L 19.171875 -23.796875 L 8.9375 -23.796875 L 8.9375 -17.875 L 18.75 -17.875 L 18.75 -11.9375 L 8.9375 -11.9375 L 8.9375 -5.953125 L 19.171875 -5.953125 L 19.171875 0 L 2.15625 0 L 2.15625 -29.734375 Z M 19.171875 -29.734375 "/></g></g></g><g fill="#edf73d" fill-opacity="1"><g transform="translate(45.52769, 31.703087)"><g><path d="M 8.9375 -29.734375 L 8.9375 -5.953125 L 19.171875 -5.953125 L 19.171875 0 L 2.15625 0 L 2.15625 -29.734375 Z M 8.9375 -29.734375 "/></g></g></g><g fill="#edf73d" fill-opacity="1"><g transform="translate(65.894134, 31.703087)"><g><path d="M 0.828125 -14.890625 C 0.828125 -19.191406 2.289062 -22.832031 5.21875 -25.8125 C 8.15625 -28.789062 11.691406 -30.28125 15.828125 -30.28125 C 19.984375 -30.28125 23.515625 -28.796875 26.421875 -25.828125 C 29.328125 -22.859375 30.78125 -19.210938 30.78125 -14.890625 C 30.78125 -10.535156 29.347656 -6.875 26.484375 -3.90625 C 23.628906 -0.9375 20.078125 0.546875 15.828125 0.546875 C 11.472656 0.546875 7.882812 -0.925781 5.0625 -3.875 C 2.238281 -6.820312 0.828125 -10.492188 0.828125 -14.890625 Z M 8.140625 -14.890625 C 8.140625 -13.328125 8.378906 -11.898438 8.859375 -10.609375 C 9.347656 -9.328125 10.191406 -8.238281 11.390625 -7.34375 C 12.585938 -6.457031 14.066406 -6.015625 15.828125 -6.015625 C 18.347656 -6.015625 20.25 -6.878906 21.53125 -8.609375 C 22.820312 -10.335938 23.46875 -12.429688 23.46875 -14.890625 C 23.46875 -17.316406 22.8125 -19.398438 21.5 -21.140625 C 20.1875 -22.878906 18.296875 -23.75 15.828125 -23.75 C 13.367188 -23.75 11.472656 -22.878906 10.140625 -21.140625 C 8.804688 -19.398438 8.140625 -17.316406 8.140625 -14.890625 Z M 8.140625 -14.890625 "/></g></g></g><g fill="#edf73d" fill-opacity="1"><g transform="translate(97.507182, 31.703087)"><g><path d="M 8.9375 -18.453125 L 8.9375 0 L 2.15625 0 L 2.15625 -29.734375 L 8.9375 -29.734375 L 20.765625 -11.28125 L 20.828125 -11.28125 L 20.828125 -29.734375 L 27.609375 -29.734375 L 27.609375 0 L 20.828125 0 L 9.015625 -18.453125 Z M 8.9375 -18.453125 "/></g></g></g><g fill="#edf73d" fill-opacity="1"><g transform="translate(127.281837, 31.703087)"><g><path d="M 29.046875 -16.65625 L 29.046875 -10.203125 C 28.285156 -6.671875 26.601562 -3.992188 24 -2.171875 C 21.40625 -0.359375 18.507812 0.546875 15.3125 0.546875 C 11.300781 0.546875 7.882812 -0.953125 5.0625 -3.953125 C 2.238281 -6.960938 0.828125 -10.59375 0.828125 -14.84375 C 0.828125 -19.175781 2.207031 -22.832031 4.96875 -25.8125 C 7.738281 -28.789062 11.1875 -30.28125 15.3125 -30.28125 C 20.144531 -30.28125 23.96875 -28.585938 26.78125 -25.203125 L 22.34375 -20.328125 C 20.757812 -22.878906 18.550781 -24.15625 15.71875 -24.15625 C 13.625 -24.15625 11.835938 -23.242188 10.359375 -21.421875 C 8.878906 -19.609375 8.140625 -17.414062 8.140625 -14.84375 C 8.140625 -12.320312 8.878906 -10.164062 10.359375 -8.375 C 11.835938 -6.59375 13.625 -5.703125 15.71875 -5.703125 C 17.445312 -5.703125 18.953125 -6.222656 20.234375 -7.265625 C 21.523438 -8.304688 22.171875 -9.691406 22.171875 -11.421875 L 15.3125 -11.421875 L 15.3125 -16.65625 Z M 29.046875 -16.65625 "/></g></g></g></g></g><g transform="matrix(1, 0, 0, 1, 220, 186)"><g clip-path="url(#b36dddf39f)"><g fill="#ffffff" fill-opacity="1"><g transform="translate(0.654975, 31.703072)"><g><path d="M 2.15625 -29.734375 L 11.390625 -29.734375 C 14.179688 -29.734375 16.40625 -29.140625 18.0625 -27.953125 C 19.71875 -26.765625 20.546875 -24.835938 20.546875 -22.171875 C 20.546875 -19.191406 19.304688 -17.0625 16.828125 -15.78125 C 21.054688 -15.039062 23.171875 -12.546875 23.171875 -8.296875 C 23.171875 -5.796875 22.304688 -3.785156 20.578125 -2.265625 C 18.847656 -0.753906 16.472656 0 13.453125 0 L 2.15625 0 Z M 8.9375 -18.09375 L 9.484375 -18.09375 C 10.992188 -18.09375 12.117188 -18.359375 12.859375 -18.890625 C 13.609375 -19.421875 13.984375 -20.285156 13.984375 -21.484375 C 13.984375 -23.503906 12.484375 -24.515625 9.484375 -24.515625 L 8.9375 -24.515625 Z M 8.9375 -5.234375 L 11.0625 -5.234375 C 14.382812 -5.234375 16.046875 -6.335938 16.046875 -8.546875 C 16.046875 -9.867188 15.628906 -10.816406 14.796875 -11.390625 C 13.960938 -11.960938 12.71875 -12.25 11.0625 -12.25 L 8.9375 -12.25 Z M 8.9375 -5.234375 "/></g></g></g><g fill="#ffffff" fill-opacity="1"><g transform="translate(24.662142, 31.703072)"><g><path d="M 19.171875 -29.734375 L 19.171875 -23.796875 L 8.9375 -23.796875 L 8.9375 -17.875 L 18.75 -17.875 L 18.75 -11.9375 L 8.9375 -11.9375 L 8.9375 -5.953125 L 19.171875 -5.953125 L 19.171875 0 L 2.15625 0 L 2.15625 -29.734375 Z M 19.171875 -29.734375 "/></g></g></g><g fill="#ffffff" fill-opacity="1"><g transform="translate(45.56929, 31.703072)"><g><path d="M 17.984375 -6.125 C 19.015625 -6.125 20.015625 -6.28125 20.984375 -6.59375 C 21.960938 -6.90625 22.679688 -7.207031 23.140625 -7.5 L 23.828125 -7.96875 L 26.703125 -2.203125 C 26.609375 -2.128906 26.476562 -2.03125 26.3125 -1.90625 C 26.144531 -1.789062 25.753906 -1.566406 25.140625 -1.234375 C 24.523438 -0.910156 23.867188 -0.628906 23.171875 -0.390625 C 22.484375 -0.148438 21.570312 0.0625 20.4375 0.25 C 19.3125 0.445312 18.144531 0.546875 16.9375 0.546875 C 14.175781 0.546875 11.554688 -0.128906 9.078125 -1.484375 C 6.609375 -2.847656 4.613281 -4.71875 3.09375 -7.09375 C 1.582031 -9.476562 0.828125 -12.050781 0.828125 -14.8125 C 0.828125 -16.90625 1.269531 -18.910156 2.15625 -20.828125 C 3.050781 -22.753906 4.238281 -24.398438 5.71875 -25.765625 C 7.195312 -27.140625 8.921875 -28.234375 10.890625 -29.046875 C 12.859375 -29.867188 14.875 -30.28125 16.9375 -30.28125 C 18.863281 -30.28125 20.632812 -30.050781 22.25 -29.59375 C 23.875 -29.132812 25.023438 -28.675781 25.703125 -28.21875 L 26.703125 -27.546875 L 23.828125 -21.765625 C 23.660156 -21.910156 23.40625 -22.082031 23.0625 -22.28125 C 22.726562 -22.488281 22.054688 -22.757812 21.046875 -23.09375 C 20.035156 -23.4375 19.015625 -23.609375 17.984375 -23.609375 C 16.347656 -23.609375 14.878906 -23.34375 13.578125 -22.8125 C 12.285156 -22.289062 11.257812 -21.59375 10.5 -20.71875 C 9.75 -19.851562 9.175781 -18.921875 8.78125 -17.921875 C 8.382812 -16.929688 8.1875 -15.921875 8.1875 -14.890625 C 8.1875 -12.628906 9.03125 -10.601562 10.71875 -8.8125 C 12.414062 -7.019531 14.835938 -6.125 17.984375 -6.125 Z M 17.984375 -6.125 "/></g></g></g><g fill="#ffffff" fill-opacity="1"><g transform="translate(72.712527, 31.703072)"><g><path d="M 0.828125 -14.890625 C 0.828125 -19.191406 2.289062 -22.832031 5.21875 -25.8125 C 8.15625 -28.789062 11.691406 -30.28125 15.828125 -30.28125 C 19.984375 -30.28125 23.515625 -28.796875 26.421875 -25.828125 C 29.328125 -22.859375 30.78125 -19.210938 30.78125 -14.890625 C 30.78125 -10.535156 29.347656 -6.875 26.484375 -3.90625 C 23.628906 -0.9375 20.078125 0.546875 15.828125 0.546875 C 11.472656 0.546875 7.882812 -0.925781 5.0625 -3.875 C 2.238281 -6.820312 0.828125 -10.492188 0.828125 -14.890625 Z M 8.140625 -14.890625 C 8.140625 -13.328125 8.378906 -11.898438 8.859375 -10.609375 C 9.347656 -9.328125 10.191406 -8.238281 11.390625 -7.34375 C 12.585938 -6.457031 14.066406 -6.015625 15.828125 -6.015625 C 18.347656 -6.015625 20.25 -6.878906 21.53125 -8.609375 C 22.820312 -10.335938 23.46875 -12.429688 23.46875 -14.890625 C 23.46875 -17.316406 22.8125 -19.398438 21.5 -21.140625 C 20.1875 -22.878906 18.296875 -23.75 15.828125 -23.75 C 13.367188 -23.75 11.472656 -22.878906 10.140625 -21.140625 C 8.804688 -19.398438 8.140625 -17.316406 8.140625 -14.890625 Z M 8.140625 -14.890625 "/></g></g></g><g fill="#ffffff" fill-opacity="1"><g transform="translate(104.325575, 31.703072)"><g><path d="M 26.75 0 L 25.34375 -17.625 L 25.15625 -17.625 L 19.0625 -0.1875 L 15.03125 -0.1875 L 8.9375 -17.625 L 8.765625 -17.625 L 7.359375 0 L 0.578125 0 L 3.25 -29.734375 L 10.453125 -29.734375 L 17.046875 -12.578125 L 23.640625 -29.734375 L 30.859375 -29.734375 L 33.53125 0 Z M 26.75 0 "/></g></g></g><g fill="#ffffff" fill-opacity="1"><g transform="translate(138.425849, 31.703072)"><g><path d="M 19.171875 -29.734375 L 19.171875 -23.796875 L 8.9375 -23.796875 L 8.9375 -17.875 L 18.75 -17.875 L 18.75 -11.9375 L 8.9375 -11.9375 L 8.9375 -5.953125 L 19.171875 -5.953125 L 19.171875 0 L 2.15625 0 L 2.15625 -29.734375 Z M 19.171875 -29.734375 "/></g></g></g></g></g><g transform="matrix(1, 0, 0, 1, 419, 186)"><g clip-path="url(#e204e3242f)"><g fill="#edf73d" fill-opacity="1"><g transform="translate(0.216642, 31.703087)"><g><path d="M 2.15625 -29.734375 L 11.390625 -29.734375 C 14.179688 -29.734375 16.40625 -29.140625 18.0625 -27.953125 C 19.71875 -26.765625 20.546875 -24.835938 20.546875 -22.171875 C 20.546875 -19.191406 19.304688 -17.0625 16.828125 -15.78125 C 21.054688 -15.039062 23.171875 -12.546875 23.171875 -8.296875 C 23.171875 -5.796875 22.304688 -3.785156 20.578125 -2.265625 C 18.847656 -0.753906 16.472656 0 13.453125 0 L 2.15625 0 Z M 8.9375 -18.09375 L 9.484375 -18.09375 C 10.992188 -18.09375 12.117188 -18.359375 12.859375 -18.890625 C 13.609375 -19.421875 13.984375 -20.285156 13.984375 -21.484375 C 13.984375 -23.503906 12.484375 -24.515625 9.484375 -24.515625 L 8.9375 -24.515625 Z M 8.9375 -5.234375 L 11.0625 -5.234375 C 14.382812 -5.234375 16.046875 -6.335938 16.046875 -8.546875 C 16.046875 -9.867188 15.628906 -10.816406 14.796875 -11.390625 C 13.960938 -11.960938 12.71875 -12.25 11.0625 -12.25 L 8.9375 -12.25 Z M 8.9375 -5.234375 "/></g></g></g><g fill="#edf73d" fill-opacity="1"><g transform="translate(24.223809, 31.703087)"><g><path d="M 19.171875 -29.734375 L 19.171875 -23.796875 L 8.9375 -23.796875 L 8.9375 -17.875 L 18.75 -17.875 L 18.75 -11.9375 L 8.9375 -11.9375 L 8.9375 -5.953125 L 19.171875 -5.953125 L 19.171875 0 L 2.15625 0 L 2.15625 -29.734375 Z M 19.171875 -29.734375 "/></g></g></g><g fill="#edf73d" fill-opacity="1"><g transform="translate(45.130957, 31.703087)"><g><path d="M 8.9375 -29.734375 L 8.9375 -5.953125 L 19.171875 -5.953125 L 19.171875 0 L 2.15625 0 L 2.15625 -29.734375 Z M 8.9375 -29.734375 "/></g></g></g><g fill="#edf73d" fill-opacity="1"><g transform="translate(65.497401, 31.703087)"><g><path d="M 8.9375 -29.734375 L 8.9375 0 L 2.15625 0 L 2.15625 -29.734375 Z M 8.9375 -29.734375 "/></g></g></g><g fill="#edf73d" fill-opacity="1"><g transform="translate(76.599813, 31.703087)"><g><path d="M 19.171875 -29.734375 L 19.171875 -23.796875 L 8.9375 -23.796875 L 8.9375 -17.875 L 18.75 -17.875 L 18.75 -11.9375 L 8.9375 -11.9375 L 8.9375 -5.953125 L 19.171875 -5.953125 L 19.171875 0 L 2.15625 0 L 2.15625 -29.734375 Z M 19.171875 -29.734375 "/></g></g></g><g fill="#edf73d" fill-opacity="1"><g transform="translate(97.506961, 31.703087)"><g><path d="M 11.46875 0 L -1.015625 -29.734375 L 6.625 -29.734375 L 14.125 -10.203125 L 21.625 -29.734375 L 29.265625 -29.734375 L 16.796875 0 Z M 11.46875 0 "/></g></g></g><g fill="#edf73d" fill-opacity="1"><g transform="translate(125.767657, 31.703087)"><g><path d="M 19.171875 -29.734375 L 19.171875 -23.796875 L 8.9375 -23.796875 L 8.9375 -17.875 L 18.75 -17.875 L 18.75 -11.9375 L 8.9375 -11.9375 L 8.9375 -5.953125 L 19.171875 -5.953125 L 19.171875 0 L 2.15625 0 L 2.15625 -29.734375 Z M 19.171875 -29.734375 "/></g></g></g></g></g><g clip-path="url(#16e2bd34bc)"><g clip-path="url(#787449b08d)"><g transform="matrix(1, 0, 0, 1, 391, 195)"><g clip-path="url(#735299d651)"><g clip-path="url(#85cf2ba5e0)"><g clip-path="url(#598dad0ce4)"><path fill="#7ed957" d="M 0.554688 0.101562 L 16.007812 0.101562 L 16.007812 15.554688 L 0.554688 15.554688 Z M 0.554688 0.101562 " fill-opacity="1" fill-rule="nonzero"/></g></g></g></g></g></g></svg>