<svg xmlns="http://www.w3.org/2000/svg" xmlns:xlink="http://www.w3.org/1999/xlink" width="1600" zoomAndPan="magnify" viewBox="0 0 1200 449.999984" height="600" preserveAspectRatio="xMidYMid meet" version="1.0"><defs><g/><clipPath id="e522dd687a"><path d="M 0 341.71875 L 1200 341.71875 L 1200 450 L 0 450 Z M 0 341.71875 " clip-rule="nonzero"/></clipPath><clipPath id="d60a0cfce4"><path d="M 44.25 341.71875 L 1155.75 341.71875 C 1180.1875 341.71875 1200 361.53125 1200 385.96875 L 1200 405.75 C 1200 430.1875 1180.1875 450 1155.75 450 L 44.25 450 C 19.8125 450 0 430.1875 0 405.75 L 0 385.96875 C 0 361.53125 19.8125 341.71875 44.25 341.71875 Z M 44.25 341.71875 " clip-rule="nonzero"/></clipPath><clipPath id="633fc89907"><path d="M 0 0.71875 L 1200 0.71875 L 1200 109 L 0 109 Z M 0 0.71875 " clip-rule="nonzero"/></clipPath><clipPath id="ae6f4d80bf"><path d="M 44.25 0.71875 L 1155.75 0.71875 C 1180.1875 0.71875 1200 20.53125 1200 44.96875 L 1200 64.75 C 1200 89.1875 1180.1875 109 1155.75 109 L 44.25 109 C 19.8125 109 0 89.1875 0 64.75 L 0 44.96875 C 0 20.53125 19.8125 0.71875 44.25 0.71875 Z M 44.25 0.71875 " clip-rule="nonzero"/></clipPath><clipPath id="bec5aa954d"><rect x="0" width="1200" y="0" height="109"/></clipPath><clipPath id="dd924cb1d3"><path d="M 377.429688 380.265625 L 409.011719 380.265625 L 409.011719 411.847656 L 377.429688 411.847656 Z M 377.429688 380.265625 " clip-rule="nonzero"/></clipPath><clipPath id="be1e5a2446"><path d="M 393.222656 380.265625 C 384.5 380.265625 377.429688 387.335938 377.429688 396.054688 C 377.429688 404.777344 384.5 411.847656 393.222656 411.847656 C 401.941406 411.847656 409.011719 404.777344 409.011719 396.054688 C 409.011719 387.335938 401.941406 380.265625 393.222656 380.265625 Z M 393.222656 380.265625 " clip-rule="nonzero"/></clipPath><clipPath id="e3299bbe56"><path d="M 0.429688 0.265625 L 32.011719 0.265625 L 32.011719 31.847656 L 0.429688 31.847656 Z M 0.429688 0.265625 " clip-rule="nonzero"/></clipPath><clipPath id="ab2d06e79e"><path d="M 16.222656 0.265625 C 7.5 0.265625 0.429688 7.335938 0.429688 16.054688 C 0.429688 24.777344 7.5 31.847656 16.222656 31.847656 C 24.941406 31.847656 32.011719 24.777344 32.011719 16.054688 C 32.011719 7.335938 24.941406 0.265625 16.222656 0.265625 Z M 16.222656 0.265625 " clip-rule="nonzero"/></clipPath><clipPath id="e6c5e89fd6"><rect x="0" width="33" y="0" height="32"/></clipPath><clipPath id="7923b0ef77"><rect x="0" width="322" y="0" height="89"/></clipPath><clipPath id="089b587ec1"><rect x="0" width="326" y="0" height="89"/></clipPath><clipPath id="19084a0eb1"><rect x="0" width="301" y="0" height="89"/></clipPath><clipPath id="8d46bc6a45"><path d="M 782.863281 380.265625 L 814.445312 380.265625 L 814.445312 411.847656 L 782.863281 411.847656 Z M 782.863281 380.265625 " clip-rule="nonzero"/></clipPath><clipPath id="07fdaa2b32"><path d="M 798.65625 380.265625 C 789.933594 380.265625 782.863281 387.335938 782.863281 396.054688 C 782.863281 404.777344 789.933594 411.847656 798.65625 411.847656 C 807.375 411.847656 814.445312 404.777344 814.445312 396.054688 C 814.445312 387.335938 807.375 380.265625 798.65625 380.265625 Z M 798.65625 380.265625 " clip-rule="nonzero"/></clipPath><clipPath id="1c93edb424"><path d="M 0.863281 0.265625 L 32.445312 0.265625 L 32.445312 31.847656 L 0.863281 31.847656 Z M 0.863281 0.265625 " clip-rule="nonzero"/></clipPath><clipPath id="2504ebc207"><path d="M 16.65625 0.265625 C 7.933594 0.265625 0.863281 7.335938 0.863281 16.054688 C 0.863281 24.777344 7.933594 31.847656 16.65625 31.847656 C 25.375 31.847656 32.445312 24.777344 32.445312 16.054688 C 32.445312 7.335938 25.375 0.265625 16.65625 0.265625 Z M 16.65625 0.265625 " clip-rule="nonzero"/></clipPath><clipPath id="e59db4b90c"><rect x="0" width="33" y="0" height="32"/></clipPath></defs><g clip-path="url(#e522dd687a)"><g clip-path="url(#d60a0cfce4)"><g transform="matrix(1, 0, 0, 1, 0, 341)"><g clip-path="url(#bec5aa954d)"><g clip-path="url(#633fc89907)"><g clip-path="url(#ae6f4d80bf)"><path fill="#4887d9" d="M 0 0.71875 L 1199.957031 0.71875 L 1199.957031 109 L 0 109 Z M 0 0.71875 " fill-opacity="1" fill-rule="nonzero"/></g></g></g></g></g></g><g clip-path="url(#dd924cb1d3)"><g clip-path="url(#be1e5a2446)"><g transform="matrix(1, 0, 0, 1, 377, 380)"><g clip-path="url(#e6c5e89fd6)"><g clip-path="url(#e3299bbe56)"><g clip-path="url(#ab2d06e79e)"><path fill="#7ed957" d="M 0.429688 0.265625 L 32.011719 0.265625 L 32.011719 31.847656 L 0.429688 31.847656 Z M 0.429688 0.265625 " fill-opacity="1" fill-rule="nonzero"/></g></g></g></g></g></g><g transform="matrix(1, 0, 0, 1, 32, 361)"><g clip-path="url(#7923b0ef77)"><g fill="#edf73d" fill-opacity="1"><g transform="translate(0.876268, 65.457648)"><g><path d="M 4.421875 -60.796875 L 23.28125 -60.796875 C 28.976562 -60.796875 33.519531 -59.578125 36.90625 -57.140625 C 40.300781 -54.710938 42 -50.769531 42 -45.3125 C 42 -39.226562 39.46875 -34.882812 34.40625 -32.28125 C 43.050781 -30.75 47.375 -25.640625 47.375 -16.953125 C 47.375 -11.835938 45.601562 -7.734375 42.0625 -4.640625 C 38.53125 -1.546875 33.671875 0 27.484375 0 L 4.421875 0 Z M 18.28125 -36.984375 L 19.375 -36.984375 C 22.46875 -36.984375 24.773438 -37.523438 26.296875 -38.609375 C 27.828125 -39.691406 28.59375 -41.460938 28.59375 -43.921875 C 28.59375 -48.046875 25.519531 -50.109375 19.375 -50.109375 L 18.28125 -50.109375 Z M 18.28125 -10.6875 L 22.625 -10.6875 C 29.40625 -10.6875 32.796875 -12.945312 32.796875 -17.46875 C 32.796875 -20.164062 31.945312 -22.101562 30.25 -23.28125 C 28.550781 -24.457031 26.007812 -25.046875 22.625 -25.046875 L 18.28125 -25.046875 Z M 18.28125 -10.6875 "/></g></g></g><g fill="#edf73d" fill-opacity="1"><g transform="translate(49.944243, 65.457648)"><g><path d="M 39.203125 -60.796875 L 39.203125 -48.640625 L 18.28125 -48.640625 L 18.28125 -36.546875 L 38.3125 -36.546875 L 38.3125 -24.390625 L 18.28125 -24.390625 L 18.28125 -12.15625 L 39.203125 -12.15625 L 39.203125 0 L 4.421875 0 L 4.421875 -60.796875 Z M 39.203125 -60.796875 "/></g></g></g><g fill="#edf73d" fill-opacity="1"><g transform="translate(92.676123, 65.457648)"><g><path d="M 18.28125 -60.796875 L 18.28125 -12.15625 L 39.203125 -12.15625 L 39.203125 0 L 4.421875 0 L 4.421875 -60.796875 Z M 18.28125 -60.796875 "/></g></g></g><g fill="#edf73d" fill-opacity="1"><g transform="translate(134.302865, 65.457648)"><g><path d="M 1.6875 -30.4375 C 1.6875 -39.226562 4.679688 -46.664062 10.671875 -52.75 C 16.671875 -58.84375 23.894531 -61.890625 32.34375 -61.890625 C 40.84375 -61.890625 48.0625 -58.859375 54 -52.796875 C 59.945312 -46.734375 62.921875 -39.28125 62.921875 -30.4375 C 62.921875 -21.539062 60 -14.054688 54.15625 -7.984375 C 48.3125 -1.921875 41.039062 1.109375 32.34375 1.109375 C 23.457031 1.109375 16.125 -1.898438 10.34375 -7.921875 C 4.570312 -13.941406 1.6875 -21.445312 1.6875 -30.4375 Z M 16.65625 -30.4375 C 16.65625 -27.238281 17.144531 -24.328125 18.125 -21.703125 C 19.101562 -19.078125 20.820312 -16.851562 23.28125 -15.03125 C 25.738281 -13.21875 28.757812 -12.3125 32.34375 -12.3125 C 37.507812 -12.3125 41.40625 -14.078125 44.03125 -17.609375 C 46.65625 -21.148438 47.96875 -25.425781 47.96875 -30.4375 C 47.96875 -35.394531 46.628906 -39.65625 43.953125 -43.21875 C 41.273438 -46.78125 37.40625 -48.5625 32.34375 -48.5625 C 27.332031 -48.5625 23.460938 -46.78125 20.734375 -43.21875 C 18.015625 -39.65625 16.65625 -35.394531 16.65625 -30.4375 Z M 16.65625 -30.4375 "/></g></g></g><g fill="#edf73d" fill-opacity="1"><g transform="translate(198.916413, 65.457648)"><g><path d="M 18.28125 -37.734375 L 18.28125 0 L 4.421875 0 L 4.421875 -60.796875 L 18.28125 -60.796875 L 42.4375 -23.0625 L 42.59375 -23.0625 L 42.59375 -60.796875 L 56.4375 -60.796875 L 56.4375 0 L 42.59375 0 L 18.421875 -37.734375 Z M 18.28125 -37.734375 "/></g></g></g><g fill="#edf73d" fill-opacity="1"><g transform="translate(259.77249, 65.457648)"><g><path d="M 59.390625 -34.046875 L 59.390625 -20.859375 C 57.816406 -13.628906 54.378906 -8.160156 49.078125 -4.453125 C 43.773438 -0.742188 37.851562 1.109375 31.3125 1.109375 C 23.113281 1.109375 16.125 -1.957031 10.34375 -8.09375 C 4.570312 -14.238281 1.6875 -21.660156 1.6875 -30.359375 C 1.6875 -39.203125 4.507812 -46.664062 10.15625 -52.75 C 15.8125 -58.84375 22.863281 -61.890625 31.3125 -61.890625 C 41.1875 -61.890625 49 -58.425781 54.75 -51.5 L 45.6875 -41.5625 C 42.445312 -46.769531 37.925781 -49.375 32.125 -49.375 C 27.851562 -49.375 24.207031 -47.519531 21.1875 -43.8125 C 18.164062 -40.101562 16.65625 -35.617188 16.65625 -30.359375 C 16.65625 -25.203125 18.164062 -20.789062 21.1875 -17.125 C 24.207031 -13.46875 27.851562 -11.640625 32.125 -11.640625 C 35.664062 -11.640625 38.75 -12.707031 41.375 -14.84375 C 44 -16.976562 45.3125 -19.816406 45.3125 -23.359375 L 31.3125 -23.359375 L 31.3125 -34.046875 Z M 59.390625 -34.046875 "/></g></g></g></g></g><g transform="matrix(1, 0, 0, 1, 433, 361)"><g clip-path="url(#089b587ec1)"><g fill="#ffffff" fill-opacity="1"><g transform="translate(0.56348, 65.457648)"><g><path d="M 4.421875 -60.796875 L 23.28125 -60.796875 C 28.976562 -60.796875 33.519531 -59.578125 36.90625 -57.140625 C 40.300781 -54.710938 42 -50.769531 42 -45.3125 C 42 -39.226562 39.46875 -34.882812 34.40625 -32.28125 C 43.050781 -30.75 47.375 -25.640625 47.375 -16.953125 C 47.375 -11.835938 45.601562 -7.734375 42.0625 -4.640625 C 38.53125 -1.546875 33.671875 0 27.484375 0 L 4.421875 0 Z M 18.28125 -36.984375 L 19.375 -36.984375 C 22.46875 -36.984375 24.773438 -37.523438 26.296875 -38.609375 C 27.828125 -39.691406 28.59375 -41.460938 28.59375 -43.921875 C 28.59375 -48.046875 25.519531 -50.109375 19.375 -50.109375 L 18.28125 -50.109375 Z M 18.28125 -10.6875 L 22.625 -10.6875 C 29.40625 -10.6875 32.796875 -12.945312 32.796875 -17.46875 C 32.796875 -20.164062 31.945312 -22.101562 30.25 -23.28125 C 28.550781 -24.457031 26.007812 -25.046875 22.625 -25.046875 L 18.28125 -25.046875 Z M 18.28125 -10.6875 "/></g></g></g><g fill="#ffffff" fill-opacity="1"><g transform="translate(49.631455, 65.457648)"><g><path d="M 39.203125 -60.796875 L 39.203125 -48.640625 L 18.28125 -48.640625 L 18.28125 -36.546875 L 38.3125 -36.546875 L 38.3125 -24.390625 L 18.28125 -24.390625 L 18.28125 -12.15625 L 39.203125 -12.15625 L 39.203125 0 L 4.421875 0 L 4.421875 -60.796875 Z M 39.203125 -60.796875 "/></g></g></g><g fill="#ffffff" fill-opacity="1"><g transform="translate(92.363335, 65.457648)"><g><path d="M 36.765625 -12.53125 C 38.878906 -12.53125 40.929688 -12.847656 42.921875 -13.484375 C 44.910156 -14.117188 46.375 -14.734375 47.3125 -15.328125 L 48.703125 -16.28125 L 54.609375 -4.5 C 54.410156 -4.351562 54.140625 -4.15625 53.796875 -3.90625 C 53.453125 -3.65625 52.648438 -3.195312 51.390625 -2.53125 C 50.140625 -1.875 48.800781 -1.300781 47.375 -0.8125 C 45.957031 -0.320312 44.09375 0.117188 41.78125 0.515625 C 39.46875 0.910156 37.085938 1.109375 34.640625 1.109375 C 28.984375 1.109375 23.625 -0.273438 18.5625 -3.046875 C 13.507812 -5.828125 9.429688 -9.648438 6.328125 -14.515625 C 3.234375 -19.378906 1.6875 -24.632812 1.6875 -30.28125 C 1.6875 -34.5625 2.59375 -38.664062 4.40625 -42.59375 C 6.226562 -46.519531 8.648438 -49.882812 11.671875 -52.6875 C 14.703125 -55.488281 18.226562 -57.722656 22.25 -59.390625 C 26.28125 -61.054688 30.410156 -61.890625 34.640625 -61.890625 C 38.566406 -61.890625 42.1875 -61.421875 45.5 -60.484375 C 48.8125 -59.554688 51.160156 -58.628906 52.546875 -57.703125 L 54.609375 -56.296875 L 48.703125 -44.5 C 48.359375 -44.800781 47.84375 -45.160156 47.15625 -45.578125 C 46.46875 -45.992188 45.09375 -46.546875 43.03125 -47.234375 C 40.96875 -47.921875 38.878906 -48.265625 36.765625 -48.265625 C 33.429688 -48.265625 30.4375 -47.722656 27.78125 -46.640625 C 25.125 -45.554688 23.019531 -44.128906 21.46875 -42.359375 C 19.925781 -40.597656 18.75 -38.695312 17.9375 -36.65625 C 17.132812 -34.613281 16.734375 -32.539062 16.734375 -30.4375 C 16.734375 -25.8125 18.460938 -21.671875 21.921875 -18.015625 C 25.378906 -14.359375 30.328125 -12.53125 36.765625 -12.53125 Z M 36.765625 -12.53125 "/></g></g></g><g fill="#ffffff" fill-opacity="1"><g transform="translate(147.841089, 65.457648)"><g><path d="M 1.6875 -30.4375 C 1.6875 -39.226562 4.679688 -46.664062 10.671875 -52.75 C 16.671875 -58.84375 23.894531 -61.890625 32.34375 -61.890625 C 40.84375 -61.890625 48.0625 -58.859375 54 -52.796875 C 59.945312 -46.734375 62.921875 -39.28125 62.921875 -30.4375 C 62.921875 -21.539062 60 -14.054688 54.15625 -7.984375 C 48.3125 -1.921875 41.039062 1.109375 32.34375 1.109375 C 23.457031 1.109375 16.125 -1.898438 10.34375 -7.921875 C 4.570312 -13.941406 1.6875 -21.445312 1.6875 -30.4375 Z M 16.65625 -30.4375 C 16.65625 -27.238281 17.144531 -24.328125 18.125 -21.703125 C 19.101562 -19.078125 20.820312 -16.851562 23.28125 -15.03125 C 25.738281 -13.21875 28.757812 -12.3125 32.34375 -12.3125 C 37.507812 -12.3125 41.40625 -14.078125 44.03125 -17.609375 C 46.65625 -21.148438 47.96875 -25.425781 47.96875 -30.4375 C 47.96875 -35.394531 46.628906 -39.65625 43.953125 -43.21875 C 41.273438 -46.78125 37.40625 -48.5625 32.34375 -48.5625 C 27.332031 -48.5625 23.460938 -46.78125 20.734375 -43.21875 C 18.015625 -39.65625 16.65625 -35.394531 16.65625 -30.4375 Z M 16.65625 -30.4375 "/></g></g></g><g fill="#ffffff" fill-opacity="1"><g transform="translate(212.454637, 65.457648)"><g><path d="M 54.671875 0 L 51.796875 -36.03125 L 51.4375 -36.03125 L 38.984375 -0.375 L 30.734375 -0.375 L 18.28125 -36.03125 L 17.90625 -36.03125 L 15.03125 0 L 1.171875 0 L 6.625 -60.796875 L 21.375 -60.796875 L 34.859375 -25.71875 L 48.34375 -60.796875 L 63.078125 -60.796875 L 68.53125 0 Z M 54.671875 0 "/></g></g></g><g fill="#ffffff" fill-opacity="1"><g transform="translate(282.151796, 65.457648)"><g><path d="M 39.203125 -60.796875 L 39.203125 -48.640625 L 18.28125 -48.640625 L 18.28125 -36.546875 L 38.3125 -36.546875 L 38.3125 -24.390625 L 18.28125 -24.390625 L 18.28125 -12.15625 L 39.203125 -12.15625 L 39.203125 0 L 4.421875 0 L 4.421875 -60.796875 Z M 39.203125 -60.796875 "/></g></g></g></g></g><g transform="matrix(1, 0, 0, 1, 839, 361)"><g clip-path="url(#19084a0eb1)"><g fill="#edf73d" fill-opacity="1"><g transform="translate(0.401427, 65.457648)"><g><path d="M 4.421875 -60.796875 L 23.28125 -60.796875 C 28.976562 -60.796875 33.519531 -59.578125 36.90625 -57.140625 C 40.300781 -54.710938 42 -50.769531 42 -45.3125 C 42 -39.226562 39.46875 -34.882812 34.40625 -32.28125 C 43.050781 -30.75 47.375 -25.640625 47.375 -16.953125 C 47.375 -11.835938 45.601562 -7.734375 42.0625 -4.640625 C 38.53125 -1.546875 33.671875 0 27.484375 0 L 4.421875 0 Z M 18.28125 -36.984375 L 19.375 -36.984375 C 22.46875 -36.984375 24.773438 -37.523438 26.296875 -38.609375 C 27.828125 -39.691406 28.59375 -41.460938 28.59375 -43.921875 C 28.59375 -48.046875 25.519531 -50.109375 19.375 -50.109375 L 18.28125 -50.109375 Z M 18.28125 -10.6875 L 22.625 -10.6875 C 29.40625 -10.6875 32.796875 -12.945312 32.796875 -17.46875 C 32.796875 -20.164062 31.945312 -22.101562 30.25 -23.28125 C 28.550781 -24.457031 26.007812 -25.046875 22.625 -25.046875 L 18.28125 -25.046875 Z M 18.28125 -10.6875 "/></g></g></g><g fill="#edf73d" fill-opacity="1"><g transform="translate(49.469402, 65.457648)"><g><path d="M 39.203125 -60.796875 L 39.203125 -48.640625 L 18.28125 -48.640625 L 18.28125 -36.546875 L 38.3125 -36.546875 L 38.3125 -24.390625 L 18.28125 -24.390625 L 18.28125 -12.15625 L 39.203125 -12.15625 L 39.203125 0 L 4.421875 0 L 4.421875 -60.796875 Z M 39.203125 -60.796875 "/></g></g></g><g fill="#edf73d" fill-opacity="1"><g transform="translate(92.201282, 65.457648)"><g><path d="M 18.28125 -60.796875 L 18.28125 -12.15625 L 39.203125 -12.15625 L 39.203125 0 L 4.421875 0 L 4.421875 -60.796875 Z M 18.28125 -60.796875 "/></g></g></g><g fill="#edf73d" fill-opacity="1"><g transform="translate(133.828024, 65.457648)"><g><path d="M 18.28125 -60.796875 L 18.28125 0 L 4.421875 0 L 4.421875 -60.796875 Z M 18.28125 -60.796875 "/></g></g></g><g fill="#edf73d" fill-opacity="1"><g transform="translate(156.520118, 65.457648)"><g><path d="M 39.203125 -60.796875 L 39.203125 -48.640625 L 18.28125 -48.640625 L 18.28125 -36.546875 L 38.3125 -36.546875 L 38.3125 -24.390625 L 18.28125 -24.390625 L 18.28125 -12.15625 L 39.203125 -12.15625 L 39.203125 0 L 4.421875 0 L 4.421875 -60.796875 Z M 39.203125 -60.796875 "/></g></g></g><g fill="#edf73d" fill-opacity="1"><g transform="translate(199.251998, 65.457648)"><g><path d="M 23.4375 0 L -2.0625 -60.796875 L 13.5625 -60.796875 L 28.890625 -20.859375 L 44.21875 -60.796875 L 59.828125 -60.796875 L 34.34375 0 Z M 23.4375 0 "/></g></g></g><g fill="#edf73d" fill-opacity="1"><g transform="translate(257.013712, 65.457648)"><g><path d="M 39.203125 -60.796875 L 39.203125 -48.640625 L 18.28125 -48.640625 L 18.28125 -36.546875 L 38.3125 -36.546875 L 38.3125 -24.390625 L 18.28125 -24.390625 L 18.28125 -12.15625 L 39.203125 -12.15625 L 39.203125 0 L 4.421875 0 L 4.421875 -60.796875 Z M 39.203125 -60.796875 "/></g></g></g></g></g><g clip-path="url(#8d46bc6a45)"><g clip-path="url(#07fdaa2b32)"><g transform="matrix(1, 0, 0, 1, 782, 380)"><g clip-path="url(#e59db4b90c)"><g clip-path="url(#1c93edb424)"><g clip-path="url(#2504ebc207)"><path fill="#7ed957" d="M 0.863281 0.265625 L 32.445312 0.265625 L 32.445312 31.847656 L 0.863281 31.847656 Z M 0.863281 0.265625 " fill-opacity="1" fill-rule="nonzero"/></g></g></g></g></g></g></svg>