<svg xmlns="http://www.w3.org/2000/svg" xmlns:xlink="http://www.w3.org/1999/xlink" width="1920" zoomAndPan="magnify" viewBox="0 0 1440 809.999993" height="1080" preserveAspectRatio="xMidYMid meet" version="1.0"><defs><filter x="0%" y="0%" width="100%" height="100%" id="9c90d6f5ef"><feColorMatrix values="0 0 0 0 1 0 0 0 0 1 0 0 0 0 1 0 0 0 1 0" color-interpolation-filters="sRGB"/></filter><clipPath id="d64c0fc7fd"><path d="M 0 0 L 1440 0 L 1440 810 L 0 810 Z M 0 0 " clip-rule="nonzero"/></clipPath><clipPath id="246eaf3331"><rect x="0" width="1440" y="0" height="810"/></clipPath><clipPath id="3dc84f660c"><path d="M 0 208.527344 L 1440 208.527344 L 1440 810 L 0 810 Z M 0 208.527344 " clip-rule="nonzero"/></clipPath><clipPath id="86fb4caca4"><path d="M 0 0.527344 L 1440 0.527344 L 1440 602 L 0 602 Z M 0 0.527344 " clip-rule="nonzero"/></clipPath><clipPath id="bc1ac282b3"><rect x="0" width="1440" y="0" height="602"/></clipPath><clipPath id="d357f5e6b8"><path d="M 0 199.929688 L 1440 199.929688 L 1440 248.910156 L 0 248.910156 Z M 0 199.929688 " clip-rule="nonzero"/></clipPath><clipPath id="a143d04578"><path d="M 0 0.929688 L 1440 0.929688 L 1440 49.910156 L 0 49.910156 Z M 0 0.929688 " clip-rule="nonzero"/></clipPath><clipPath id="0756a00f33"><rect x="0" width="1440" y="0" height="50"/></clipPath><clipPath id="0dd32d4624"><path d="M 977 208 L 1440 208 L 1440 810 L 977 810 Z M 977 208 " clip-rule="nonzero"/></clipPath><clipPath id="6419403a33"><path d="M 1422.980469 852.457031 L 977.316406 243.933594 L 1025.667969 208.519531 L 1471.332031 817.042969 Z M 1422.980469 852.457031 " clip-rule="nonzero"/></clipPath><clipPath id="5bf63e7a9f"><path d="M 0.28125 0.320312 L 463 0.320312 L 463 602 L 0.28125 602 Z M 0.28125 0.320312 " clip-rule="nonzero"/></clipPath><clipPath id="f01eb71fcf"><path d="M 445.980469 644.457031 L 0.316406 35.933594 L 48.667969 0.519531 L 494.332031 609.042969 Z M 445.980469 644.457031 " clip-rule="nonzero"/></clipPath><clipPath id="1bde3e9e13"><rect x="0" width="463" y="0" height="602"/></clipPath><mask id="5e79b6fced"><g filter="url(#9c90d6f5ef)"><rect x="-144" width="1728" fill="#000000" y="-80.999999" height="971.999992" fill-opacity="0.33"/></g></mask><clipPath id="03370010bc"><path d="M 33 33 L 197 33 L 197 200 L 33 200 Z M 33 33 " clip-rule="nonzero"/></clipPath><clipPath id="41ec411202"><path d="M 0.644531 96.324219 L 124.160156 0.511719 L 229.703125 136.570312 L 106.191406 232.382812 Z M 0.644531 96.324219 " clip-rule="nonzero"/></clipPath><clipPath id="f65ea82540"><path d="M 62.402344 48.417969 C 28.296875 74.875 24.1875 126.671875 53.230469 164.113281 C 82.273438 201.554688 133.46875 210.457031 167.578125 183.996094 C 201.683594 157.539062 205.789062 105.738281 176.746094 68.300781 C 147.703125 30.859375 96.511719 21.957031 62.402344 48.417969 Z M 62.402344 48.417969 " clip-rule="nonzero"/></clipPath><clipPath id="231d663573"><path d="M 0 0 L 164 0 L 164 167 L 0 167 Z M 0 0 " clip-rule="nonzero"/></clipPath><clipPath id="c00ed3d462"><path d="M -32.355469 63.324219 L 91.160156 -32.488281 L 196.703125 103.570312 L 73.191406 199.382812 Z M -32.355469 63.324219 " clip-rule="nonzero"/></clipPath><clipPath id="84fbbf675e"><path d="M 29.402344 15.417969 C -4.703125 41.875 -8.8125 93.671875 20.230469 131.113281 C 49.273438 168.554688 100.46875 177.457031 134.578125 150.996094 C 168.683594 124.539062 172.789062 72.738281 143.746094 35.300781 C 114.703125 -2.140625 63.511719 -11.042969 29.402344 15.417969 Z M 29.402344 15.417969 " clip-rule="nonzero"/></clipPath><clipPath id="a7ae815578"><rect x="0" width="164" y="0" height="167"/></clipPath><clipPath id="8e0728ac97"><rect x="0" width="230" y="0" height="233"/></clipPath><clipPath id="3b164993d5"><path d="M 843.246094 281.703125 L 999.761719 281.703125 L 999.761719 438.144531 L 843.246094 438.144531 Z M 843.246094 281.703125 " clip-rule="nonzero"/></clipPath><clipPath id="54d7b46f6f"><path d="M 910.800781 281.703125 L 999.761719 281.703125 L 999.761719 364.664062 L 910.800781 364.664062 Z M 910.800781 281.703125 " clip-rule="nonzero"/></clipPath><clipPath id="3c8da14691"><path d="M 843.011719 349.496094 L 925.972656 349.496094 L 925.972656 438.453125 L 843.011719 438.453125 Z M 843.011719 349.496094 " clip-rule="nonzero"/></clipPath></defs><rect x="-144" width="1728" fill="#ffffff" y="-80.999999" height="971.999992" fill-opacity="1"/><rect x="-144" width="1728" fill="#ffffff" y="-80.999999" height="971.999992" fill-opacity="1"/><g transform="matrix(1, 0, 0, 1, 0, 0.000000000000039746)"><g clip-path="url(#246eaf3331)"><g clip-path="url(#d64c0fc7fd)"><rect x="-316.8" width="2073.6" fill="#393939" height="1166.39999" y="-178.199998" fill-opacity="1"/></g></g></g><g clip-path="url(#3dc84f660c)"><g transform="matrix(1, 0, 0, 1, 0, 208)"><g clip-path="url(#bc1ac282b3)"><g clip-path="url(#86fb4caca4)"><path fill="#0092be" d="M -14.464844 0.527344 L 1470.417969 0.527344 L 1470.417969 602 L -14.464844 602 Z M -14.464844 0.527344 " fill-opacity="1" fill-rule="nonzero"/></g></g></g></g><g clip-path="url(#d357f5e6b8)"><g transform="matrix(1, 0, 0, 1, 0, 199)"><g clip-path="url(#0756a00f33)"><g clip-path="url(#a143d04578)"><path fill="#ffffff" d="M 0 0.929688 L 1440.023438 0.929688 L 1440.023438 49.910156 L 0 49.910156 Z M 0 0.929688 " fill-opacity="1" fill-rule="nonzero"/></g></g></g></g><g clip-path="url(#0dd32d4624)"><g clip-path="url(#6419403a33)"><g transform="matrix(1, 0, 0, 1, 977, 208)"><g clip-path="url(#1bde3e9e13)"><g clip-path="url(#5bf63e7a9f)"><g clip-path="url(#f01eb71fcf)"><path fill="#ffffff" d="M 445.980469 644.457031 L 0.277344 35.878906 L 48.628906 0.464844 L 494.332031 609.042969 Z M 445.980469 644.457031 " fill-opacity="1" fill-rule="nonzero"/></g></g></g></g></g></g><g mask="url(#5e79b6fced)"><g transform="matrix(1, 0, 0, 1, 819, 257)"><g clip-path="url(#8e0728ac97)"><g clip-path="url(#03370010bc)"><g clip-path="url(#41ec411202)"><g clip-path="url(#f65ea82540)"><g transform="matrix(1, 0, 0, 1, 33, 33)"><g clip-path="url(#a7ae815578)"><g clip-path="url(#231d663573)"><g clip-path="url(#c00ed3d462)"><g clip-path="url(#84fbbf675e)"><path fill="#393939" d="M -32.355469 63.324219 L 91.160156 -32.488281 L 196.332031 103.085938 L 72.816406 198.898438 Z M -32.355469 63.324219 " fill-opacity="1" fill-rule="nonzero"/></g></g></g></g></g></g></g></g></g></g></g><g clip-path="url(#3b164993d5)"><path fill="#c1e021" d="M 976.851562 304.613281 C 1007.398438 335.160156 1007.398438 384.6875 976.851562 415.234375 C 946.300781 445.78125 896.777344 445.78125 866.230469 415.234375 C 835.679688 384.6875 835.679688 335.160156 866.230469 304.613281 C 896.777344 274.066406 946.300781 274.066406 976.851562 304.613281 " fill-opacity="1" fill-rule="evenodd"/></g><g clip-path="url(#54d7b46f6f)"><path fill="#fef8fa" d="M 999.597656 354.949219 C 978.339844 355.878906 957.511719 348.765625 942.113281 333.371094 C 928.128906 319.386719 920.980469 300.917969 920.484375 281.714844 C 917.308594 281.757812 914.136719 281.992188 910.984375 282.417969 C 911.273438 291.972656 913.035156 301.230469 916.257812 310.023438 C 920.433594 321.429688 926.875 331.542969 935.410156 340.074219 C 943.945312 348.609375 954.054688 355.054688 965.460938 359.230469 C 976.25 363.179688 987.742188 364.9375 999.625 364.464844 C 999.804688 361.296875 999.800781 358.117188 999.597656 354.949219 " fill-opacity="1" fill-rule="nonzero"/></g><g clip-path="url(#3c8da14691)"><path fill="#fef8fa" d="M 916.242188 438.304688 C 917.171875 417.046875 910.0625 396.214844 894.667969 380.820312 C 880.679688 366.832031 862.210938 359.6875 843.011719 359.191406 C 843.050781 356.015625 843.285156 352.84375 843.714844 349.691406 C 853.269531 349.980469 862.527344 351.742188 871.320312 354.960938 C 882.726562 359.136719 892.835938 365.582031 901.371094 374.113281 C 909.90625 382.648438 916.347656 392.761719 920.523438 404.167969 C 924.476562 414.957031 926.234375 426.445312 925.761719 438.328125 C 922.59375 438.511719 919.414062 438.503906 916.242188 438.304688 " fill-opacity="1" fill-rule="nonzero"/></g></svg>