<!DOCTYPE svg PUBLIC "-//W3C//DTD SVG 1.1//EN" "http://www.w3.org/Graphics/SVG/1.1/DTD/svg11.dtd">
<!-- Uploaded to: SVG Repo, www.svgrepo.com, Transformed by: SVG Repo Mixer Tools -->
<svg height="800px" width="800px" version="1.1" id="_x32_" xmlns="http://www.w3.org/2000/svg" xmlns:xlink="http://www.w3.org/1999/xlink" viewBox="0 0 512 512" xml:space="preserve" fill="#000000">
<g id="SVGRepo_bgCarrier" stroke-width="0"/>
<g id="SVGRepo_tracerCarrier" stroke-linecap="round" stroke-linejoin="round"/>
<g id="SVGRepo_iconCarrier"> <style type="text/css"> .st0{fill:#e8e230;} </style> <g> <path class="st0" d="M270.53,468.118c-20.387-26.737-29.981-61.49-30.024-98.106c0.026-39.603,11.328-81.828,34.762-119.712 c23.407-37.842,59.256-71.257,107.614-91.956c26.798-11.484,44.555-23.545,56.125-35.158c8.783-8.861,14.21-17.36,17.721-26.048 c-4.615-5.815-9.456-11.518-14.65-17.014C359.122-7.682,228.754-23.722,128.422,34.007c-3.702,5.315-7.162,10.716-10.147,16.264 c-9.577,17.782-15.211,36.435-15.228,56.599c0.026,17.212,4.081,35.823,14.46,56.642c15.47,31.035,23.2,67.479,23.244,103.828 c-0.026,30.973-5.668,61.956-18.059,89.401c-12.354,27.368-31.88,51.465-59.334,66.244c-0.328,0.173-0.673,0.329-1.001,0.501 c2.451,2.821,4.935,5.625,7.524,8.37c65.891,69.73,161.652,94.207,248.526,72.447c-3.15-1.216-6.282-2.459-9.258-3.951 C293.696,492.63,280.712,481.44,270.53,468.118z"/> <path class="st0" d="M481.784,135.264c-8.111,11.441-18.783,22.346-32.398,32.354c-13.701,10.104-30.336,19.438-50.49,28.084 c-40.482,17.376-69.67,44.735-89.083,76.002c-19.378,31.233-28.688,66.469-28.661,98.306c-0.018,22.087,4.468,42.431,12.51,58.608 c8.084,16.23,19.336,28.188,33.674,35.383c9.603,4.797,20.793,7.593,34.296,7.61c13.14,0,28.662-2.969,46.254-9.56 c8.274-6.117,16.298-12.717,23.959-19.964C517.702,360.969,534.975,234.605,481.784,135.264z"/> <path class="st0" d="M100.105,267.34c0.043-30.474-6.747-61.354-18.946-85.65c-12.908-25.771-18.766-51.016-18.749-74.82 c0-6.894,0.638-13.589,1.553-20.198c-75.046,84.985-84.442,208.725-26.142,303.4c2.113-0.923,4.271-1.803,6.272-2.873 c12.14-6.548,22.234-15.91,30.56-27.748C91.321,335.879,100.174,302.023,100.105,267.34z"/> </g> </g>
</svg>